<svg width="253" height="295" viewBox="0 0 253 295" fill="none" xmlns="http://www.w3.org/2000/svg">
<path d="M105.122 10.155C98.0963 16.3907 94.2992 25.4365 96.819 34.9584C98.5028 41.345 102.625 48.0684 99.7684 54.0021C97.2835 59.0882 90.9084 60.621 86.3333 63.9653C83.8479 65.7829 81.858 68.1946 80.5454 70.9798C79.2328 73.7651 78.6395 76.835 78.8197 79.9087C78.9999 82.9825 79.9478 85.962 81.5769 88.5748C83.2059 91.1876 85.464 93.3503 88.1447 94.865C91.28 96.6301 95.0307 97.559 97.4344 100.265C100.221 103.435 100.303 108.056 101.15 112.19C103.914 125.625 117.21 136.076 130.924 135.565C136.73 135.356 142.861 132.999 145.601 127.913C147.645 124.151 147.552 119.378 150.165 115.976C153.765 111.331 160.616 111.273 166.166 109.264C169.482 108.06 172.448 106.052 174.799 103.421C177.149 100.789 178.81 97.6165 179.634 94.1859C180.458 90.7553 180.418 87.174 179.519 83.7625C178.619 80.3509 176.888 77.2155 174.481 74.6368C171.427 71.3738 167.397 69.1095 164.482 65.7187C160.743 61.3642 159.176 55.4885 158.851 49.7521C158.526 44.0158 159.304 38.2794 159.698 32.5546C160.325 23.474 159.698 11.7458 151.825 5.74238C139.586 -3.54727 120.473 -0.562963 108.477 7.56549C107.302 8.35244 106.181 9.21755 105.122 10.155Z" fill="#2E548A"/>
<path d="M106.782 14.0915C100.245 19.8975 96.7029 28.3279 99.0485 37.1995C100.616 43.1449 104.495 49.4154 101.789 54.9427C99.4665 59.6805 93.5328 61.1087 89.2828 64.2324C86.9655 65.9249 85.1095 68.1714 83.8846 70.7664C82.6597 73.3615 82.1051 76.2222 82.2714 79.087C82.4378 81.9518 83.3197 84.7291 84.8367 87.165C86.3537 89.6008 88.4573 91.6174 90.955 93.0303C93.8812 94.6792 97.3764 95.5501 99.5943 98.0699C102.195 101.019 102.277 105.316 103.078 109.171C105.644 121.701 118.046 131.431 130.819 130.955C136.196 130.758 141.944 128.563 144.498 123.826C146.391 120.342 146.31 115.871 148.748 112.701C152.092 108.358 158.491 108.323 163.646 106.442C166.737 105.322 169.502 103.453 171.693 101.002C173.884 98.5518 175.434 95.596 176.202 92.3996C176.971 89.2033 176.935 85.8663 176.097 82.6873C175.26 79.5084 173.647 76.5867 171.403 74.1839C168.558 71.1416 164.808 69.0282 162.114 65.8697C158.63 61.8171 157.167 56.3478 156.853 50.9946C156.54 45.6415 157.283 40.3115 157.643 34.97C158.235 26.5164 157.701 15.5778 150.316 9.98081C138.913 1.35304 121.135 4.10508 109.929 11.6878C108.826 12.4161 107.775 13.2192 106.782 14.0915Z" fill="#1D3557"/>
<path d="M105.621 107.662L88.1332 128.993L82.5478 135.809L60.5081 162.691L52.7164 144.495L58.9405 134.671L72.9446 112.55L73.502 111.679L89.5731 86.2605L104.518 106.187L105.621 107.662Z" fill="#FFC9B9"/>
<path d="M105.621 107.662L88.1332 129.005L82.5478 135.809C77.3851 129.033 74.0756 121.029 72.9446 112.585L73.502 111.714L89.5731 86.2953L104.518 106.222L105.621 107.662Z" fill="#FFAB90"/>
<path d="M105.621 107.662L88.1331 129.005C86.127 127.845 84.3326 126.353 82.8265 124.592C79.358 120.568 76.2495 116.247 73.5368 111.679L89.6079 86.2605L104.553 106.187L105.621 107.662Z" fill="#457B9D"/>
<path d="M82.8149 124.592C84.3271 126.347 86.1204 127.838 88.1216 129.005L105.621 107.65L104.518 106.175C96.5055 111.563 88.9228 117.509 82.8149 124.592Z" fill="#2E5269"/>
<path d="M60.8448 141.116C55.7528 122.462 47.8723 104.685 37.4698 88.3855C35.4609 90.1157 32.8249 90.7892 30.8044 92.5078C34.079 110.309 37.2607 127.646 40.5353 145.436C41.3714 150.011 42.2539 154.725 44.437 158.627C45.9624 161.661 48.5804 164.006 51.7642 165.188C53.3097 165.677 54.9657 165.697 56.5224 165.244C58.079 164.791 59.4662 163.887 60.5081 162.645C62.5518 160.183 63.2369 156.513 62.9931 153.088C62.612 149.044 61.8934 145.04 60.8448 141.116Z" fill="#FFC9B9"/>
<path d="M38.4218 89.059C37.2343 86.934 35.6309 85.0699 33.7073 83.5781L25.3815 82.893C23.6165 83.4968 21.8979 84.2864 20.0748 84.9367C19.9836 84.9707 19.9027 85.0276 19.8398 85.1018C19.7768 85.1761 19.734 85.2653 19.7154 85.3608C19.6967 85.4563 19.7029 85.555 19.7333 85.6475C19.7637 85.74 19.8173 85.8231 19.889 85.8889C21.8631 87.6423 23.4887 87.3636 26.1595 85.9586C30.3863 87.3172 29.6431 90.824 31.9655 91.5324C33.1653 91.8394 34.4309 91.7663 35.5873 91.3232C36.7438 90.8802 37.7342 90.089 38.4218 89.059Z" fill="#FFC9B9"/>
<path d="M29.0742 90.4524L20.8645 91.7762C19.0414 90.9518 15.9758 90.2666 14.1527 89.4538C15.9484 88.522 17.5706 87.2887 18.9485 85.8076C19.0133 85.7326 19.0529 85.6392 19.0621 85.5405C19.0712 85.4419 19.0493 85.3428 18.9995 85.2571C18.9496 85.1715 18.8743 85.1035 18.784 85.0628C18.6937 85.022 18.5929 85.0104 18.4956 85.0296C16.0881 85.3514 13.7408 86.0243 11.5284 87.0269C11.2888 87.1463 11.0827 87.3235 10.9287 87.5424C10.7746 87.7614 10.6774 88.0152 10.6459 88.281C10.5065 89.3377 10.5182 90.2086 10.4717 91.184C10.4574 91.4744 10.5196 91.7634 10.652 92.0222C10.7845 92.281 10.9826 92.5005 11.2265 92.6587C13.1065 93.7416 15.1437 94.5251 17.2648 94.9812C21.1097 95.9435 25.1153 96.078 29.0162 95.376L29.0742 90.4524Z" fill="#FFC9B9"/>
<path d="M15.07 96.5836C14.1962 94.7102 13.9479 92.6055 14.3617 90.5802C16.0686 89.419 36.4246 86.423 37.3187 87.3172C38.2129 88.2113 40.8023 92.6703 40.4539 93.7967C40.0011 95.2598 40.1056 96.9436 38.7934 97.4893C33.113 99.5114 27.2361 100.932 21.2592 101.728C18.0195 102.111 16.5912 99.7537 15.07 96.5836Z" fill="#FFC9B9"/>
<path d="M22.7804 91.4511L10.7038 93.1813C7.86086 92.0707 4.83796 91.4921 1.78579 91.4743C1.14713 91.4743 0.403939 91.5556 0.102025 91.9736C0.00947247 92.136 -0.0214709 92.3263 0.0147784 92.5097C0.0510276 92.6931 0.152097 92.8573 0.299481 92.9723C0.620963 93.2473 0.985896 93.4671 1.3794 93.6225C3.44634 94.5631 7.91696 95.5153 9.98391 96.4559C14.861 96.0727 17.5434 96.4559 22.0953 95.1437C22.7989 94.9733 23.4619 94.6655 24.0462 94.238C24.3063 94.0717 24.5106 93.8312 24.6327 93.5476C24.7549 93.2641 24.7892 92.9504 24.7312 92.6471C24.5518 92.2842 24.2735 91.9794 23.9283 91.7677C23.5832 91.5561 23.1853 91.4463 22.7804 91.4511Z" fill="#FFC9B9"/>
<path d="M24.5455 94.4702L12.4806 96.2004C9.63701 95.0919 6.61449 94.5133 3.56253 94.4934C2.92387 94.4934 2.16907 94.5747 1.87876 94.9928C1.7873 95.1545 1.75576 95.3433 1.78975 95.5259C1.82373 95.7086 1.92102 95.8734 2.06453 95.9914C2.39028 96.2665 2.75904 96.4862 3.15606 96.6417C5.22301 97.5822 9.6937 98.5344 11.7606 99.475C16.6261 99.0918 19.3085 99.475 23.872 98.1745C24.5746 97.9953 25.2367 97.6839 25.8228 97.2571C26.0809 97.0892 26.2828 96.8481 26.4028 96.5647C26.5228 96.2812 26.5554 95.9684 26.4964 95.6663C26.3192 95.3016 26.0414 94.9952 25.6957 94.7832C25.35 94.5713 24.9509 94.4627 24.5455 94.4702Z" fill="#FFC9B9"/>
<path d="M27.9827 96.99L15.8829 98.7086C13.0399 97.598 10.017 97.0194 6.96485 97.0016C6.33779 97.0016 5.58301 97.0829 5.29271 97.5009C5.20124 97.6627 5.1697 97.8514 5.20369 98.0341C5.23767 98.2168 5.33496 98.3816 5.47847 98.4996C5.80422 98.7747 6.17298 98.9944 6.57 99.1499C8.63695 100.09 13.1076 101.043 15.163 101.983C20.04 101.6 22.7224 101.983 27.286 100.671C27.9879 100.496 28.65 100.188 29.2368 99.7653C29.4946 99.5944 29.6961 99.3511 29.816 99.066C29.9358 98.7808 29.9687 98.4666 29.9103 98.1628C29.7283 97.8086 29.452 97.5117 29.1118 97.3047C28.7717 97.0977 28.3809 96.9888 27.9827 96.99Z" fill="#FFC9B9"/>
<path d="M36.506 91.2537C34.6033 91.8061 32.6012 91.926 30.6462 91.6045C28.6912 91.2831 26.833 90.5284 25.2074 89.3957C24.7662 89.0822 24.3133 89.7905 24.7546 90.0925C26.4719 91.2892 28.4348 92.0875 30.5 92.429C32.5652 92.7705 34.6805 92.6467 36.6917 92.0665C37.2143 91.9155 37.0285 91.1027 36.506 91.2537Z" fill="#FFAB90"/>
<path d="M200.225 144.495L163.379 86.2605L147.332 107.65L192.444 162.691L200.225 144.495Z" fill="#FFC9B9"/>
<path d="M163.356 86.2605L179.985 112.539C178.849 120.981 175.54 128.984 170.381 135.763L147.332 107.65L163.356 86.2605Z" fill="#FFAB90"/>
<path d="M163.356 86.2605L148.411 106.187L147.308 107.662L164.796 129.005C166.802 127.845 168.597 126.353 170.103 124.592C173.571 120.568 176.68 116.247 179.392 111.679L163.356 86.2605Z" fill="#457B9D"/>
<path d="M170.138 124.592C168.625 126.347 166.832 127.838 164.831 129.005L147.332 107.65L148.435 106.175C156.459 111.563 164.03 117.509 170.138 124.592Z" fill="#2E5269"/>
<path d="M192.108 141.116C197.2 122.462 205.08 104.685 215.483 88.3855C217.492 90.1157 220.128 90.7892 222.148 92.5078C218.874 110.309 215.692 127.646 212.417 145.436C211.581 150.011 210.699 154.725 208.516 158.627C206.99 161.661 204.372 164.006 201.188 165.188C199.643 165.676 197.987 165.695 196.431 165.242C194.875 164.789 193.487 163.885 192.444 162.645C190.401 160.183 189.716 156.514 189.959 153.088C190.34 149.044 191.059 145.04 192.108 141.116Z" fill="#FFC9B9"/>
<path d="M214.531 89.059C215.718 86.934 217.321 85.0699 219.245 83.5781L227.582 82.893C229.336 83.4968 231.066 84.2864 232.878 84.9367C232.969 84.9707 233.05 85.0276 233.113 85.1018C233.176 85.1761 233.218 85.2653 233.237 85.3608C233.256 85.4563 233.25 85.555 233.219 85.6475C233.189 85.74 233.135 85.8231 233.063 85.8889C231.089 87.6423 229.464 87.3636 226.793 85.9586C222.566 87.3172 223.309 90.824 220.987 91.5324C219.787 91.8394 218.521 91.7663 217.365 91.3232C216.209 90.8802 215.218 90.089 214.531 89.059Z" fill="#FFC9B9"/>
<path d="M223.89 90.4524L232.088 91.7762C233.911 90.9518 236.977 90.2666 238.8 89.4538C237.006 88.5191 235.384 87.2861 234.004 85.8076C233.939 85.7326 233.899 85.6392 233.89 85.5405C233.881 85.4419 233.903 85.3428 233.953 85.2571C234.003 85.1715 234.078 85.1035 234.168 85.0628C234.259 85.022 234.36 85.0104 234.457 85.0296C236.844 85.357 239.172 86.0298 241.366 87.0269C241.605 87.1463 241.812 87.3235 241.966 87.5424C242.12 87.7614 242.217 88.0152 242.248 88.281C242.388 89.3377 242.376 90.2086 242.423 91.184C242.437 91.4744 242.375 91.7634 242.242 92.0222C242.11 92.281 241.912 92.5005 241.668 92.6587C239.788 93.7416 237.751 94.5251 235.63 94.9812C231.788 95.9432 227.787 96.0778 223.89 95.376V90.4524Z" fill="#FFC9B9"/>
<path d="M237.882 96.5836C238.762 94.7118 239.01 92.6052 238.591 90.5802C236.884 89.419 216.528 86.423 215.645 87.3172C214.763 88.2113 212.162 92.6703 212.498 93.7967C212.951 95.2598 212.858 96.9436 214.159 97.4893C219.839 99.5114 225.716 100.932 231.693 101.728C234.933 102.111 236.373 99.7537 237.882 96.5836Z" fill="#FFC9B9"/>
<path d="M230.172 91.4511L242.249 93.1813C245.092 92.0707 248.114 91.4921 251.167 91.4743C251.805 91.4743 252.548 91.5556 252.85 91.9736C252.942 92.1353 252.973 92.3241 252.939 92.5068C252.905 92.6894 252.808 92.8543 252.665 92.9723C252.337 93.2449 251.969 93.4643 251.573 93.6225C249.506 94.5631 245.035 95.5153 242.968 96.4559C238.103 96.0727 235.409 96.4559 230.857 95.1437C230.153 94.9733 229.49 94.6655 228.906 94.238C228.648 94.0695 228.446 93.8287 228.324 93.5458C228.202 93.2628 228.166 92.9503 228.221 92.6471C228.401 92.2842 228.679 91.9794 229.024 91.7677C229.369 91.5561 229.767 91.4463 230.172 91.4511Z" fill="#FFC9B9"/>
<path d="M228.384 94.4702L240.46 96.2004C243.3 95.091 246.318 94.5124 249.367 94.4934C250.005 94.4934 250.76 94.5747 251.05 94.9928C251.142 95.1545 251.173 95.3433 251.139 95.5259C251.105 95.7086 251.008 95.8734 250.865 95.9914C250.539 96.2665 250.17 96.4862 249.773 96.6417C247.706 97.5822 243.236 98.5344 241.169 99.475C236.303 99.0918 233.621 99.475 229.057 98.1745C228.356 97.9904 227.695 97.6794 227.106 97.2571C226.848 97.0892 226.646 96.8481 226.526 96.5647C226.406 96.2812 226.374 95.9684 226.433 95.6663C226.611 95.3024 226.889 94.9968 227.235 94.7851C227.58 94.5733 227.979 94.4641 228.384 94.4702Z" fill="#FFC9B9"/>
<path d="M224.97 96.99L237.046 98.7202C239.889 97.6097 242.912 97.031 245.964 97.0133C246.591 97.0133 247.346 97.0945 247.648 97.5126C247.736 97.6761 247.764 97.8651 247.728 98.0473C247.692 98.2294 247.594 98.3934 247.451 98.5112C247.127 98.7889 246.757 99.0088 246.359 99.1615C244.292 100.102 239.822 101.054 237.766 101.995C232.889 101.612 230.207 101.995 225.655 100.683C224.948 100.51 224.282 100.202 223.692 99.7769C223.435 99.6061 223.233 99.3627 223.113 99.0776C222.993 98.7925 222.961 98.4782 223.019 98.1745C223.201 97.8146 223.48 97.5129 223.825 97.3036C224.17 97.0942 224.566 96.9856 224.97 96.99Z" fill="#FFC9B9"/>
<path d="M216.446 91.2537C218.349 91.8069 220.351 91.9273 222.306 91.6058C224.262 91.2843 226.12 90.5291 227.745 89.3957C228.186 89.0822 228.639 89.7905 228.198 90.0925C226.481 91.2892 224.518 92.0875 222.452 92.429C220.387 92.7705 218.272 92.6467 216.261 92.0665C215.75 91.9155 215.924 91.1027 216.446 91.2537Z" fill="#FFAB90"/>
<path d="M164.006 177.578C161.283 173.407 158.214 169.472 154.833 165.815C149.758 165.524 110.707 165.548 106.062 165.815C101.448 170.814 97.4121 176.318 94.0321 182.223C117.398 186.189 141.37 184.598 164.006 177.578Z" fill="#FFC9B9"/>
<path d="M89.5731 86.2605C89.5731 86.2605 123.039 71.1648 163.379 86.2605L154.833 165.815C134.105 174.141 106.062 165.815 106.062 165.815L89.5731 86.2605Z" fill="#457B9D"/>
<path d="M213.834 188.249C212.673 185.161 209.27 183.384 205.984 183.233C202.698 183.082 199.493 184.243 196.451 185.486C188.509 188.73 180.853 192.634 173.563 197.156C171.251 190.238 168.038 183.656 164.006 177.578C141.384 184.59 117.43 186.181 94.0786 182.223C91.3404 186.958 89.0952 191.962 87.3784 197.156C80.0869 192.636 72.4312 188.733 64.491 185.486C61.437 184.243 58.2438 183.082 54.9575 183.233C51.6713 183.384 48.2458 185.161 47.1078 188.249C45.5452 192.212 45.5911 196.628 47.2355 200.558C49.1789 204.231 51.6955 207.571 54.6904 210.452C64.1078 220.345 74.5123 229.449 86.4495 236.079C98.3867 242.71 111.996 246.797 125.605 246.298C125.536 242.547 125.675 242.547 125.605 246.298C139.25 246.797 162.543 242.71 174.492 236.079C186.441 229.449 196.834 220.345 206.251 210.452C209.246 207.571 211.763 204.231 213.706 200.558C215.351 196.628 215.396 192.212 213.834 188.249Z" fill="#457B9D"/>
<path d="M46.0743 193.649C45.8861 196.012 46.285 198.386 47.2355 200.558C49.1789 204.231 51.6955 207.571 54.6904 210.452C64.1078 220.345 74.5123 229.449 86.4495 236.079C98.3867 242.71 111.996 246.797 125.605 246.298C125.536 242.547 125.675 242.547 125.605 246.298C139.25 246.797 162.543 242.71 174.492 236.079C186.441 229.449 196.834 220.345 206.251 210.452C209.246 207.571 211.763 204.231 213.706 200.558C215.351 196.628 215.396 192.212 213.834 188.249C213.426 187.191 212.764 186.25 211.906 185.509C192.723 191.559 175.607 204.762 159.327 218.417C152.865 223.834 144.818 227.004 136.398 227.448C127.978 227.892 119.642 225.586 112.646 220.879C92.2439 207.107 68.6598 196.029 46.0743 193.649Z" fill="#2E5269"/>
<path d="M122.133 61.4803L121.553 76.367C121.499 77.2578 121.265 78.1285 120.866 78.9267C120.467 79.7249 119.911 80.4342 119.23 81.0118C119.073 81.1453 118.933 81.2973 118.812 81.4647C118.508 81.9095 118.302 82.414 118.208 82.9445C118.114 83.4751 118.134 84.0196 118.266 84.5419C118.545 85.5521 128.218 102.483 133.362 98.0816C134.152 97.4081 139.041 86.0631 139.493 85.0296C139.738 84.4994 139.87 83.9241 139.879 83.3404C139.889 82.7566 139.778 82.1771 139.551 81.6389C139.409 81.3484 139.203 81.0943 138.948 80.8957C137.551 79.8929 136.562 78.4216 136.161 76.7502C135.245 71.8897 134.748 66.9598 134.674 62.0145L122.133 61.4803Z" fill="#FFC9B9"/>
<path d="M132.41 71.7454C133.444 71.5498 134.43 71.1555 135.313 70.5842C134.988 67.716 134.802 64.7782 134.756 61.9332L122.133 61.4339C122.052 63.4312 121.982 65.4168 121.901 67.4141C124.955 69.6901 128.822 72.326 132.41 71.7454Z" fill="#FFAB90"/>
<path d="M114.76 43.2261C113.976 42.8235 113.133 42.5491 112.263 42.4133C111.817 42.3564 111.364 42.4092 110.943 42.567C110.522 42.7249 110.146 42.983 109.848 43.319C109.573 43.7438 109.414 44.2334 109.388 44.7387C109.361 45.2441 109.468 45.7475 109.697 46.1988C110.08 47.0563 110.7 47.7869 111.484 48.3051C112.267 48.8233 113.182 49.1077 114.121 49.125L114.76 43.2261Z" fill="#FFAB90"/>
<path d="M143.093 43.2261C143.892 42.822 144.751 42.5476 145.636 42.4133C146.082 42.3564 146.535 42.4092 146.956 42.567C147.377 42.7249 147.753 42.983 148.051 43.319C148.33 43.7425 148.49 44.2324 148.517 44.7385C148.543 45.2445 148.435 45.7485 148.202 46.1988C147.82 47.0571 147.201 47.7885 146.417 48.3068C145.633 48.8252 144.718 49.1091 143.778 49.125L143.093 43.2261Z" fill="#FFAB90"/>
<path d="M129.263 66.2296C124.827 66.427 115.491 61.0274 114.342 52.4577L113.691 47.209L112.193 37.4317C112.136 35.1618 112.536 32.9034 113.37 30.7915C114.204 28.6795 115.454 26.7572 117.047 25.1392C118.641 23.5212 120.543 22.2406 122.642 21.374C124.741 20.5073 126.993 20.0723 129.263 20.0949C130.424 33.8784 146.333 27.8517 146.333 37.4317L144.22 49.8334C144.127 50.4139 144.069 50.9994 144.045 51.5868C143.5 60.6326 134.814 65.9858 129.263 66.2296Z" fill="#FFC9B9"/>
<path d="M132.131 58.4611C130.073 59.0357 127.896 59.0357 125.838 58.4611C125.454 58.3566 125.269 58.9488 125.652 59.0534C127.817 59.6571 130.106 59.6571 132.271 59.0534C132.654 58.9605 132.515 58.3566 132.131 58.4611Z" fill="#FFAB90"/>
<path d="M123.295 41.8907C121.291 42.6138 119.092 42.5724 117.117 41.7746C116.745 41.6237 116.56 42.2159 116.92 42.3668C119.003 43.203 121.32 43.2484 123.434 42.4946C123.794 42.4133 123.666 41.7514 123.295 41.8907Z" fill="#1D3557"/>
<path d="M141.804 41.8907C139.801 42.6138 137.601 42.5724 135.627 41.7746C135.255 41.6237 135.069 42.2159 135.429 42.3668C137.512 43.203 139.829 43.2484 141.944 42.4946C142.304 42.4133 142.176 41.7514 141.804 41.8907Z" fill="#1D3557"/>
<path d="M195.557 187.076C170.521 207.7 139.482 235.383 114.446 255.994C118.325 263.879 117.187 263.043 121.077 270.927C149.573 260.476 184.839 245.799 207.447 225.547C211.546 221.878 215.576 218.023 218.432 213.343C221.289 208.663 222.961 203.02 221.916 197.62C221.355 194.744 220.084 192.054 218.218 189.795C216.352 187.535 213.951 185.779 211.233 184.684C208.65 183.617 205.824 183.276 203.062 183.698C200.299 184.119 197.704 185.288 195.557 187.076Z" fill="#FFB59E"/>
<path d="M114.446 255.994C118.325 263.879 117.187 263.043 121.077 270.927C136.446 265.419 151.516 259.109 166.224 252.023C155.019 250.176 144.336 246.077 135.394 238.379C128.137 244.568 121.077 250.536 114.446 255.994Z" fill="#FFAB90"/>
<path d="M221.962 197.62C221.402 194.744 220.13 192.054 218.265 189.795C216.399 187.535 213.997 185.779 211.279 184.684C208.69 183.608 205.856 183.262 203.084 183.684C200.312 184.105 197.708 185.279 195.556 187.076C177.151 202.23 155.518 221.193 135.394 238.379C144.336 246.077 155.019 250.176 166.224 252.023C181.517 244.498 196.079 235.766 207.447 225.547C211.546 221.878 215.576 218.023 218.432 213.343C221.289 208.663 222.961 203.02 221.962 197.62Z" fill="#FFC9B9"/>
<path d="M115.05 256.366L114.446 255.994L85.6367 268.442C84.6671 268.865 83.7479 269.394 82.8963 270.021C81.4119 271.092 80.1577 272.449 79.2083 274.014C78.2589 275.578 77.6337 277.318 77.3697 279.128C77.1057 280.939 77.2084 282.785 77.6717 284.555C78.1349 286.326 78.9492 287.985 80.0663 289.434C81.1834 290.884 82.5804 292.094 84.1744 292.993C85.7684 293.892 87.5268 294.461 89.3451 294.667C91.1635 294.873 93.0047 294.712 94.7594 294.192C96.5141 293.673 98.1465 292.806 99.5595 291.643C99.9048 291.376 100.234 291.089 100.547 290.784L121.077 270.927C121.737 268.175 121.51 265.284 120.428 262.668C119.345 260.052 117.463 257.846 115.05 256.366Z" fill="#1D3557"/>
<path d="M65.3852 187.077C90.4208 207.7 121.46 235.383 146.495 255.994C142.605 263.879 143.639 262.543 139.76 270.428C111.253 259.977 76.1031 245.799 53.4944 225.547C49.3954 221.878 45.366 218.023 42.5094 213.343C39.6528 208.663 37.9807 203.02 39.0258 197.62C39.5865 194.744 40.8576 192.054 42.7235 189.795C44.5894 187.536 46.9907 185.779 49.7089 184.684C52.2919 183.617 55.1174 183.276 57.8801 183.698C60.6429 184.119 63.238 185.288 65.3852 187.077Z" fill="#FFC9B9"/>
<path d="M178.034 270.01C177.186 269.378 176.266 268.848 175.294 268.431L146.496 255.982L145.892 256.354C143.476 257.832 141.592 260.038 140.509 262.654C139.426 265.271 139.201 268.163 139.865 270.916L160.395 290.772C160.707 291.077 161.037 291.364 161.382 291.632C162.802 292.725 164.423 293.528 166.153 293.995C167.883 294.462 169.688 294.583 171.465 294.352C173.242 294.122 174.956 293.543 176.51 292.65C178.063 291.757 179.426 290.566 180.519 289.147C181.612 287.727 182.415 286.106 182.882 284.376C183.349 282.646 183.471 280.841 183.24 279.064C183.009 277.287 182.431 275.572 181.537 274.019C180.644 272.466 179.454 271.103 178.034 270.01Z" fill="#1D3557"/>
<path d="M129.426 51.4359C129.292 51.5611 129.132 51.6558 128.958 51.7132C128.784 51.7706 128.599 51.7895 128.417 51.7685C128.234 51.7476 128.059 51.6872 127.902 51.5917C127.746 51.4961 127.612 51.3677 127.51 51.2153C127.155 50.5364 126.99 49.7739 127.034 49.009C126.941 46.9768 126.941 44.9447 127.034 42.9126C127.034 42.8017 126.99 42.6954 126.911 42.617C126.833 42.5386 126.726 42.4946 126.616 42.4946C126.505 42.4946 126.398 42.5386 126.32 42.617C126.242 42.6954 126.198 42.8017 126.198 42.9126C126.198 44.2132 126.139 45.5021 126.198 46.8027C126.188 47.9389 126.242 49.0748 126.36 50.205C126.381 50.6303 126.496 51.0456 126.697 51.4211C126.898 51.7966 127.179 52.1229 127.521 52.3765C127.912 52.5944 128.361 52.6837 128.805 52.6316C129.249 52.5795 129.665 52.3886 129.995 52.0862C130.39 51.703 129.821 51.0759 129.426 51.4359Z" fill="#FFAB90"/>
<path d="M132.189 55.3608C131.312 56.2663 130.112 56.787 128.852 56.8088C127.591 56.8305 126.374 56.3516 125.466 55.4769C125.083 55.1053 124.467 55.6743 124.851 56.0459C125.91 57.0799 127.336 57.6538 128.816 57.6429C130.297 57.6321 131.714 57.0373 132.758 55.9878C133.165 55.6046 132.572 54.9776 132.189 55.3608Z" fill="#1D3557"/>
<path d="M157.062 264.552C155.005 265.683 153.291 267.348 152.099 269.371C150.908 271.394 150.284 273.7 150.293 276.048C150.293 276.582 151.14 276.617 151.129 276.048C151.114 273.848 151.693 271.685 152.804 269.786C153.916 267.887 155.52 266.324 157.446 265.261C157.511 265.197 157.554 265.114 157.568 265.024C157.582 264.933 157.566 264.841 157.523 264.761C157.48 264.681 157.411 264.617 157.328 264.579C157.245 264.541 157.152 264.532 157.062 264.552Z" fill="white"/>
<path d="M163.542 267.409C161.176 268.215 159.138 269.77 157.734 271.838C156.331 273.905 155.638 276.374 155.762 278.87C155.762 279.404 156.633 279.45 156.598 278.87C156.469 276.557 157.095 274.265 158.381 272.339C159.666 270.412 161.543 268.955 163.728 268.187C164.239 268.047 164.053 267.235 163.542 267.409Z" fill="white"/>
<path d="M102.068 264.552C104.125 265.682 105.839 267.346 107.029 269.37C108.219 271.394 108.839 273.701 108.826 276.048C108.826 276.582 107.99 276.617 107.99 276.048C108.01 273.847 107.433 271.682 106.321 269.782C105.208 267.883 103.602 266.32 101.673 265.261C101.605 265.197 101.56 265.112 101.546 265.02C101.532 264.928 101.549 264.834 101.594 264.752C101.639 264.671 101.711 264.607 101.796 264.571C101.882 264.535 101.978 264.528 102.068 264.552Z" fill="white"/>
<path d="M95.5882 267.409C97.9536 268.214 99.9919 269.769 101.394 271.837C102.796 273.905 103.485 276.374 103.357 278.87C103.357 279.404 102.497 279.45 102.532 278.87C102.662 276.555 102.036 274.262 100.747 272.335C99.4591 270.407 97.579 268.952 95.3908 268.187C94.845 268.047 95.0773 267.235 95.5882 267.409Z" fill="white"/>
<path d="M129.008 101.716C124.363 97.4661 119.718 93.0884 116.861 87.3985C116.104 85.8603 115.516 84.2445 115.108 82.5795C115.077 82.4786 115.009 82.3931 114.918 82.3403C114.826 82.2875 114.718 82.2713 114.615 82.2948C114.512 82.3183 114.422 82.3799 114.363 82.4671C114.303 82.5544 114.279 82.6609 114.295 82.7652C115.77 88.9429 119.834 94.0057 124.258 98.3835C125.605 99.7073 126.999 100.996 128.392 102.274C128.775 102.645 129.402 102.076 129.008 101.716Z" fill="#2E5269"/>
<path d="M140.933 87.561C139.308 91.2227 137.69 94.8883 136.079 98.5577C135.859 99.057 136.66 99.3008 136.869 98.8131C138.495 95.1437 140.113 91.4782 141.723 87.8165C141.944 87.3172 141.142 87.0733 140.933 87.561Z" fill="#2E5269"/>
<path d="M188.043 188.551C177.174 193.188 167.235 199.758 158.711 207.943C156.334 210.219 154.079 212.619 151.953 215.131C151.419 215.747 152.441 216.49 152.963 215.874C160.516 206.999 169.617 199.567 179.822 193.939C182.655 192.391 185.566 190.974 188.554 189.689C188.689 189.611 188.789 189.487 188.837 189.339C188.884 189.191 188.875 189.031 188.812 188.89C188.748 188.748 188.635 188.635 188.493 188.573C188.351 188.51 188.191 188.503 188.043 188.551Z" fill="#2E5269"/>
<path d="M113.494 218.429C107.56 211.326 100.729 205.022 93.1729 199.676C90.9898 198.143 88.7487 196.68 86.4611 195.309C85.776 194.891 85.0212 195.913 85.7179 196.32C93.6039 201.048 100.844 206.778 107.258 213.366C109.078 215.255 110.831 217.19 112.519 219.172C113.041 219.846 114.017 219.044 113.494 218.429Z" fill="#2E5269"/>
<path d="M161.092 185.126C145.456 191.259 128.551 193.449 111.868 191.501C107.167 190.954 102.51 190.073 97.9338 188.865C97.1558 188.656 96.6914 189.829 97.4694 190.026C118.714 195.633 141.194 194.315 161.638 186.264C162.358 185.985 161.847 184.835 161.092 185.126Z" fill="#2E5269"/>
<path d="M123.178 213.796C121.224 206.207 120.923 198.287 122.296 190.572C122.435 189.782 121.193 189.643 121.053 190.432C119.655 198.251 119.956 206.278 121.936 213.97C122.133 214.771 123.376 214.585 123.178 213.796Z" fill="#F1FAEE"/>
<path d="M139.389 191.326C138.959 190.641 137.995 191.443 138.413 192.116C140.562 195.597 141.998 199.471 142.638 203.511C143.277 207.552 143.109 211.679 142.141 215.654C141.944 216.432 143.198 216.571 143.383 215.793C144.375 211.654 144.532 207.359 143.847 203.158C143.161 198.957 141.645 194.935 139.389 191.326Z" fill="#F1FAEE"/>
<path d="M142.06 35.806C139.519 34.707 136.645 34.661 134.071 35.6783C133.327 35.9802 133.838 37.1182 134.593 36.8395C135.707 36.4053 136.896 36.1951 138.092 36.221C139.287 36.2469 140.466 36.5084 141.56 36.9905C142.338 37.304 142.791 36.1312 142.06 35.806Z" fill="#1D3557"/>
<path d="M123.027 35.6899C121.702 35.2632 120.3 35.1243 118.916 35.2825C117.533 35.4407 116.199 35.8923 115.004 36.6072C114.855 36.678 114.74 36.8031 114.682 36.9567C114.623 37.1102 114.626 37.2803 114.69 37.4317C114.724 37.5076 114.772 37.576 114.833 37.6329C114.893 37.6898 114.965 37.7342 115.042 37.7633C115.12 37.7925 115.203 37.8059 115.286 37.8028C115.369 37.7997 115.451 37.7801 115.526 37.7452C116.57 37.1041 117.739 36.6937 118.955 36.5415C120.171 36.3893 121.405 36.4988 122.575 36.8627C123.341 37.1066 123.805 35.9338 123.027 35.6899Z" fill="#1D3557"/>
<path d="M106.515 143.287C112.797 144.541 120.345 145.807 126.627 143.287C113.424 139.955 104.135 128.041 96.0758 117.532L106.109 165.815C106.109 165.815 134.105 174.141 154.879 165.815L154.984 164.851C145.726 165.799 136.381 164.307 127.878 160.524C119.374 156.741 112.01 150.799 106.515 143.287Z" fill="#2E5269"/>
</svg>
