<svg width="243" height="328" viewBox="0 0 243 328" fill="none" xmlns="http://www.w3.org/2000/svg">
<path d="M100.847 142.399H0V169.382H131.699C130.771 161.937 127.122 155.084 121.439 150.115C115.757 145.145 108.433 142.401 100.847 142.399Z" fill="#50B2B5"/>
<path d="M0 169.382V265.774H131.931V173.136C131.927 171.881 131.849 170.628 131.699 169.382H0Z" fill="#459A9D"/>
<path d="M141.988 265.774H0V295.701H141.988V265.774Z" fill="#459A9D"/>
<path d="M99.6508 178.81C99.6039 169.557 100.105 160.309 101.152 151.113C101.81 145.82 99.5946 135.241 97.4517 130.368C95.3087 125.495 90.2845 121.369 84.9311 122.043C81.1348 122.519 77.9405 125.281 76.0463 128.575C74.1522 131.868 73.3576 135.646 72.6915 139.376C70.4526 152.127 69.4448 165.06 69.6817 178.001C79.2568 181.112 90.3647 182.072 99.6508 178.81Z" fill="#82BEBF"/>
<path d="M101.248 148.01C101.055 142.391 99.2334 134.431 97.4516 130.368C95.3087 125.471 90.2844 121.368 84.931 122.043C81.1347 122.519 77.9404 125.281 76.0463 128.574C74.1521 131.868 73.3575 135.646 72.6914 139.375C70.6119 151.204 69.6019 163.193 69.6736 175.199C81.3434 167.588 92.1063 158.748 101.248 148.01Z" fill="#A8DADC"/>
<path d="M98.15 213.451C99.5545 202.079 99.5465 188.595 99.6428 178.81C90.3567 182.072 79.2487 181.111 69.6737 178.016C69.9646 194.591 71.9273 211.095 75.5327 227.284C76.0945 229.807 78.093 231.49 80.4045 232.704C98.4469 242.18 102.693 245.513 121.979 250.473C123.424 248.338 127.252 246.799 128.697 244.664C114.635 231.268 114.635 231.268 98.15 213.451Z" fill="#FFC9B9"/>
<path d="M119.379 242.91C125.78 241.217 132.339 240.17 138.954 239.783C140.776 239.68 142.823 239.696 144.163 240.902C145.64 242.219 145.656 244.41 145.568 246.33C145.439 249.005 145.166 251.989 143.055 253.735C141.258 255.211 138.649 255.322 136.281 255.155C129.862 254.684 123.667 252.618 118.271 249.148L119.379 242.91Z" fill="#DE802C"/>
<path d="M142.293 239.918L150.487 241.108C151.346 243.148 152.366 245.14 153.224 247.18C152.831 248.91 152.494 251.044 152.101 252.774C151.277 252.23 150.668 251.421 150.375 250.485C150.083 249.548 150.126 248.541 150.496 247.632C149.861 246.838 149.34 245.529 148.706 244.719C146.539 244.418 144.171 243.719 142.004 243.418L142.293 239.918Z" fill="#DE802C"/>
<path d="M140.046 244.029L148.24 245.211C149.099 247.251 150.118 249.243 150.977 251.29C150.584 253.013 150.247 255.155 149.853 256.846C149.029 256.302 148.418 255.493 148.126 254.557C147.834 253.62 147.877 252.612 148.248 251.703C147.614 250.909 147.092 249.6 146.458 248.798C144.291 248.489 141.924 247.799 139.757 247.489L140.046 244.029Z" fill="#DE802C"/>
<path d="M137.309 246.1L145.503 247.283C146.362 249.322 147.381 251.322 148.24 253.362C147.847 255.092 147.518 257.227 147.117 258.957C146.292 258.41 145.683 257.601 145.39 256.663C145.098 255.725 145.141 254.716 145.511 253.806C144.877 253.013 144.356 251.703 143.722 250.902C141.555 250.592 139.195 249.902 137.02 249.592L137.309 246.1Z" fill="#DE802C"/>
<path d="M134.58 248.402L142.775 249.592C143.633 251.632 144.653 253.624 145.511 255.663C145.118 257.393 144.789 259.528 144.396 261.258C143.57 260.715 142.959 259.907 142.666 258.97C142.374 258.033 142.418 257.024 142.791 256.116C142.157 255.322 141.635 254.012 141.001 253.203C138.834 252.901 136.474 252.203 134.299 251.901L134.58 248.402Z" fill="#DE802C"/>
<path d="M89.0726 122.13C85.8622 119.996 39.3596 118.059 22.7297 123.17C18.1629 124.575 13.4837 129.074 12.7052 133.193C12.1032 136.328 12.4082 139.36 12.7052 142.367C14.198 157.795 15.2655 173.89 16.1082 190.127C16.5336 198.484 16.9108 206.888 17.1997 215.253C17.0312 219.348 17.6492 241.402 17.6733 245.283C17.1917 252.513 76.0062 264.504 94.5222 247.814C97.4036 244.354 95.1643 233.736 94.9316 229.76C94.3537 219.8 92.8528 209.8 93.3264 199.888C94.3296 178.739 94.0889 157.708 93.7999 136.542C93.7036 130.36 94.6266 125.813 89.0726 122.13Z" fill="#A8DADC"/>
<path d="M93.3344 199.888C94.3376 178.739 94.0969 157.708 93.8079 136.542C93.7277 130.36 94.6506 125.813 89.0966 122.13C85.8862 119.996 39.3836 118.059 22.7537 123.17C18.1869 124.575 13.5077 129.074 12.7292 133.193C12.1273 136.328 12.4322 139.36 12.7292 142.367C12.8255 143.296 12.9058 144.224 12.9941 145.153C23.8533 172.62 36.735 202.174 66.367 213.34C61.5514 214.134 56.7358 212.546 51.9202 212.546C64.2187 222.009 79.2501 227.344 94.8272 227.776C94.1369 218.475 92.8769 209.142 93.3344 199.888Z" fill="#A8DADC"/>
<path d="M66.3349 213.34C36.7029 202.174 23.7971 172.62 12.962 145.153C14.3104 159.732 15.3056 174.858 16.1002 190.127C16.5256 198.484 16.9028 206.888 17.1917 215.253C17.0232 219.348 17.6412 241.402 17.6652 245.283C17.1837 252.513 75.9982 264.504 94.5142 247.814C97.3956 244.354 95.1563 233.736 94.9236 229.76C94.8834 229.101 94.8433 228.434 94.7952 227.776C79.2181 227.344 64.1866 222.009 51.8881 212.546C56.7037 212.546 61.5193 214.134 66.3349 213.34Z" fill="#82BEBF"/>
<path d="M17.1917 215.253C16.8948 206.888 16.5256 198.484 16.1002 190.127C15.3859 176.342 14.495 162.668 13.3312 149.415C19.6075 172.183 16.7021 198.619 27.8583 222.681C30.1216 227.292 31.783 233.728 37.9871 236.474C34.0945 236.474 25.9481 233.728 27.2804 236.474C42.3051 261.179 76.3353 258.552 95.3971 245.275C95.389 246.194 95.0791 247.085 94.5142 247.814C75.9982 264.48 15.8594 259.536 17.6652 245.283C18.1468 241.426 17.0232 219.348 17.1917 215.253Z" fill="#82BEBF"/>
<path d="M121.345 295.701H152.47C155.729 282.733 156.796 254.862 151.154 251.354C144.476 247.219 86.1431 241.767 72.4989 245.592C68.6785 246.664 64.9384 248.156 60.9977 248.616C58.5256 248.894 56.0221 248.648 53.6538 247.894C52.3295 247.489 50.6441 246.656 49.3358 247.521C47.7306 248.576 47.0645 251.552 46.5669 253.251C45.882 255.573 45.507 257.974 45.4513 260.393C45.3826 263.035 45.7126 265.672 46.4304 268.218C47.6369 272.302 49.7879 276.052 52.7132 279.172C55.6385 282.292 59.2579 284.696 63.285 286.193C71.1425 289.05 79.8106 288.193 88.1657 287.297L121.072 283.765C121.072 283.765 120.896 289.892 121.345 295.701Z" fill="#0C1624"/>
<path d="M90.0036 295.701H121.136C124.347 282.733 125.462 254.862 119.812 251.354C113.143 247.219 54.8015 241.767 41.1573 245.592C37.3289 246.664 33.5969 248.156 29.6481 248.616C27.1787 248.894 24.6778 248.648 22.3123 247.894C20.988 247.489 19.2945 246.656 17.9863 247.521C16.3811 248.576 15.7229 251.552 15.2253 253.251C14.5413 255.574 14.1636 257.974 14.1017 260.393C14.0318 263.036 14.3646 265.674 15.0889 268.218C16.2948 272.302 18.4456 276.053 21.371 279.173C24.2963 282.292 27.916 284.696 31.9435 286.193C39.8009 289.05 48.4771 288.193 56.8241 287.297L89.7307 283.765C89.7307 283.765 89.5541 289.892 90.0036 295.701Z" fill="#1D3557"/>
<path d="M98.5754 268.599C93.0116 273.276 89.5082 279.911 88.8077 287.098C88.7596 287.606 89.5622 287.701 89.6103 287.193C90.1487 281.798 92.3065 276.685 95.8064 272.512C96.8011 271.328 97.8966 270.232 99.081 269.234C99.4743 268.885 98.9527 268.266 98.5754 268.599Z" fill="#0C1624"/>
<path d="M94.5303 263.29C90.2859 268.322 87.7404 274.54 87.2507 281.075C87.2507 281.583 88.0052 281.678 88.0533 281.17C88.5351 274.772 91.0301 268.683 95.1885 263.758C95.5095 263.338 94.8594 262.877 94.5303 263.29Z" fill="#0C1624"/>
<path d="M76.2229 86.7274C77.3706 81.1722 78.7832 75.3788 73.9917 71.0695C72.1832 69.5193 70.047 68.3886 67.7394 67.7602C57.5063 64.7365 46.3421 69.1728 42.4897 79.331C41.3293 82.5878 40.943 86.065 41.3605 89.4932C41.7781 92.9214 42.9883 96.2086 44.8975 99.0998C46.912 102.179 49.6248 104.758 52.3054 107.298C59.9944 100.735 67.7234 94.2191 75.3641 87.5925C75.6772 87.3147 76.1346 87.1084 76.2229 86.7274Z" fill="#2A4E80"/>
<path d="M76.2791 87.902C77.3706 82.6959 78.6869 77.1962 74.1843 73.1329C72.479 71.6695 70.463 70.6036 68.2852 70.014C58.654 67.157 48.1078 71.3394 44.4721 80.9262C43.3761 83.9959 43.0087 87.2736 43.3984 90.5061C43.788 93.7386 44.9243 96.8391 46.7193 99.5681C48.7402 102.403 51.086 104.997 53.71 107.298C60.9334 101.108 68.2531 94.9651 75.4524 88.7194C75.7574 88.4575 76.2069 88.2671 76.2791 87.902Z" fill="#1D3557"/>
<path d="M49.087 97.8936C48.4681 105.877 47.2908 113.808 45.5636 121.63C45.3523 122.531 45.4165 123.474 45.748 124.339C46.0795 125.203 46.6634 125.951 47.4256 126.487C49.1551 127.69 51.1169 128.527 53.1883 128.946C55.2597 129.366 57.3963 129.358 59.4646 128.924C60.4541 128.722 61.353 128.214 62.0311 127.474C62.7093 126.733 63.1316 125.798 63.2368 124.805C63.7666 119.726 64.2561 114.536 64.7939 109.504L49.087 97.8936Z" fill="#FFC9B9"/>
<path opacity="0.2" d="M49.087 97.8936C48.7339 102.504 48.1801 107.107 47.4818 111.679C49.5044 115.805 52.9154 118.893 57.3217 121.202C59.2871 122.05 61.3526 122.65 63.4696 122.988C63.9271 118.488 64.3685 113.932 64.8421 109.496L49.087 97.8936Z" fill="#FFAB90"/>
<path d="M68.5742 113.655C54.617 115.305 49.5846 107.115 49.3118 99.9569C47.9788 100.079 46.6455 99.7261 45.5522 98.9622C44.4589 98.1984 43.6774 97.0736 43.3484 95.7905C43.1746 95.0924 43.1565 94.3654 43.2951 93.6596C43.4336 92.9539 43.7257 92.2864 44.151 91.7034C44.5878 91.1313 45.1751 90.6889 45.8488 90.4244C46.5225 90.1599 47.2567 90.0835 47.9714 90.2035C48.6819 90.351 49.3224 90.7283 49.7918 91.2758C50.2613 91.8234 50.5329 92.51 50.5638 93.2271L53.6458 88.8067C53.8464 85.918 53.7582 82.4578 53.9588 79.5929C60.5319 76.623 67.8633 75.7012 74.9789 76.9502C75.7437 79.2439 76.3181 81.5955 76.6965 83.9816C76.8731 97.1238 79.8347 112.329 68.5742 113.655Z" fill="#FFC9B9"/>
<path d="M49.9137 95.0445C49.6729 93.8144 49.3439 92.4097 48.2122 91.6796C47.7608 91.3544 47.2005 91.2127 46.6466 91.2835C46.0928 91.3544 45.5874 91.6325 45.2345 92.0605C45.1872 92.1485 45.1759 92.251 45.2027 92.3469C45.2296 92.4429 45.2927 92.525 45.379 92.5764C45.4692 92.6205 45.573 92.6295 45.6696 92.6016C45.7662 92.5737 45.8487 92.5108 45.9007 92.4256C46.3582 91.7907 47.4096 91.997 47.9393 92.4256C48.7419 93.0843 48.9907 94.2985 49.1833 95.2746C49.2121 95.3704 49.2781 95.451 49.3669 95.4986C49.4557 95.5462 49.56 95.557 49.6569 95.5286C49.7537 95.5002 49.8352 95.4349 49.8833 95.3471C49.9315 95.2593 49.9424 95.1561 49.9137 95.0604V95.0445Z" fill="#6B3E15"/>
<path d="M67.6512 107.028L65.6447 106.83C65.5449 106.813 65.4426 106.835 65.3589 106.891C65.2752 106.947 65.2166 107.033 65.1953 107.131C65.1762 107.229 65.1966 107.33 65.2521 107.413C65.3076 107.496 65.3938 107.555 65.4922 107.576L67.4987 107.766C67.5974 107.783 67.6987 107.762 67.7822 107.707C67.8658 107.653 67.9251 107.569 67.9482 107.472C67.9587 107.424 67.9593 107.374 67.95 107.325C67.9407 107.276 67.9217 107.23 67.8941 107.188C67.8664 107.147 67.8307 107.112 67.789 107.084C67.7473 107.056 67.7005 107.037 67.6512 107.028Z" fill="#6B3E15"/>
<path d="M72.86 96.5682C72.7027 96.0903 72.4842 95.6342 72.2099 95.2111L71.311 93.6239C70.693 92.5208 70.075 91.4256 69.465 90.3225C69.2162 89.886 68.4939 90.2034 68.7427 90.6478L70.3479 93.5207C70.8696 94.4572 71.4555 95.3778 71.9531 96.346C72.9082 98.3379 70.0509 99.0839 69.0878 100.314C69.0261 100.398 69.0007 100.503 69.0172 100.606C69.0338 100.709 69.091 100.801 69.1761 100.862C69.2612 100.923 69.3674 100.948 69.4713 100.931C69.5751 100.915 69.6682 100.858 69.7299 100.774C70.3319 99.9807 71.3351 99.6315 72.0173 98.9649C72.372 98.6846 72.6394 98.3109 72.7885 97.8868C72.9376 97.4627 72.9624 97.0056 72.86 96.5682Z" fill="#6B3E15"/>
<path d="M62.8356 88.902C61.3668 88.902 61.0939 91.1638 62.5707 91.1638C64.0475 91.1638 64.3124 88.902 62.8356 88.902Z" fill="#1D3557"/>
<path d="M73.5583 88.4654C72.0896 88.4654 71.8167 90.7272 73.2935 90.7272C74.7703 90.7272 75.0351 88.4654 73.5583 88.4654Z" fill="#1D3557"/>
<path d="M65.7972 83.5054C63.6927 83.0649 61.5102 83.1522 59.4486 83.7594C59.3404 83.8011 59.2518 83.8813 59.2003 83.9842C59.1489 84.0871 59.1381 84.2054 59.1703 84.3157C59.2025 84.4261 59.2752 84.5206 59.3742 84.5806C59.4732 84.6406 59.5913 84.6619 59.7054 84.6403C61.6112 84.0833 63.6268 84.0015 65.5724 84.4022C66.1583 84.5292 66.3831 83.6324 65.7972 83.5054Z" fill="#1D3557"/>
<path d="M76.0945 83.5054C73.99 83.0649 71.8075 83.1522 69.7459 83.7594C69.6377 83.8011 69.5492 83.8813 69.4977 83.9842C69.4462 84.0871 69.4355 84.2054 69.4677 84.3157C69.4998 84.4261 69.5726 84.5206 69.6716 84.5806C69.7706 84.6406 69.8887 84.6619 70.0028 84.6403C71.9086 84.0833 73.9242 84.0015 75.8698 84.4022C76.4797 84.5292 76.6804 83.6324 76.0945 83.5054Z" fill="#1D3557"/>
<path d="M70.3158 103.322C67.4991 103.9 64.5824 103.794 61.8163 103.012C61.0939 102.806 60.6445 103.512 61.3588 103.719C64.4416 104.578 67.6902 104.679 70.8215 104.012C71.5759 103.854 71.0622 103.163 70.3158 103.322Z" fill="#1D3557"/>
<path d="M66.9047 127.535C65.3516 129.136 63.4531 130.37 61.3505 131.145C59.248 131.92 56.9956 132.216 54.7614 132.011C52.617 131.822 50.543 131.159 48.6925 130.071C46.8421 128.983 45.2626 127.498 44.0708 125.725C43.7176 125.178 42.7063 125.583 43.0595 126.138C45.0489 129.171 48.0737 131.396 51.5831 132.408C55.2434 133.463 59.1617 133.219 62.659 131.717C64.6054 130.885 66.3548 129.661 67.7956 128.122C68.2531 127.63 67.3622 127.043 66.9047 127.535Z" fill="#82BEBF"/>
<path d="M36.6949 182.572C36.6409 173.318 37.1394 164.07 38.1877 154.875C38.8459 149.573 36.6307 139.002 34.4878 134.122C32.3448 129.241 27.3286 125.13 21.9672 125.797C18.1709 126.273 14.9766 129.043 13.0824 132.328C11.1883 135.614 10.3937 139.407 9.72756 143.137C7.49251 155.887 6.48475 168.817 6.71781 181.754C16.2848 184.865 27.4008 185.826 36.6949 182.572Z" fill="#A8DADC"/>
<path d="M35.194 217.205C36.5985 205.84 36.5905 192.357 36.6948 182.572C27.4007 185.825 16.2927 184.865 6.71771 181.778C7.00808 198.355 8.97079 214.862 12.5767 231.053C12.8466 232.295 13.4373 233.446 14.2911 234.395C15.1449 235.343 16.2327 236.057 17.4485 236.466C37.1028 242.951 57.6344 246.467 78.3498 246.894C79.7865 244.759 80.3643 242.624 81.801 240.489C63.8548 232.672 53.1401 224.998 35.194 217.205Z" fill="#FFC9B9"/>
<path d="M37.8025 158.113C37.2674 166.16 36.7511 174.207 36.2534 182.254C36.2534 182.762 37.056 182.857 37.056 182.35C37.5911 174.302 38.1074 166.252 38.6051 158.2C38.6291 157.692 37.8346 157.605 37.8025 158.113Z" fill="#82BEBF"/>
<path d="M36.3497 181.977C29.4173 184.071 22.0812 184.509 14.9444 183.254C12.9223 182.897 10.9272 182.404 8.97302 181.778C8.45936 181.611 8.17042 182.389 8.66803 182.572C17.766 185.5 27.5587 185.564 36.6948 182.754C37.2005 182.58 36.8554 181.826 36.3497 181.977Z" fill="#82BEBF"/>
<path d="M72.4668 238.728C78.8677 237.031 85.4267 235.983 92.0422 235.601C93.8722 235.498 95.9188 235.513 97.2591 236.712C98.7359 238.037 98.752 240.227 98.6637 242.148C98.5353 244.822 98.2624 247.806 96.1435 249.544C94.3537 251.029 91.7453 251.132 89.3696 250.973C82.9536 250.498 76.7622 248.432 71.3672 244.965L72.4668 238.728Z" fill="#FFC9B9"/>
<path d="M95.4131 235.736L103.6 236.918C104.466 238.958 105.478 240.95 106.345 242.997C105.943 244.719 105.614 246.862 105.221 248.552C104.395 248.01 103.784 247.201 103.491 246.264C103.199 245.327 103.243 244.319 103.616 243.41C102.982 242.616 102.46 241.307 101.826 240.505C99.6508 240.196 97.2911 239.505 95.1161 239.196L95.4131 235.736Z" fill="#FFC9B9"/>
<path d="M93.1498 239.839L101.36 241.069C102.227 243.108 103.238 245.1 104.105 247.14C103.704 248.87 103.375 251.005 102.982 252.695C102.156 252.152 101.545 251.344 101.252 250.407C100.959 249.47 101.003 248.461 101.376 247.552C100.742 246.759 100.221 245.449 99.5866 244.64C97.4116 244.338 95.052 243.64 92.8849 243.338L93.1498 239.839Z" fill="#FFC9B9"/>
<path d="M90.4129 241.91L98.6075 243.1C99.4662 245.14 100.486 247.132 101.344 249.171C100.951 250.901 100.614 253.036 100.221 254.766C99.3957 254.223 98.7856 253.414 98.4932 252.477C98.2008 251.541 98.244 250.533 98.6155 249.624C97.9814 248.83 97.4597 247.521 96.8257 246.711C94.6586 246.41 92.291 245.711 90.124 245.41L90.4129 241.91Z" fill="#FFC9B9"/>
<path d="M87.7162 244.243L95.9107 245.426C96.7695 247.465 97.7888 249.465 98.6476 251.505C98.2543 253.235 97.9172 255.37 97.5239 257.1C96.6995 256.553 96.0901 255.744 95.7978 254.806C95.5056 253.868 95.5482 252.859 95.9187 251.949C95.2847 251.155 94.763 249.846 94.1289 249.044C91.9619 248.735 89.5943 248.045 87.4272 247.743L87.7162 244.243Z" fill="#FFC9B9"/>
<path d="M9.55895 227.974H23.6687C28.8093 227.974 33.7394 229.993 37.3744 233.588C41.0093 237.182 43.0514 242.057 43.0514 247.14V295.701H5.98737V231.506C5.98737 230.569 6.36368 229.671 7.03348 229.008C7.70328 228.346 8.61171 227.974 9.55895 227.974Z" fill="#50B2B5"/>
<path d="M157.037 49.5149C152.783 48.3245 148.906 45.7532 146.763 42.1661C145.672 40.4003 145.081 38.3766 145.053 36.3072C145.024 34.2378 145.56 32.199 146.603 30.4048C147.79 28.5847 149.497 27.1538 151.507 26.2935C153.518 25.4331 155.741 25.1819 157.896 25.5717C155.44 21.5084 156.965 14.5881 159.396 10.4931C161.828 6.39807 166.17 3.46965 170.946 1.94591C174.784 0.755083 178.84 0.413632 182.826 0.945769C186.812 1.4779 190.631 2.8706 194.013 5.02512C197.599 2.10034 202.023 0.3605 206.661 0.0501778C211.3 -0.260144 215.92 0.87465 219.872 3.29505C228.059 8.23924 231.911 18.4848 228.902 27.1034C233.541 26.4129 238.597 28.6906 240.884 32.4523C243.172 36.214 243.348 40.8408 242.417 45.0866C241.486 49.3324 239.544 53.3163 237.746 57.3161C232.703 68.5385 228.75 80.2095 225.94 92.1715C217.248 93.8381 211.18 97.7268 203.467 101.79C195.754 105.853 186.613 97.0284 182.238 89.8383C177.864 82.6482 176.299 74.2756 172.872 66.649C169.445 59.0224 165.617 51.9037 157.037 49.5149Z" fill="#1D3557"/>
<path d="M153.128 38.3171C154.22 35.8252 155.993 33.7062 158.746 32.9761C160.632 32.4682 162.599 32.5872 164.533 32.4364C164.373 29.1271 164.276 25.7463 165.135 22.5322C166.214 18.7574 168.652 15.5031 171.989 13.3818C175.474 10.982 179.638 9.73721 183.884 9.82648C185.667 9.96133 187.408 10.4328 189.012 11.2153C190.264 11.7629 191.597 12.5406 193.025 12.3263C195.931 11.8899 198.491 10.0407 200.979 8.61225C203.828 6.96948 206.862 5.54098 210.217 5.37432C213.606 5.22 216.962 6.08019 219.848 7.84245C222.113 9.32736 223.824 11.5041 224.72 14.0405C226.438 18.6673 225.876 23.8813 225.178 28.7303C228.657 29.0061 231.991 30.2313 234.809 32.2698C238.354 34.9917 241.12 38.5804 242.835 42.6819C243.344 39.1478 242.668 35.5459 240.909 32.4285C238.621 28.6509 233.565 26.3891 228.926 27.0796C231.976 18.5006 228.083 8.25513 219.896 3.31094C215.944 0.890541 211.324 -0.24426 206.685 0.066062C202.047 0.376384 197.623 2.11622 194.037 5.041C190.655 2.88648 186.836 1.49379 182.85 0.961653C178.864 0.429516 174.808 0.770968 170.97 1.9618C166.154 3.48553 161.86 6.43776 159.42 10.509C156.981 14.5802 155.464 21.5084 157.92 25.5876C155.765 25.1978 153.542 25.449 151.531 26.3094C149.521 27.1697 147.814 28.6005 146.627 30.4207C145.584 32.2149 145.048 34.2537 145.077 36.3231C145.105 38.3925 145.696 40.4162 146.788 42.182C148.699 45.1858 151.543 47.4968 154.894 48.7689C152.574 45.7929 151.459 42.1582 153.128 38.3171Z" fill="#2A4E80"/>
<path d="M166.435 43.1898C163.401 40.9439 160.632 37.8091 160.199 34.2061C158.271 43.8403 158.355 53.7627 160.448 63.3634C161.17 66.6648 158.602 68.9187 156.892 71.8709C155.183 74.8231 153.61 78.2198 154.549 81.4577C155.237 83.4935 156.622 85.2279 158.465 86.3622C160.296 87.4767 162.251 88.3769 164.292 89.0446C166.162 92.4333 166.604 96.3061 167.358 100.1C168.113 103.893 169.766 107.925 173.338 109.559C175.677 110.508 178.292 110.556 180.665 109.694L180.898 109.615C172.069 88.5208 165.825 65.7442 166.435 43.1898Z" fill="#FFB59E"/>
<path d="M195.835 70.4424C196.533 67.7679 196.188 64.6649 194.229 62.665C192.271 60.6651 187.504 59.189 185.722 61.3159C183.707 55.8638 181.821 51.2926 179.807 45.8484C177.794 46.4359 175.676 46.5875 173.599 46.2931C171.522 45.9987 169.533 45.265 167.768 44.1422C167.326 43.8565 166.885 43.5549 166.443 43.2295C165.833 65.7839 172.061 88.5605 180.89 109.655C183.154 108.788 185.309 107.664 187.311 106.306C195.859 100.949 195.337 86.5448 190.441 77.7754C193.11 76.0911 195.036 73.4718 195.835 70.4424Z" fill="#E09680"/>
<path d="M185.802 96.2824C189.406 102.353 194.631 123.265 194.631 123.265C202.271 122.519 228.404 120.186 236.045 119.44C232.834 109.496 230.306 102.068 227.12 92.1159C218.275 92.1477 192.977 92.4016 185.802 96.2824Z" fill="#E09680"/>
<path d="M99.1532 181.215L101.168 208.158C101.481 212.34 107.059 214.657 111.12 215.84C113.958 216.691 116.969 216.814 119.868 216.197L101.834 165.295C100.333 170.596 98.76 175.897 99.1532 181.215Z" fill="#FFB59E"/>
<path d="M115.005 183.135C113.327 172.302 110.775 161.771 104.234 152.922C104.121 157.049 103.014 161.16 101.826 165.263L119.86 216.165C121.14 215.877 122.366 215.396 123.496 214.737C118.103 205.197 116.666 194.008 115.005 183.135Z" fill="#FF8A65"/>
<path d="M203.162 234.315H128.761L92.0663 129.193H166.467L203.162 234.315Z" fill="white"/>
<path d="M104.338 195.285L119.82 162.319C121.939 163.842 123.512 165.93 123.536 168.072C123.434 170.257 122.942 172.406 122.083 174.421C120.43 179.077 118.774 183.73 117.115 188.381C120.687 193.381 122.549 198.634 121.851 204.205C121.627 206.863 120.524 209.373 118.713 211.348C117.537 212.504 116.132 213.407 114.587 214.001C113.041 214.595 111.388 214.867 109.731 214.8C104.402 214.562 103.15 209.118 102.877 205.34C102.604 201.563 102.653 198.864 104.338 195.285Z" fill="#FFB59E"/>
<path d="M149.452 144.74L145.046 157.359C146.226 159.565 147.141 162.041 148.321 164.247C148.623 164.907 149.041 165.509 149.557 166.025C149.816 166.28 150.138 166.464 150.492 166.557C150.845 166.651 151.218 166.65 151.571 166.557C151.995 166.362 152.345 166.038 152.569 165.632C152.793 165.227 152.879 164.761 152.815 164.303C152.681 163.391 152.379 162.512 151.924 161.708C151.458 160.901 151.24 159.977 151.298 159.049C152.061 154.137 156.579 150.526 159.324 146.351C160.392 144.764 161.499 142.748 160.769 140.947C159.966 138.931 157.141 138.368 155.151 139.225C153.16 140.082 150.167 142.661 149.452 144.74Z" fill="#E09680"/>
<path d="M154.541 143.407L150.134 156.025C151.314 158.232 152.229 160.7 153.409 162.906C153.709 163.565 154.125 164.167 154.637 164.684C154.898 164.939 155.222 165.122 155.576 165.217C155.931 165.311 156.304 165.314 156.66 165.223C157.084 165.029 157.433 164.705 157.657 164.299C157.881 163.893 157.968 163.427 157.904 162.969C157.753 162.055 157.435 161.176 156.965 160.374C156.499 159.57 156.284 158.648 156.347 157.724C157.149 152.811 161.628 149.192 164.373 145.026C165.44 143.391 166.548 141.423 165.817 139.621C165.015 137.606 162.189 137.042 160.199 137.899C158.209 138.756 155.255 141.359 154.541 143.407Z" fill="#E09680"/>
<path d="M161.363 144.955L156.965 157.573C158.136 159.779 159.059 162.247 160.231 164.461C160.533 165.122 160.952 165.724 161.467 166.239C161.728 166.493 162.05 166.675 162.403 166.768C162.757 166.861 163.128 166.862 163.482 166.771C163.907 166.578 164.259 166.255 164.483 165.849C164.707 165.442 164.792 164.975 164.726 164.517C164.578 163.606 164.262 162.729 163.795 161.93C163.326 161.124 163.11 160.199 163.177 159.271C163.979 154.359 168.45 150.748 171.203 146.573C172.262 144.947 173.37 142.97 172.639 141.169C171.837 139.153 169.02 138.59 167.021 139.447C165.023 140.304 162.085 142.907 161.363 144.955Z" fill="#E09680"/>
<path d="M176.002 138.637L161.555 134.011C160.292 133.472 158.901 133.299 157.542 133.511C156.162 133.852 155.135 134.955 154.172 136.003L141.097 150.407C140.222 151.367 139.291 152.573 139.636 153.811C140.182 155.732 142.983 155.652 144.861 154.946C149.87 153.038 154.188 149.694 157.262 145.343C161.957 149.827 168.658 152.486 174.967 154.137C176.572 154.573 178.619 154.811 179.782 153.605C180.649 152.732 180.762 151.375 180.705 150.145C180.609 146.081 178.595 141.796 176.002 138.637Z" fill="#FFB59E"/>
<path d="M164.573 120.876L138.657 160.462L131.249 171.771C130.447 173.056 132.349 174.469 133.192 173.175L159.148 133.59C161.62 129.823 164.089 126.053 166.556 122.281C167.358 121.003 165.416 119.591 164.573 120.876Z" fill="#1D3557"/>
<path d="M165.617 168.374C157.454 163.311 135.021 163.041 138.489 159.327C138.489 159.327 138.489 159.327 138.489 159.279C139.866 157.797 141.582 156.664 143.494 155.973C145.406 155.283 147.457 155.056 149.476 155.311C156.468 156.242 163.232 158.42 169.437 161.739C170.4 162.255 171.179 162.533 172.102 163.112C170.207 164.7 167.487 166.771 165.617 168.374Z" fill="#FFB59E"/>
<path d="M131.249 171.771L128.705 178L133.192 173.175L131.249 171.771Z" fill="#1D3557"/>
<path d="M148.104 309.375C129.313 277.319 113.642 243.571 101.304 208.586C111.024 207.88 121.08 211.848 127.22 219.324C144.821 240.751 161.981 261.568 179.59 283.003C165.384 286.622 153.249 295.828 148.104 309.375Z" fill="#FFB59E"/>
<path d="M204.334 116.123C197.295 113.861 189.301 116.083 183.466 120.622C177.632 125.162 173.763 131.733 171.074 138.55C164.798 154.486 164.493 172.009 164.268 189.111C164.148 189.262 164.035 189.413 163.915 189.547C162.985 190.622 162.505 192.007 162.572 193.42C162.639 194.832 163.249 196.167 164.276 197.15L164.389 197.253C162.727 215.506 160.833 233.188 159.18 251.401C149.886 240.799 141.37 229.291 132.076 218.689C121.281 217.848 110.125 223.863 105.526 233.553C121.722 263.068 136.442 294.312 152.647 323.826C155.472 328.977 162.671 327.398 168.594 327.318C181.097 327.124 193.237 323.134 203.371 315.89C207.272 263.71 211.742 209.181 215.643 157.009C216.221 149.343 216.782 141.558 215.153 134.05C213.524 126.543 211.726 118.503 204.334 116.123Z" fill="#457B9D"/>
<path d="M134.957 228.601C131.104 228.608 127.315 229.571 123.936 231.401C120.556 233.231 117.695 235.87 115.615 239.077C115.069 239.934 116.361 240.878 116.915 240.013C118.823 237.029 121.458 234.566 124.577 232.848C127.697 231.13 131.202 230.213 134.773 230.18C135.8 230.18 135.993 228.601 134.957 228.601Z" fill="#37627D"/>
<path d="M157.39 252.259C152.821 256.622 149.341 261.977 147.226 267.9C145.112 273.823 144.42 280.151 145.206 286.384C145.223 286.488 145.26 286.588 145.315 286.678C145.371 286.768 145.443 286.847 145.53 286.909C145.616 286.971 145.713 287.016 145.817 287.041C145.921 287.066 146.028 287.071 146.134 287.054C146.239 287.038 146.34 287.002 146.431 286.947C146.522 286.892 146.602 286.82 146.665 286.735C146.728 286.65 146.773 286.553 146.798 286.451C146.823 286.348 146.828 286.242 146.812 286.138C146.056 280.175 146.711 274.12 148.725 268.451C150.739 262.781 154.057 257.651 158.417 253.465C159.148 252.79 158.136 251.552 157.39 252.259Z" fill="#37627D"/>
<path d="M159.284 255.465C155.099 262.005 153.23 269.735 153.971 277.44C154.067 278.456 155.656 278.233 155.576 277.194C154.888 269.904 156.657 262.594 160.608 256.401C161.13 255.544 159.838 254.6 159.284 255.465Z" fill="#37627D"/>
<path d="M184.357 197.96C181.45 199.156 178.293 199.639 175.156 199.37C172.019 199.101 168.994 198.086 166.339 196.412C165.472 195.857 164.517 197.134 165.392 197.69C168.279 199.524 171.572 200.639 174.99 200.937C178.408 201.236 181.848 200.71 185.015 199.404C185.971 199.007 185.312 197.563 184.357 197.96Z" fill="#37627D"/>
</svg>
