<svg width="275" height="303" viewBox="0 0 275 303" fill="none" xmlns="http://www.w3.org/2000/svg">
<path d="M228.122 74.9722C217.801 62.9724 204.015 52.9368 188.239 51.4547C172.462 49.9726 155.141 59.2938 151.427 74.6686C154.257 70.9187 159.364 69.4008 164.025 69.9544C168.685 70.5079 172.953 72.8472 176.748 75.615C188.355 84.0434 196.31 96.5522 202.131 109.632C207.953 122.712 211.846 136.543 216.881 149.935C219.113 155.864 221.667 161.864 226.078 166.408C231.542 172.024 241.435 175.337 247.863 169.319C252.399 165.06 254.327 159.81 254.336 153.757C254.336 144.962 254.265 136.302 252.747 127.596C251.156 118.467 248.436 109.572 244.649 101.115C240.429 91.6496 234.862 82.8444 228.122 74.9722Z" fill="#50B2B5"/>
<path d="M189.605 80.6418C206.98 104.097 216.542 129.373 228.444 156.846C232.961 166.158 240.39 169.212 248.381 168.819C248.211 168.989 248.042 169.167 247.863 169.328C241.435 175.363 231.542 172.006 226.078 166.417C221.667 161.873 219.113 155.873 216.881 149.944C211.846 136.552 207.953 122.713 202.131 109.641C196.31 96.5701 188.31 84.0524 176.748 75.624C172.953 72.8562 168.712 70.5169 164.025 69.9634C159.337 69.4098 154.257 70.9276 151.427 74.6776C151.792 73.1775 152.291 71.7133 152.918 70.3026C164.909 61.9903 181.453 68.7223 189.605 80.6418Z" fill="#459A9D"/>
<path d="M185.498 66.017C193.533 65.8652 201.176 68.9098 207.56 73.6062C214.765 78.8918 220.131 86.231 224.319 94.0523C228.979 102.758 232.515 112.088 235.854 121.373C239.354 131.129 242.414 141.034 245.033 151.087C247.631 161.078 249.783 171.194 251.479 181.372C251.693 182.64 251.899 183.899 252.095 185.167C252.176 185.738 251.292 185.801 251.202 185.238C249.631 175.119 247.61 165.078 245.14 155.114C242.693 145.257 239.813 135.519 236.497 125.9C233.391 116.538 229.736 107.368 225.551 98.4361C221.64 90.347 216.721 82.5168 209.872 76.5883C203.917 71.4366 196.48 67.6598 188.596 66.9991C187.589 66.9129 186.579 66.8801 185.569 66.9009C184.989 66.9099 184.926 66.026 185.498 66.017Z" fill="#1D3557"/>
<path d="M192.462 73.3472C197.578 72.495 202.823 72.8714 207.765 74.4454L200.051 61.9456C199.748 61.4635 200.489 60.9546 200.783 61.4367L209.149 74.9543C209.204 75.0356 209.23 75.1324 209.224 75.23C209.218 75.3276 209.18 75.4206 209.116 75.4946C209.053 75.5686 208.966 75.6197 208.87 75.6398C208.775 75.6599 208.675 75.6481 208.587 75.6061C203.438 73.7717 197.904 73.289 192.516 74.2043C191.962 74.3383 191.899 73.4454 192.462 73.3472Z" fill="#1D3557"/>
<path d="M213.283 97.9183C219.415 101.99 225.054 106.76 230.087 112.132C231.194 113.311 232.265 114.534 233.31 115.775C232.981 108.755 231.845 101.795 229.926 95.0344C229.331 92.9987 228.679 90.9839 227.97 88.9899C227.934 88.8795 227.942 88.7593 227.993 88.6548C228.044 88.5503 228.133 88.4697 228.243 88.4302C228.352 88.3906 228.472 88.3953 228.578 88.4431C228.684 88.491 228.767 88.5782 228.81 88.6863C231.36 95.7546 233.045 103.106 233.828 110.579C234.054 112.722 234.2 114.87 234.265 117.025C234.272 117.123 234.247 117.22 234.193 117.302C234.139 117.384 234.06 117.446 233.968 117.478C233.876 117.511 233.775 117.512 233.682 117.482C233.589 117.451 233.508 117.391 233.453 117.311C228.818 111.681 223.548 106.606 217.747 102.186C216.105 100.936 214.417 99.7308 212.694 98.6147C212.23 98.2754 212.81 97.5969 213.283 97.9183Z" fill="#1D3557"/>
<path d="M227.863 134.346C233.431 138.309 238.319 143.148 242.336 148.676C243.229 149.918 244.068 151.194 244.872 152.489C245.902 144.198 246.201 135.833 245.765 127.489C245.757 127.371 245.796 127.254 245.874 127.164C245.951 127.075 246.062 127.02 246.18 127.012C246.298 127.003 246.415 127.042 246.505 127.12C246.594 127.198 246.649 127.308 246.658 127.427C247.14 136.258 246.8 145.114 245.64 153.882C245.62 153.965 245.576 154.041 245.514 154.101C245.453 154.161 245.376 154.202 245.292 154.22C245.208 154.237 245.12 154.231 245.04 154.201C244.959 154.171 244.889 154.119 244.836 154.051C241.38 148.203 236.988 142.961 231.836 138.534C230.39 137.293 228.881 136.123 227.328 135.016C226.81 134.686 227.408 134.016 227.863 134.346Z" fill="#1D3557"/>
<path d="M192.926 137.65C179.757 135.177 162.382 138.668 154.061 151.578C154.239 140.685 162.587 131.043 172.909 126.873C176.036 126.597 179.187 126.811 182.248 127.507C184.033 127.918 184.748 125.186 182.971 124.775L182.453 124.668C190.739 123.945 199.132 125.918 206.89 129.382C209.505 131.737 211.754 134.469 213.56 137.489C213.752 137.804 214.06 138.031 214.418 138.121C214.776 138.211 215.155 138.158 215.473 137.972C215.792 137.786 216.026 137.483 216.123 137.128C216.221 136.772 216.176 136.392 215.997 136.069C215.379 135.015 214.702 133.995 213.971 133.016C214.721 133.453 215.462 133.909 216.194 134.364C221.246 137.547 225.966 141.229 230.283 145.355C232.881 149.989 234.747 155.176 236.461 160.024C237.078 161.73 239.81 161.006 239.194 159.301C238.301 156.792 237.408 154.212 236.345 151.676C241.413 157.491 245.749 163.904 249.256 170.774C252.658 177.435 254.89 184.417 257.077 191.533C257.881 193.859 258.177 196.331 257.944 198.782C257.712 201.232 256.956 203.604 255.729 205.738L255.622 205.908C240.256 178.087 224.792 145.551 192.926 137.65Z" fill="#459A9D"/>
<path d="M192.926 137.65C224.792 145.551 240.247 178.087 255.622 205.908C251.872 212.22 243.122 211.97 237.381 208.818C233.095 206.479 229.765 202.783 226.72 198.935C230.087 199.585 233.398 200.498 236.622 201.667C238.345 202.283 239.042 199.542 237.345 198.935C233.104 197.392 228.71 196.309 224.238 195.702C220.997 191.435 217.881 187.06 214.712 182.738C216.863 183.22 218.979 183.81 221.042 184.462C222.783 185.015 223.488 182.274 221.756 181.729C218.639 180.724 215.456 179.936 212.23 179.372C209.551 175.801 206.783 172.23 203.837 168.89C199.792 164.189 195.271 159.919 190.346 156.149C193.421 155.858 196.515 155.825 199.596 156.051C201.381 156.185 201.381 153.373 199.596 153.23C195.397 152.947 191.18 153.142 187.025 153.81C183.228 151.271 179.124 149.224 174.81 147.721L174.15 147.507L175.668 146.998C176.03 146.901 176.339 146.664 176.526 146.339C176.714 146.014 176.765 145.628 176.667 145.266C176.57 144.903 176.333 144.595 176.009 144.407C175.684 144.219 175.298 144.169 174.935 144.266C173.069 144.882 171.176 145.543 169.337 146.319C167.269 145.97 165.156 145.97 163.087 146.319C159.177 147.034 155.427 149.542 154.078 153.275C154.078 152.703 154.078 152.141 154.078 151.578C162.382 138.668 179.757 135.177 192.926 137.65Z" fill="#50B2B5"/>
<path d="M179.489 137.757C185.917 135.641 192.882 136.186 199.23 138.391C206.372 140.864 212.542 145.462 217.881 150.739C223.828 156.614 229.024 163.239 234.033 169.953C239.307 176.971 244.256 184.218 248.881 191.694C253.506 199.17 257.768 206.798 261.666 214.577C262.149 215.55 262.631 216.515 263.104 217.497C263.318 217.925 262.613 218.202 262.399 217.765C258.595 209.967 254.452 202.351 249.97 194.917C245.488 187.482 240.726 180.34 235.685 173.489C230.837 166.694 225.593 160.192 219.979 154.016C214.792 148.444 208.864 143.302 201.837 140.257C195.73 137.578 188.819 136.373 182.194 137.819C181.355 138.002 180.527 138.228 179.712 138.498C179.301 138.614 179.025 137.909 179.489 137.757Z" fill="#1D3557"/>
<path d="M186.944 141.953C190.869 139.974 195.209 138.958 199.605 138.989L190.257 130.837C189.891 130.516 190.355 129.945 190.721 130.239L200.864 139.078C200.925 139.132 200.967 139.204 200.985 139.284C201.002 139.363 200.994 139.446 200.961 139.521C200.928 139.595 200.873 139.658 200.802 139.698C200.732 139.739 200.65 139.757 200.569 139.748C195.947 139.561 191.354 140.563 187.23 142.659C186.792 142.873 186.516 142.168 186.944 141.953Z" fill="#1D3557"/>
<path d="M209.926 156.623C215.904 158.381 221.657 160.829 227.069 163.917C228.265 164.596 229.435 165.319 230.587 166.06C228.567 160.464 225.909 155.12 222.667 150.132C221.694 148.632 220.658 147.167 219.578 145.73C219.548 145.69 219.527 145.645 219.515 145.597C219.504 145.549 219.501 145.499 219.509 145.45C219.516 145.401 219.533 145.354 219.559 145.312C219.585 145.269 219.618 145.232 219.658 145.203C219.698 145.174 219.743 145.153 219.791 145.141C219.839 145.129 219.889 145.127 219.938 145.134C219.987 145.142 220.034 145.159 220.076 145.184C220.119 145.21 220.156 145.244 220.185 145.284C224.013 150.36 227.212 155.883 229.712 161.73C230.426 163.408 231.081 165.108 231.676 166.828C231.703 166.905 231.705 166.989 231.681 167.068C231.657 167.146 231.609 167.215 231.543 167.264C231.477 167.313 231.397 167.34 231.315 167.34C231.233 167.34 231.153 167.314 231.086 167.265C225.931 163.869 220.4 161.08 214.605 158.953C212.962 158.358 211.301 157.81 209.622 157.31C209.158 157.176 209.462 156.48 209.926 156.623Z" fill="#1D3557"/>
<path d="M230.819 182.444C236.31 184.253 241.47 186.947 246.095 190.417C247.131 191.194 248.122 192.024 249.104 192.872C247.855 185.913 245.997 179.077 243.551 172.444C243.514 172.35 243.516 172.246 243.556 172.154C243.596 172.062 243.671 171.99 243.765 171.953C243.858 171.916 243.963 171.918 244.055 171.958C244.147 171.998 244.219 172.074 244.256 172.167C246.846 179.191 248.783 186.439 250.042 193.819C250.048 193.893 250.033 193.967 249.998 194.033C249.963 194.099 249.91 194.154 249.844 194.19C249.779 194.225 249.705 194.242 249.63 194.236C249.556 194.23 249.485 194.203 249.426 194.158C245.172 190.292 240.313 187.149 235.042 184.854C233.56 184.212 232.051 183.637 230.515 183.131C230.087 182.979 230.354 182.292 230.819 182.444Z" fill="#1D3557"/>
<path d="M233.747 47.0262C222.328 40.0085 204.864 37.0621 192.48 46.1334C196.533 36.0264 207.774 29.9819 218.899 29.7944C221.922 30.654 224.793 31.9794 227.408 33.7229C228.917 34.7407 230.569 32.4461 229.06 31.4283L228.613 31.1426C236.649 33.4283 243.738 38.2853 249.756 44.2763C251.359 47.4089 252.482 50.7648 253.086 54.2315C253.169 54.582 253.382 54.888 253.681 55.0875C253.981 55.2871 254.345 55.3653 254.701 55.3063C255.056 55.2472 255.375 55.0554 255.595 54.7697C255.814 54.4839 255.916 54.1256 255.881 53.7672C255.675 52.5708 255.399 51.3744 255.077 50.1958C255.622 50.8744 256.149 51.553 256.667 52.2494C260.246 57.0332 263.339 62.1628 265.899 67.5616C266.675 72.8205 266.532 78.2758 266.434 83.4721C266.434 85.2578 269.211 85.5881 269.247 83.7667C269.3 81.0882 269.354 78.4097 269.3 75.6329C271.963 82.8747 273.726 90.4162 274.55 98.0879C275.345 105.516 274.943 112.838 274.443 120.266C274.36 122.725 273.752 125.138 272.66 127.343C271.568 129.548 270.018 131.495 268.113 133.052L267.952 133.177C263.533 101.677 260.702 65.7759 233.747 47.0262Z" fill="#459A9D"/>
<path d="M233.747 47.0262C260.702 65.7759 263.533 101.686 267.952 133.168C262.202 137.721 254.14 134.373 249.872 129.373C246.702 125.659 244.917 121.007 243.443 116.329C246.355 118.142 249.123 120.178 251.72 122.418C253.104 123.605 254.738 121.302 253.363 120.123C249.953 117.167 246.236 114.587 242.274 112.427C240.774 107.284 239.426 102.088 238.015 96.9183C239.845 98.1325 241.586 99.445 243.301 100.784C244.729 101.918 246.372 99.6147 244.952 98.4897C242.404 96.4405 239.719 94.5671 236.917 92.8826C235.685 88.5702 234.363 84.2935 232.819 80.0971C230.722 74.2641 228.03 68.6631 224.783 63.3831C227.76 64.2036 230.66 65.279 233.453 66.5973C235.104 67.3652 236.131 64.7224 234.47 63.9188C230.646 62.1583 226.636 60.8345 222.515 59.9724C219.868 56.2474 216.764 52.8698 213.274 49.919L212.739 49.4905L214.337 49.5619C214.708 49.5925 215.077 49.4786 215.366 49.2441C215.655 49.0096 215.843 48.6725 215.89 48.303C215.925 47.9308 215.813 47.5597 215.578 47.2692C215.343 46.9788 215.003 46.7922 214.631 46.7494C212.667 46.6512 210.658 46.5887 208.667 46.6691C206.866 45.602 204.898 44.8473 202.846 44.437C198.935 43.7138 194.542 44.7137 191.944 47.7226C192.114 47.178 192.31 46.6423 192.524 46.1155C204.864 37.0532 222.328 39.9995 233.747 47.0262Z" fill="#50B2B5"/>
<path d="M221.158 42.321C227.926 42.6335 234.238 45.6334 239.372 49.9548C245.167 54.8208 249.292 61.3117 252.39 68.142C255.845 75.7579 258.318 83.8382 260.622 91.8648C263.044 100.305 265.08 108.841 266.729 117.472C268.378 126.102 269.634 134.763 270.497 143.453C270.604 144.534 270.711 145.614 270.8 146.694C270.8 147.176 270.086 147.176 270.05 146.694C269.282 138.064 268.131 129.471 266.595 120.918C265.059 112.365 263.166 103.981 260.917 95.7666C258.813 87.687 256.234 79.7388 253.193 71.9634C250.336 64.9099 246.613 58.035 241.158 52.6422C236.408 47.9637 230.381 44.3656 223.721 43.3656C222.874 43.2377 222.022 43.1542 221.167 43.1156C220.676 43.0531 220.667 42.2942 221.158 42.321Z" fill="#1D3557"/>
<path d="M226.631 48.9011C231.004 48.4659 235.417 49.078 239.506 50.6868C237.56 47.0559 235.61 43.4012 233.658 39.7227C233.426 39.2941 234.078 38.9013 234.301 39.3299L240.613 51.2047C240.652 51.2764 240.667 51.3588 240.656 51.4397C240.645 51.5207 240.609 51.596 240.552 51.6548C240.495 51.7135 240.421 51.7526 240.341 51.7664C240.26 51.7802 240.177 51.768 240.104 51.7314C235.859 49.8974 231.214 49.1812 226.613 49.6511C226.158 49.7047 226.149 48.9458 226.631 48.9011Z" fill="#1D3557"/>
<path d="M242.854 70.8027C247.805 74.5815 252.299 78.9231 256.247 83.7399C257.14 84.8024 257.952 85.8917 258.765 86.9899C258.878 81.0448 258.303 75.1065 257.05 69.2938C256.675 67.5081 256.238 65.8027 255.738 64.0796C255.711 63.9837 255.723 63.8809 255.771 63.7938C255.82 63.7067 255.901 63.6425 255.997 63.6153C256.093 63.588 256.196 63.6 256.283 63.6486C256.37 63.6971 256.434 63.7783 256.461 63.8742C258.229 69.9776 259.246 76.2741 259.488 82.6239C259.559 84.4096 259.559 86.2756 259.488 88.097C259.485 88.1786 259.456 88.2571 259.406 88.3213C259.355 88.3854 259.286 88.4318 259.207 88.4537C259.129 88.4756 259.045 88.4719 258.969 88.443C258.892 88.4142 258.827 88.3618 258.783 88.2935C255.192 83.3015 251.037 78.7416 246.399 74.7044C245.077 73.5496 243.72 72.4425 242.327 71.383C241.943 71.0437 242.479 70.508 242.854 70.8027Z" fill="#1D3557"/>
<path d="M253.158 102.382C257.638 106.042 261.498 110.401 264.586 115.293C265.274 116.391 265.908 117.516 266.515 118.659C267.836 111.714 268.541 104.666 268.622 97.5969C268.622 97.4974 268.661 97.402 268.732 97.3317C268.802 97.2614 268.897 97.2218 268.997 97.2218C269.096 97.2218 269.192 97.2614 269.262 97.3317C269.332 97.402 269.372 97.4974 269.372 97.5969C269.294 105.093 268.517 112.566 267.05 119.918C267.029 119.987 266.988 120.05 266.933 120.097C266.877 120.144 266.81 120.175 266.738 120.185C266.666 120.195 266.592 120.185 266.526 120.155C266.459 120.125 266.403 120.077 266.363 120.016C263.763 114.891 260.347 110.222 256.247 106.195C255.086 105.07 253.881 103.99 252.622 102.972C252.247 102.606 252.783 102.07 253.158 102.382Z" fill="#1D3557"/>
<path opacity="0.29" d="M51.3654 184.819C52.9815 193.274 62.2314 197.917 70.6955 199.551C79.1597 201.185 88.3114 201.336 95.4095 206.238C100.767 209.89 104.097 215.693 108.633 220.274C117.757 229.506 131.266 233.3 144.239 233.282C157.212 233.264 169.918 229.836 182.435 226.425C189.917 224.39 198.855 220.747 199.649 213.033C200.31 206.64 194.391 201.185 188.167 199.595C181.944 198.006 175.4 199.131 168.98 199.372C162.561 199.613 155.507 198.676 151.123 194.015C145.954 188.587 146.105 180.096 142.98 173.292C135.98 158.025 116.945 155.658 102.293 158.033C95.9006 159.069 89.5435 159.587 83.115 160.257C76.914 161.019 70.8532 162.66 65.1152 165.132C57.3743 168.283 49.6154 175.676 51.3654 184.819Z" fill="#457B9D"/>
<path d="M181.873 198.604C181.643 198.438 181.426 198.256 181.221 198.06L179.846 187.622L168.185 190.828L170.319 197.747C173.775 198.622 178.355 199.818 181.873 198.604Z" fill="#FFC9B9"/>
<path d="M174.043 214.363C181.453 217.339 188.992 219.952 196.658 222.202C197.753 222.591 198.907 222.784 200.069 222.773C200.725 222.804 201.372 222.62 201.915 222.249C202.457 221.879 202.864 221.343 203.074 220.721C203.285 220.099 203.288 219.426 203.082 218.803C202.877 218.179 202.474 217.639 201.935 217.265C200.847 216.375 199.585 215.724 198.23 215.354C197.861 215.276 197.504 215.15 197.167 214.979L196.024 214.577L193.703 213.765L189.141 212.202L179.989 208.988L175.391 207.372C174.007 206.89 172.614 206.309 171.194 205.943C170.773 205.778 170.32 205.707 169.867 205.736C169.415 205.765 168.975 205.894 168.578 206.113C167.685 206.783 167.685 208.176 167.873 209.14C168.364 211.729 170.971 213.113 173.176 214.05L174.043 214.363Z" fill="#1D3557"/>
<path d="M181.873 198.604C178.382 199.818 173.837 198.604 170.319 197.711L170.418 198.024C169.688 200.088 169.126 202.208 168.739 204.363C168.465 205.909 168.748 207.502 169.537 208.859C170.327 210.216 171.572 211.248 173.051 211.774L199.042 221.131C199.567 221.316 200.133 221.355 200.679 221.242C201.224 221.129 201.728 220.869 202.136 220.49C202.545 220.111 202.842 219.628 202.995 219.092C203.148 218.557 203.152 217.99 203.007 217.452C202.105 214.149 183.051 199.542 181.873 198.604Z" fill="#457B9D"/>
<path d="M187.855 202.684C186.659 202.67 185.478 202.949 184.415 203.497C183.352 204.045 182.439 204.845 181.757 205.827C181.4 206.363 182.212 206.961 182.569 206.425C183.142 205.581 183.912 204.89 184.813 204.413C185.715 203.935 186.719 203.685 187.739 203.684C187.871 203.7 188.005 203.662 188.109 203.579C188.214 203.496 188.281 203.375 188.297 203.242C188.312 203.11 188.274 202.977 188.191 202.872C188.109 202.767 187.988 202.7 187.855 202.684Z" fill="#1D3557"/>
<path d="M190.623 204.658C189.427 204.645 188.247 204.925 187.185 205.475C186.124 206.024 185.213 206.826 184.533 207.809C184.167 208.336 184.98 208.934 185.346 208.399C185.918 207.556 186.687 206.866 187.586 206.388C188.486 205.91 189.488 205.66 190.507 205.658C190.572 205.665 190.639 205.66 190.702 205.642C190.766 205.624 190.825 205.593 190.877 205.552C190.929 205.511 190.972 205.46 191.004 205.403C191.037 205.345 191.057 205.281 191.065 205.216C191.072 205.15 191.067 205.084 191.049 205.02C191.031 204.956 191 204.897 190.959 204.845C190.918 204.793 190.867 204.75 190.81 204.718C190.752 204.686 190.688 204.665 190.623 204.658Z" fill="#1D3557"/>
<path d="M193.391 206.64C192.195 206.623 191.014 206.9 189.952 207.449C188.89 207.997 187.98 208.798 187.301 209.783C186.935 210.318 187.748 210.908 188.114 210.372C188.687 209.531 189.456 208.842 190.355 208.366C191.255 207.89 192.257 207.641 193.274 207.64C193.407 207.65 193.539 207.61 193.644 207.527C193.748 207.444 193.817 207.325 193.837 207.193C193.844 207.128 193.839 207.061 193.82 206.998C193.802 206.934 193.771 206.875 193.729 206.823C193.688 206.772 193.636 206.729 193.578 206.698C193.52 206.666 193.456 206.646 193.391 206.64Z" fill="#1D3557"/>
<path d="M159.596 205.381C159.367 205.214 159.149 205.032 158.945 204.836L157.57 194.399L145.909 197.604L148.043 204.524C151.516 205.399 156.105 206.595 159.596 205.381Z" fill="#FFC9B9"/>
<path d="M151.793 221.131C159.203 224.107 166.742 226.72 174.409 228.97C175.503 229.358 176.658 229.552 177.819 229.541C178.475 229.571 179.123 229.387 179.665 229.017C180.207 228.647 180.614 228.11 180.824 227.489C181.035 226.867 181.038 226.194 180.832 225.57C180.627 224.947 180.224 224.407 179.685 224.032C178.598 223.143 177.335 222.492 175.98 222.122C175.61 222.048 175.252 221.922 174.918 221.747L173.775 221.345L171.453 220.532L166.9 218.934L157.766 215.774L153.168 214.158C151.784 213.675 150.391 213.095 148.971 212.729C148.55 212.563 148.097 212.492 147.644 212.522C147.192 212.551 146.752 212.68 146.355 212.899C145.463 213.568 145.463 214.961 145.65 215.925C146.141 218.515 148.748 219.899 150.962 220.836L151.793 221.131Z" fill="#1D3557"/>
<path d="M159.596 205.381C156.105 206.595 151.561 205.381 148.043 204.488L148.141 204.8C147.411 206.865 146.85 208.985 146.463 211.14C146.19 212.685 146.474 214.277 147.263 215.634C148.052 216.99 149.297 218.024 150.775 218.55L176.793 227.898C177.318 228.087 177.885 228.128 178.432 228.016C178.979 227.905 179.485 227.645 179.894 227.265C180.303 226.885 180.6 226.401 180.752 225.863C180.904 225.326 180.906 224.758 180.757 224.22C179.855 220.925 160.802 206.318 159.596 205.381Z" fill="#457B9D"/>
<path d="M165.605 209.461C164.411 209.447 163.231 209.726 162.169 210.274C161.107 210.822 160.196 211.622 159.516 212.604C159.15 213.14 159.962 213.738 160.328 213.202C160.9 212.359 161.669 211.669 162.569 211.191C163.468 210.714 164.471 210.463 165.489 210.461C165.62 210.474 165.751 210.435 165.854 210.354C165.957 210.272 166.025 210.154 166.043 210.024C166.056 209.892 166.017 209.76 165.936 209.655C165.855 209.551 165.736 209.481 165.605 209.461Z" fill="#1D3557"/>
<path d="M168.373 211.434C167.178 211.421 165.997 211.702 164.936 212.251C163.874 212.801 162.963 213.602 162.284 214.586C161.918 215.113 162.73 215.711 163.096 215.175C163.668 214.332 164.437 213.642 165.336 213.165C166.236 212.687 167.238 212.436 168.257 212.434C168.389 212.45 168.523 212.412 168.627 212.329C168.732 212.246 168.8 212.125 168.815 211.992C168.83 211.86 168.792 211.726 168.71 211.622C168.627 211.517 168.506 211.45 168.373 211.434Z" fill="#1D3557"/>
<path d="M171.159 213.416C169.963 213.399 168.783 213.677 167.72 214.225C166.658 214.773 165.748 215.575 165.069 216.559C164.703 217.095 165.516 217.684 165.882 217.149C166.455 216.307 167.224 215.619 168.124 215.143C169.023 214.667 170.025 214.417 171.043 214.416C171.175 214.427 171.307 214.387 171.412 214.304C171.516 214.221 171.585 214.102 171.605 213.97C171.612 213.904 171.607 213.838 171.588 213.774C171.57 213.711 171.539 213.651 171.497 213.6C171.456 213.549 171.405 213.506 171.346 213.474C171.288 213.443 171.224 213.423 171.159 213.416Z" fill="#1D3557"/>
<path d="M181.605 100.597C182.597 101.403 183.406 102.41 183.98 103.552C184.26 104.125 184.381 104.763 184.33 105.399C184.28 106.035 184.06 106.646 183.694 107.168C182.435 108.748 179.998 108.454 178.034 108.016L171.302 106.498C168.989 105.981 166.569 105.409 164.775 103.82C164.018 103.145 163.409 102.32 162.987 101.398C162.564 100.476 162.337 99.4769 162.319 98.4629C162.298 97.4096 162.513 96.3649 162.951 95.4065C163.388 94.4482 164.036 93.6007 164.846 92.9272C166.185 91.8915 167.775 92.5612 169.194 93.0879C173.496 94.6534 177.479 96.9823 180.953 99.9628L181.605 100.597Z" fill="#FFAB90"/>
<path d="M122.374 61.9903L149.659 78.0614C152.614 79.8025 155.605 81.5703 157.775 83.9006C159.944 86.231 161.221 89.2577 160.373 92.2576C159.346 95.954 154.587 99.3379 149.811 99.195C146.311 99.0879 143.561 97.3022 141.096 95.6237C135.855 92.0523 130.579 88.4006 126.365 84.0167C122.15 79.6328 119.025 74.5258 118.579 68.8384L122.374 61.9903Z" fill="#94C0C2"/>
<path d="M143.48 5.76797C140.776 2.89893 137.166 1.04828 133.257 0.526991C131.312 0.290317 129.339 0.544643 127.517 1.26674C125.695 1.98885 124.084 3.15573 122.829 4.66086C120.4 7.80366 119.945 12.2768 117.052 15.0089C115.141 16.7946 112.481 17.5357 109.909 17.9821C107.338 18.4285 104.659 18.6874 102.276 19.7678C99.8916 20.8481 97.8113 22.9909 97.6059 25.6069C97.4184 28.5265 99.6595 31.5086 98.4988 34.205C97.6059 36.4014 94.8738 37.1961 93.2935 38.9817C92.664 39.7474 92.2072 40.64 91.9545 41.5985C91.7018 42.5569 91.6591 43.5587 91.8292 44.5352C92.1925 46.4904 93.057 48.3177 94.3381 49.8387C95.9901 51.91 98.1 53.57 100.502 54.6882C102.904 55.8064 105.532 56.3524 108.181 56.2832C110.829 56.2139 113.426 55.5314 115.766 54.2893C118.106 53.0472 120.127 51.2792 121.668 49.1244C124.507 45.1424 125.516 40.196 127.579 35.7318C130.55 29.3779 135.616 24.2394 141.927 21.1784C144.454 19.9642 147.632 18.8838 149.212 16.3928C149.802 15.5 149.445 14.7678 148.998 13.8661C148.32 12.4827 147.56 11.141 146.721 9.84827C145.779 8.38391 144.694 7.01705 143.48 5.76797Z" fill="#2A4E80"/>
<path d="M142.757 8.15183C140.254 5.48533 136.909 3.76355 133.284 3.2769C131.482 3.05837 129.654 3.29438 127.967 3.96341C126.279 4.63245 124.786 5.71321 123.623 7.10719C121.374 10.0268 120.945 14.1696 118.266 16.6963C116.481 18.3659 114.025 19.0445 111.633 19.4641C109.24 19.8838 106.775 20.1159 104.561 21.107C102.347 22.098 100.383 24.098 100.231 26.5265C100.061 29.2051 102.142 31.9907 101.079 34.4907C100.186 36.5264 97.722 37.2764 96.2577 38.9549C95.6749 39.6657 95.2527 40.494 95.0199 41.3832C94.7872 42.2725 94.7496 43.2015 94.9095 44.1066C95.238 45.9192 96.0387 47.613 97.2309 49.0172C98.762 50.9375 100.718 52.4763 102.944 53.5127C105.171 54.549 107.608 55.0546 110.063 54.9897C112.518 54.9248 114.924 54.2912 117.093 53.1386C119.262 51.9861 121.134 50.3461 122.561 48.3476C125.24 44.6602 126.132 40.0531 128.043 35.946C130.797 30.0578 135.49 25.2949 141.338 22.4552C143.686 21.3302 146.632 20.3302 148.096 17.9909C148.641 17.0981 148.311 16.491 147.9 15.6517C147.266 14.3731 146.563 13.1302 145.793 11.9286C144.909 10.572 143.892 9.30686 142.757 8.15183Z" fill="#1D3557"/>
<path d="M91.7399 52.5528C64.2135 59.8742 57.7671 96.3736 55.8207 110.239C53.8743 124.105 56.1689 139.06 64.6867 150.167C73.2044 161.274 88.7935 167.453 101.883 162.614C106.552 160.899 110.865 157.739 113.124 153.274C115.802 147.989 115.186 141.757 115.079 135.846C114.906 126.318 116.154 116.818 118.784 107.659C121.4 98.5521 135.552 83.8916 129.623 69.4008C124.972 58.1331 108.722 48.044 91.7399 52.5528Z" fill="#A8DADC"/>
<path d="M128.186 88.7845C111.9 93.3558 94.6952 86.0613 81.4008 77.1775C83.4186 95.2933 93.481 120.454 73.3651 132.534C76.083 132.695 78.8072 132.353 81.4008 131.525C76.5347 141.266 65.9009 142.346 58.1332 137.775C59.6346 142.23 61.8478 146.412 64.6867 150.159C73.2044 161.274 88.7935 167.444 101.883 162.605C106.552 160.899 110.865 157.739 113.124 153.275C115.802 147.989 115.186 141.757 115.079 135.846C114.906 126.319 116.154 116.818 118.784 107.659C120.186 102.731 125.025 96.1326 128.186 88.7845Z" fill="#94C0C2"/>
<path d="M161.239 42.5085C161.543 41.937 160.632 41.4995 160.346 42.071C157.598 47.3722 154.236 52.3318 150.329 56.8475C147.079 60.6064 142.989 65.0527 137.57 64.8831C136.212 64.8878 134.886 64.4772 133.769 63.7063C132.652 62.9355 131.797 61.8413 131.32 60.5707C131.266 60.4584 131.172 60.37 131.057 60.3222C130.942 60.2743 130.813 60.2704 130.695 60.3112C130.577 60.3519 130.479 60.4345 130.418 60.5432C130.357 60.6519 130.338 60.7792 130.364 60.901C130.78 62.059 131.476 63.0957 132.391 63.9185C133.306 64.7412 134.41 65.3242 135.605 65.6152C138.06 66.1682 140.631 65.8263 142.855 64.651C145.361 63.2871 147.592 61.4708 149.436 59.2939C151.64 56.9097 153.686 54.3835 155.561 51.7315C157.668 48.7944 159.565 45.7124 161.239 42.5085Z" fill="#1D3557"/>
<path d="M163.828 34.4639C163.936 27.3211 160.819 20.2856 154.418 16.1695C150.882 13.9602 146.729 12.9471 142.572 13.2799C138.416 13.6127 134.477 15.2738 131.338 18.0177C124.597 23.9016 120.079 34.6871 122.811 43.5084C125.65 52.7136 135.722 57.9903 144.971 56.0975C151.07 54.8386 157.811 51.2136 160.864 45.6691C162.756 42.2334 163.774 38.3854 163.828 34.4639Z" fill="#2A4E80"/>
<path d="M161.971 35.9193C162.086 32.5651 161.34 29.2374 159.804 26.2537C158.267 23.2699 155.992 20.7295 153.195 18.8749C149.898 16.8158 146.027 15.8708 142.153 16.1795C138.278 16.4882 134.606 18.0341 131.677 20.5892C125.427 26.0802 121.186 36.1247 123.731 44.3567C126.409 52.928 135.775 57.8565 144.391 56.0797C150.07 54.919 156.364 51.5351 159.203 46.3656C160.966 43.1619 161.916 39.5752 161.971 35.9193Z" fill="#1D3557"/>
<path d="M126.918 38.205C121.537 44.4263 115.735 50.2704 109.552 55.6958C108.964 56.179 108.48 56.7777 108.132 57.4548C107.783 58.132 107.577 58.8733 107.525 59.6332C107.525 63.3028 109.097 66.4099 111.784 68.0527C113.141 68.892 115.4 68.1331 116.909 66.3742C120.374 62.3385 123.802 58.6421 127.623 54.7672C129.23 49.3208 128.982 43.4951 126.918 38.205Z" fill="#FFC9B9"/>
<path d="M127.668 54.7493C129.256 49.3035 128.992 43.4847 126.918 38.205C125.507 39.8389 124.052 41.4549 122.579 43.0352C119.9 49.9012 118.168 57.7671 119.365 63.5706C122.052 60.5975 124.731 57.7404 127.668 54.7493Z" fill="#FFAB90"/>
<path d="M154.052 51.1422C144.23 59.6778 129.704 63.767 127.668 61.0706C120.9 52.1422 126.525 40.7317 126.606 40.6067C125.724 40.2271 124.942 39.6497 124.32 38.9192C123.768 37.8613 123.631 36.6354 123.936 35.4818C124.4 33.6961 125.49 31.2765 127.507 30.9193C129.989 30.4908 132.731 33.1157 131.704 35.7228C139.061 35.5889 142.418 33.33 146.561 30.955C152.936 33.7496 156.203 37.2049 159.105 43.7048C159.632 44.7941 154.953 50.3565 154.052 51.1422Z" fill="#FFC9B9"/>
<path d="M149.596 40.7764C148.298 38.8341 146.487 37.289 144.364 36.3122C143.766 36.0354 143.409 36.9997 144.007 37.2765C145.958 38.1912 147.618 39.6282 148.802 41.4282C148.889 41.5327 149.013 41.5987 149.149 41.6121C149.284 41.6254 149.419 41.585 149.525 41.4996C149.626 41.4101 149.689 41.286 149.702 41.152C149.715 41.018 149.678 40.8839 149.596 40.7764Z" fill="#1D3557"/>
<path d="M154.311 50.1065C154.517 49.373 154.544 48.6005 154.388 47.8545C154.233 47.1085 153.9 46.4109 153.418 45.8209C153.331 45.7164 153.206 45.6504 153.071 45.637C152.935 45.6237 152.8 45.664 152.695 45.7495C152.59 45.8381 152.523 45.9642 152.51 46.101C152.497 46.2378 152.537 46.3744 152.623 46.4816C152.725 46.6041 152.821 46.7323 152.909 46.8655V46.928C152.906 46.9458 152.906 46.9638 152.909 46.9816L153.016 47.1869C153.088 47.3317 153.15 47.4808 153.203 47.6334C153.203 47.6334 153.203 47.7137 153.248 47.7494V47.803V47.8923V48.0173C153.284 48.1674 153.31 48.3194 153.328 48.4726C153.333 48.5499 153.333 48.6275 153.328 48.7048V48.7494C153.337 48.7906 153.337 48.8332 153.328 48.8744C153.337 49.0261 153.337 49.1781 153.328 49.3298C153.333 49.413 153.333 49.4965 153.328 49.5798C153.333 49.6064 153.333 49.6335 153.328 49.6601V49.7494C153.286 49.8788 153.294 50.0192 153.35 50.1432C153.406 50.2671 153.507 50.3655 153.632 50.419C153.697 50.4445 153.766 50.4566 153.836 50.4546C153.906 50.4526 153.975 50.4366 154.038 50.4074C154.101 50.3782 154.158 50.3365 154.205 50.2848C154.252 50.2331 154.288 50.1725 154.311 50.1065Z" fill="#1D3557"/>
<path d="M132.981 57.3743L130.981 54.6422C130.937 54.5892 130.884 54.5453 130.824 54.5129C130.764 54.4806 130.697 54.4606 130.629 54.4539C130.561 54.4473 130.493 54.4542 130.427 54.4743C130.362 54.4943 130.301 54.5271 130.248 54.5708C130.146 54.6591 130.081 54.7835 130.068 54.9181C130.055 55.0527 130.094 55.1873 130.177 55.294L132.213 58.035C132.256 58.0871 132.309 58.1301 132.369 58.1615C132.428 58.1929 132.494 58.2121 132.561 58.2179C132.628 58.2237 132.696 58.2161 132.761 58.1954C132.825 58.1747 132.885 58.1414 132.936 58.0975C133.034 58.0056 133.094 57.8793 133.102 57.7448C133.111 57.6103 133.067 57.4777 132.981 57.3743Z" fill="#FFAB90"/>
<path d="M145.016 50.8298C145.248 50.2048 144.302 49.7762 144.07 50.4101C143.705 51.7316 142.952 52.9134 141.909 53.8029C141.464 54.1702 140.905 54.3711 140.329 54.3711C139.752 54.3711 139.193 54.1702 138.748 53.8029C138.257 53.3476 137.605 54.1512 138.097 54.6065C138.669 55.0818 139.378 55.3608 140.121 55.4026C140.863 55.4444 141.6 55.2467 142.221 54.8386C143.586 53.8629 144.573 52.4473 145.016 50.8298Z" fill="#FFAB90"/>
<path d="M142.918 45.8209C142.938 45.6861 142.905 45.5485 142.825 45.4382C142.745 45.3279 142.624 45.2536 142.489 45.2317C141.943 45.2014 141.43 44.9578 141.061 44.5531C140.879 44.3524 140.741 44.1149 140.659 43.8567C140.577 43.6156 140.54 43.3612 140.552 43.1067C140.57 42.9698 140.535 42.8312 140.453 42.7197C140.372 42.6083 140.25 42.5326 140.114 42.5085C139.979 42.4905 139.841 42.5261 139.731 42.6077C139.621 42.6894 139.547 42.8108 139.525 42.946C139.49 43.348 139.534 43.753 139.656 44.1376C139.778 44.5223 139.975 44.8789 140.236 45.1869C140.497 45.4949 140.816 45.7482 141.175 45.9321C141.534 46.1161 141.926 46.227 142.329 46.2584C142.464 46.2742 142.6 46.2378 142.71 46.1565C142.819 46.0752 142.894 45.9552 142.918 45.8209Z" fill="#1D3557"/>
<path d="M148.739 54.2225C148.721 54.0874 148.652 53.9646 148.545 53.8797C148.439 53.7948 148.303 53.7544 148.168 53.7672C148.239 53.7672 148.168 53.7672 148.168 53.7672H148.052H147.971L147.784 53.6957H147.686C147.635 53.6682 147.587 53.6353 147.543 53.5975L147.462 53.5261L147.418 53.4814L147.364 53.41L147.302 53.3118C147.25 53.213 147.211 53.108 147.186 52.9993C147.186 52.9993 147.186 52.9279 147.186 52.8922C147.181 52.8298 147.181 52.7671 147.186 52.7047C147.186 52.7047 147.186 52.6332 147.186 52.5975C147.181 52.5381 147.181 52.4784 147.186 52.419C147.191 52.3864 147.191 52.3533 147.186 52.3207C147.215 52.2565 147.248 52.1939 147.284 52.1333C147.314 52.0708 147.331 52.0029 147.334 51.9338C147.337 51.8646 147.326 51.7955 147.302 51.7305C147.279 51.6655 147.242 51.6061 147.194 51.5556C147.147 51.5051 147.09 51.4646 147.027 51.4365C146.963 51.4084 146.895 51.3933 146.826 51.3921C146.757 51.3909 146.688 51.4036 146.624 51.4294C146.559 51.4553 146.501 51.4937 146.452 51.5426C146.403 51.5914 146.364 51.6495 146.337 51.7136C146.149 52.0615 146.055 52.4527 146.064 52.8483C146.074 53.2438 146.186 53.6301 146.391 53.9686C146.596 54.3071 146.886 54.5861 147.232 54.7779C147.578 54.9696 147.969 55.0675 148.364 55.0618C148.458 55.0533 148.547 55.0202 148.623 54.9657C148.699 54.9113 148.76 54.8375 148.798 54.752C148.836 54.6665 148.851 54.5724 148.84 54.4793C148.83 54.3863 148.795 54.2976 148.739 54.2225Z" fill="#1D3557"/>
<path d="M135.793 56.2583C134.946 54.7813 133.711 53.5646 132.222 52.7405C132.113 52.7269 132.002 52.7496 131.908 52.805C131.813 52.8604 131.739 52.9454 131.697 53.047C131.656 53.1485 131.649 53.261 131.677 53.3669C131.706 53.4729 131.768 53.5665 131.856 53.6333C131.793 53.6333 131.936 53.678 131.927 53.678L132.043 53.7494C132.129 53.7947 132.213 53.8454 132.293 53.9012C132.445 53.9994 132.597 54.0976 132.739 54.2047L133.204 54.5708L133.4 54.7494L133.561 54.9012C133.827 55.1659 134.078 55.4461 134.311 55.7404L134.65 56.1958C134.747 56.3368 134.837 56.4828 134.918 56.6333C134.978 56.7515 135.08 56.8429 135.204 56.8892C135.328 56.9356 135.465 56.9334 135.588 56.8833C135.692 56.8216 135.77 56.7242 135.808 56.6093C135.845 56.4944 135.84 56.3697 135.793 56.2583Z" fill="#1D3557"/>
<path d="M128.365 32.5086C128.311 32.4699 128.251 32.4421 128.187 32.4268C128.123 32.4115 128.056 32.4089 127.991 32.4193C127.926 32.4296 127.863 32.4527 127.807 32.4872C127.751 32.5217 127.702 32.5669 127.664 32.6202C127.625 32.6736 127.597 32.734 127.582 32.7981C127.566 32.8622 127.564 32.9287 127.574 32.9938C127.585 33.0589 127.608 33.1213 127.642 33.1774C127.677 33.2336 127.722 33.2824 127.775 33.3211C128.041 33.5087 128.251 33.7654 128.381 34.0634C128.512 34.3614 128.558 34.6894 128.516 35.0121C128.474 35.3347 128.344 35.6396 128.141 35.8939C127.938 36.1482 127.67 36.3422 127.365 36.455C127.304 36.481 127.249 36.519 127.204 36.5667C127.158 36.6143 127.123 36.6706 127.099 36.7323C127.076 36.7939 127.065 36.8597 127.068 36.9255C127.071 36.9914 127.086 37.0561 127.115 37.1157C127.169 37.2364 127.269 37.331 127.392 37.3793C127.516 37.4277 127.653 37.426 127.775 37.3746C128.24 37.1884 128.647 36.8805 128.952 36.4831C129.258 36.0858 129.451 35.6136 129.511 35.1161C129.571 34.6186 129.497 34.1141 129.295 33.6553C129.093 33.1966 128.772 32.8005 128.365 32.5086Z" fill="#FFAB90"/>
<path d="M116.106 69.5794C113.856 70.7311 111.222 69.8562 109.454 68.2401C107.383 66.3294 106.338 63.642 105.347 61.0974C105.106 60.4724 104.115 60.776 104.356 61.4009C105.49 64.3384 106.713 67.4544 109.266 69.4365C110.269 70.2986 111.498 70.8539 112.807 71.0359C114.117 71.218 115.451 71.0192 116.65 70.4633C117.24 70.1597 116.695 69.2758 116.106 69.5794Z" fill="#94C0C2"/>
<path d="M147.802 39.8299C143.213 40.1851 138.645 38.9215 134.891 36.2585C134.477 36.0397 134.121 35.7271 133.849 35.3457C133.578 34.9643 133.4 34.5248 133.329 34.0621C133.329 33.0086 134.302 32.2765 135.204 31.7229C139.103 29.4903 143.58 28.4736 148.061 28.8033C149.991 28.9485 151.894 29.3447 153.721 29.9819C154.637 30.3044 155.531 30.6831 156.4 31.1158C157.273 31.5185 158.104 32.0059 158.882 32.5711C160.203 33.6068 159.194 34.9639 158.186 35.7407C155.365 37.931 152 39.3108 148.454 39.7317L147.802 39.8299Z" fill="#1D3557"/>
<path d="M106.231 150.596C114.445 128.186 122.507 115.775 136.641 96.5433C142.766 88.2041 151.302 79.4185 161.578 80.7042C167.346 81.4185 173.73 90.2398 174.507 100.713C175.757 117.748 178.409 165.131 184.033 193.202C178.409 194.39 172.578 194.408 166.953 195.595C156.784 179.087 152.436 148.757 153.4 133.819C149.195 145.605 144.15 198.854 107.043 197.318C97.8559 196.935 90.1953 188.39 86.4096 180.042C82.624 171.694 82.5258 164.221 87.9453 148.971L106.231 150.596Z" fill="#213A4A"/>
<path d="M183.069 103.106C182.49 102.669 181.795 102.413 181.071 102.368C180.347 102.324 179.626 102.493 178.998 102.856C175.293 104.978 171.775 107.409 168.48 110.123C167.4 111.016 166.248 112.097 166.132 113.489C166.016 114.882 167.15 116.266 168.212 117.32C169.703 118.775 171.435 120.338 173.569 120.221C175.355 120.123 176.891 118.829 178.141 117.489C180.871 114.542 182.973 111.069 184.319 107.284C184.583 106.547 184.606 105.745 184.384 104.994C184.163 104.243 183.709 103.582 183.087 103.106H183.069Z" fill="#FFAB90"/>
<path d="M166.694 111.954L162.703 116.918C163.302 118.534 163.784 120.204 164.373 121.82C165.516 122.596 166.828 123.605 167.944 124.418C168.128 123.678 168.051 122.897 167.725 122.207C167.4 121.518 166.847 120.961 166.159 120.632C166.087 119.838 165.703 118.847 165.632 118.034C166.694 116.722 167.659 115.088 168.721 113.784L166.694 111.954Z" fill="#FFAB90"/>
<path d="M170.105 113.097L166.114 118.061C166.712 119.677 167.194 121.346 167.793 122.954C168.927 123.73 170.248 124.739 171.364 125.561C171.548 124.819 171.471 124.037 171.146 123.346C170.821 122.655 170.267 122.097 169.578 121.766C169.507 120.971 169.114 119.98 169.043 119.177C170.105 117.864 171.069 116.23 172.132 114.918L170.105 113.097Z" fill="#FFAB90"/>
<path d="M172.748 112.864L168.757 117.829C169.346 119.445 169.837 121.114 170.426 122.721C171.569 123.498 172.882 124.507 173.998 125.329C174.18 124.587 174.102 123.806 173.777 123.115C173.452 122.424 172.9 121.866 172.212 121.534C172.141 120.739 171.748 119.748 171.685 118.936C172.739 117.632 173.712 115.998 174.766 114.686L172.748 112.864Z" fill="#FFAB90"/>
<path d="M175.507 112.748L171.516 117.713C172.105 119.329 172.587 120.998 173.185 122.605C174.328 123.391 175.641 124.436 176.757 125.213C176.943 124.471 176.866 123.688 176.541 122.997C176.215 122.305 175.661 121.747 174.971 121.418C174.9 120.632 174.507 119.632 174.435 118.829C175.498 117.516 176.462 115.882 177.525 114.579L175.507 112.748Z" fill="#FFAB90"/>
<path d="M78.3026 154.596C74.6422 155.257 70.8906 155.229 67.2402 154.515C66.6063 154.391 66.4902 155.408 67.1241 155.515C70.8635 156.244 74.7061 156.269 78.4544 155.587C79.0704 155.471 78.9186 154.48 78.3026 154.596Z" fill="#213A4A"/>
<path d="M82.9722 151.792C91.1864 129.382 99.2488 116.971 113.374 97.7486C119.507 89.4005 128.043 80.6149 138.32 81.9006C144.088 82.6238 150.471 91.4362 151.239 101.909C152.498 118.945 155.159 168.337 160.793 196.408C155.168 197.595 149.337 197.613 143.704 198.801C133.534 182.292 129.177 149.953 130.141 135.016C125.936 146.801 120.891 200.059 83.7847 198.515C74.5973 198.131 66.9367 189.586 63.151 181.238C59.3653 172.89 59.2671 165.417 64.6867 150.167L82.9722 151.792Z" fill="#345C75"/>
<path d="M98.097 119.213C91.4377 128.936 86.455 139.707 83.3561 151.078C82.499 154.245 81.7877 157.453 81.2222 160.703C81.1061 161.337 82.1151 161.453 82.2222 160.81C84.2344 149.325 88.1577 138.258 93.8292 128.069C95.4006 125.239 97.1149 122.48 98.9452 119.802C99.2756 119.266 98.4631 118.677 98.097 119.213Z" fill="#213A4A"/>
<path d="M78.7758 155.06L74.4187 161.498C74.0616 162.033 74.8651 162.631 75.2312 162.087L79.5883 155.658C79.9454 155.141 79.1329 154.542 78.7758 155.06Z" fill="#213A4A"/>
<path d="M131.034 135.864C131.275 133.516 131.614 131.186 132.034 128.864C132.15 128.23 131.141 128.114 131.034 128.748C129.558 136.917 129.189 145.248 129.936 153.516C130.15 155.897 130.448 158.277 130.829 160.658C130.861 160.779 130.937 160.884 131.042 160.952C131.147 161.021 131.273 161.048 131.397 161.029C131.52 161.01 131.633 160.947 131.712 160.85C131.792 160.754 131.834 160.632 131.829 160.507C130.452 152.366 130.185 144.076 131.034 135.864Z" fill="#213A4A"/>
<path d="M156.043 191.443L144.971 193.399C144.84 193.42 144.722 193.493 144.645 193.601C144.567 193.709 144.535 193.843 144.556 193.975C144.578 194.106 144.65 194.224 144.758 194.302C144.866 194.379 145.001 194.411 145.132 194.39L156.195 192.435C156.326 192.414 156.444 192.343 156.523 192.236C156.601 192.129 156.634 191.995 156.614 191.863C156.594 191.732 156.523 191.614 156.415 191.535C156.308 191.456 156.174 191.423 156.043 191.443Z" fill="#213A4A"/>
<path d="M131.552 107.838C127.132 107.981 122.481 108.141 117.266 108.249C111.016 93.963 103.936 79.5704 97.722 65.2849C96.5345 62.5528 95.1863 59.6332 92.5971 58.1422C89.8025 56.535 86.0882 57.1154 83.5168 59.035C80.9454 60.9546 78.3026 70.3384 79.3115 76.4901C82.7311 96.5433 92.1239 108.025 104.311 124.302C113.405 124.243 122.483 123.52 131.472 122.141C130.592 117.411 130.619 112.557 131.552 107.838Z" fill="#A8DADC"/>
<path d="M110.588 118.454C109.579 118.454 112.597 114.427 111.597 112.409C110.588 114.427 107.57 115.436 106.561 117.445C93.981 102.168 81.4186 85.3025 80.2936 65.3831C79.1886 68.9844 78.8539 72.7779 79.3115 76.5169C82.7311 96.5702 92.1239 108.052 104.311 124.329C113.405 124.269 122.483 123.547 131.472 122.168C131.356 121.605 131.257 121.052 131.177 120.489C124.257 121.534 117.132 121.186 110.588 118.454Z" fill="#94C0C2"/>
<path d="M114.686 102.231L101.124 75.7043L97.2934 68.2045C96.9988 67.6331 96.0613 67.9902 96.4006 68.5705L109.954 95.088L113.793 102.588C114.016 103.159 114.981 102.811 114.686 102.231Z" fill="#94C0C2"/>
<path d="M165.962 108.186C154.509 107.405 143.019 107.289 131.552 107.838C130.618 112.57 130.593 117.436 131.481 122.177C143.307 120.398 154.945 117.538 166.248 113.632C166.159 111.74 166.052 110.079 165.962 108.186Z" fill="#FFC9B9"/>
<path d="M156.668 108.373C161.389 106.458 166.292 105.025 171.302 104.097C172.685 103.838 174.248 103.659 175.391 104.463C176.534 105.266 176.873 107.025 176.989 108.516C177.15 110.597 177.221 112.927 175.784 114.472C174.551 115.784 172.578 116.123 170.748 116.213C165.817 116.452 160.904 115.448 156.462 113.293L156.668 108.373Z" fill="#FFC9B9"/>
<path d="M173.882 103.882L180.248 104.016C181.141 105.507 182.034 106.945 182.926 108.481C182.784 109.847 182.739 111.525 182.605 112.9C181.919 112.564 181.37 112.001 181.052 111.305C180.735 110.61 180.668 109.827 180.864 109.088C180.301 108.525 179.775 107.579 179.212 107.016C177.525 107.016 175.641 106.677 173.971 106.641L173.882 103.882Z" fill="#FFC9B9"/>
<path d="M172.551 107.266L178.917 107.4C179.766 108.891 180.703 110.338 181.596 111.865C181.462 113.239 181.417 114.918 181.284 116.284C180.59 115.954 180.033 115.393 179.707 114.698C179.381 114.003 179.307 113.216 179.498 112.472C178.935 111.909 178.417 110.963 177.855 110.4C176.168 110.4 174.284 110.061 172.614 110.034L172.551 107.266Z" fill="#FFC9B9"/>
<path d="M170.659 109.123L177.025 109.257C177.918 110.748 178.855 112.195 179.703 113.722C179.569 115.097 179.525 116.775 179.391 118.186C178.698 117.853 178.141 117.29 177.816 116.594C177.49 115.897 177.416 115.11 177.605 114.364C177.043 113.811 176.525 112.856 175.962 112.293C174.275 112.293 172.391 111.954 170.721 111.927L170.659 109.123Z" fill="#FFC9B9"/>
<path d="M168.802 111.168L175.168 111.302C176.06 112.793 176.953 114.231 177.846 115.766C177.712 117.132 177.659 118.811 177.525 120.186C176.839 119.849 176.292 119.285 175.974 118.59C175.657 117.895 175.59 117.112 175.784 116.373C175.221 115.811 174.694 114.856 174.132 114.302C172.453 114.302 170.56 113.963 168.891 113.927L168.802 111.168Z" fill="#FFC9B9"/>
<path d="M12.1426 155.614C19.4729 141.587 30.6424 128.677 45.6512 123.659C60.6599 118.641 79.6597 123.793 86.7757 137.944C83.2043 134.935 77.8472 134.614 73.4366 136.212C69.0259 137.81 65.4009 141.06 62.3295 144.614C52.9814 155.444 48.044 169.444 45.3655 183.497C42.6869 197.551 42.0173 211.916 40.1512 226.104C39.3209 232.354 38.1959 238.809 34.9281 244.228C30.8746 250.934 21.9997 256.434 14.3926 252.014C9.03553 248.889 5.93736 244.22 4.5713 238.327C2.5624 229.755 0.678489 221.3 0.178495 212.488C-0.3461 203.219 0.286749 193.922 2.0624 184.81C4.00243 174.644 7.39741 164.811 12.1426 155.614Z" fill="#50B2B5"/>
<path d="M50.9458 152.382C39.3388 179.167 35.7674 205.952 30.4103 235.416C28.1157 245.514 21.58 250.175 13.7051 251.603L14.3301 251.987C21.955 256.407 30.8299 250.907 34.8656 244.202C38.1334 238.782 39.2584 232.354 40.0887 226.077C41.9548 211.89 42.5976 197.506 45.303 183.471C48.0083 169.435 52.9636 155.417 62.2671 144.587C65.3295 141.016 68.9545 137.784 73.3741 136.186C77.7937 134.587 83.1061 134.909 86.7132 137.918C86.0187 136.539 85.1998 135.227 84.2668 133.998C70.8027 128.623 56.1778 138.935 50.9458 152.382Z" fill="#459A9D"/>
<path d="M51.6243 137.203C43.7941 138.873 37.0084 143.587 31.8567 149.605C26.0443 156.39 22.4818 164.783 20.1783 173.31C17.6158 182.854 16.2854 192.747 15.1426 202.542C13.9521 212.845 13.22 223.187 12.9462 233.568C12.6724 243.949 12.8688 254.267 13.5355 264.523C13.6158 265.808 13.7051 267.085 13.8033 268.362C13.8033 268.933 14.6962 268.79 14.6962 268.219C13.9283 258.005 13.6307 247.767 13.8033 237.505C13.9462 227.351 14.5414 217.214 15.589 207.095C16.4891 197.276 17.9648 187.518 20.0086 177.872C21.9818 169.096 24.9996 160.364 30.3299 153.033C34.9638 146.658 41.303 141.31 48.8743 138.864C49.8353 138.551 50.813 138.291 51.8029 138.087C52.3207 137.98 52.1868 137.096 51.6243 137.203Z" fill="#1D3557"/>
<path d="M46.5083 145.944C41.3389 146.277 36.3228 147.834 31.8745 150.489L36.562 136.596C36.7406 136.052 35.9102 135.703 35.7316 136.275L30.6514 151.328C30.6158 151.42 30.6115 151.521 30.6392 151.615C30.6668 151.709 30.7248 151.792 30.8042 151.85C30.8836 151.908 30.9799 151.938 31.0782 151.936C31.1765 151.933 31.2712 151.899 31.3478 151.837C35.9448 148.883 41.2234 147.158 46.6779 146.828C47.2137 146.792 47.0529 145.909 46.5083 145.944Z" fill="#1D3557"/>
<path d="M31.8031 174.596C26.751 179.951 22.3376 185.874 18.6515 192.247C17.839 193.658 17.0801 195.086 16.339 196.533C15.0676 189.631 14.5883 182.606 14.9105 175.596C15.0176 173.48 15.1962 171.364 15.4462 169.265C15.4604 169.147 15.427 169.028 15.3533 168.934C15.2796 168.84 15.1717 168.78 15.0533 168.765C14.9349 168.751 14.8157 168.785 14.722 168.858C14.6282 168.932 14.5675 169.04 14.5533 169.158C13.6768 176.622 13.7068 184.165 14.6426 191.622C14.9105 193.756 15.2587 195.881 15.6694 197.997C15.6771 198.104 15.7224 198.205 15.7972 198.282C15.872 198.359 15.9715 198.407 16.0782 198.417C16.185 198.428 16.2921 198.401 16.3806 198.34C16.4692 198.28 16.5335 198.19 16.5622 198.086C19.8033 191.554 23.7847 185.415 28.4282 179.792C29.7496 178.203 31.1067 176.649 32.5442 175.149C32.9192 174.703 32.187 174.176 31.8031 174.596Z" fill="#1D3557"/>
<path d="M25.8657 213.381C21.3412 218.501 17.6802 224.325 15.0265 230.622C14.4373 232.032 13.9105 233.47 13.4194 234.916C10.5428 227.074 8.36767 218.992 6.91949 210.765C6.90055 210.646 6.83535 210.54 6.73823 210.47C6.64112 210.4 6.52004 210.371 6.40164 210.39C6.28324 210.409 6.17722 210.474 6.10689 210.571C6.03657 210.668 6.0077 210.789 6.02665 210.908C7.56232 219.617 9.90267 228.166 13.0176 236.443C13.0519 236.523 13.1092 236.592 13.1822 236.64C13.2552 236.689 13.3408 236.714 13.4283 236.714C13.5159 236.714 13.6015 236.689 13.6745 236.64C13.7475 236.592 13.8047 236.523 13.8391 236.443C15.8858 229.958 18.9769 223.851 22.9907 218.363C24.1157 216.827 25.3211 215.336 26.5621 213.899C26.9728 213.479 26.2407 212.952 25.8657 213.381Z" fill="#1D3557"/>
<path d="M60.6421 208.675C72.9098 203.318 90.6149 202.729 101.65 213.416C98.972 202.845 88.6864 195.336 77.6865 193.631C74.5868 194.079 71.575 195.003 68.758 196.372C67.1241 197.176 65.8027 194.676 67.4366 193.872L67.9188 193.649C59.6778 194.827 51.9636 198.658 45.1869 203.791C43.1726 206.677 41.6044 209.849 40.5352 213.202C40.3861 213.507 40.1326 213.749 39.8207 213.883C39.5089 214.017 39.1592 214.035 38.8353 213.933C38.5113 213.832 38.2344 213.618 38.0549 213.329C37.8753 213.041 37.805 212.698 37.8566 212.363C38.2242 211.198 38.6534 210.054 39.1423 208.934C38.5084 209.532 37.8923 210.14 37.2852 210.72C33.0669 214.991 29.289 219.675 26.0085 224.702C24.5264 229.8 23.9193 235.237 23.33 240.389C23.1157 242.175 20.2854 242.103 20.4997 240.3C20.8122 237.621 21.1247 234.943 21.5443 232.264C17.9311 239.081 15.1636 246.313 13.3033 253.8C11.5176 261.058 10.9105 268.362 10.4016 275.79C10.1555 278.223 10.4303 280.681 11.2078 282.999C11.9852 285.318 13.2474 287.444 14.9105 289.237L15.0533 289.379C23.7228 258.791 31.4013 223.595 60.6421 208.675Z" fill="#459A9D"/>
<path d="M60.6421 208.675C31.4013 223.595 23.7228 258.791 15.1069 289.379C20.1872 294.674 28.6246 292.451 33.5263 288.076C37.1691 284.826 39.5798 280.46 41.6691 276.031C38.5226 277.428 35.4923 279.074 32.6067 280.951C31.0799 281.933 29.7674 279.424 31.2942 278.451C35.0712 275.983 39.1034 273.93 43.3208 272.326C45.4994 267.433 47.544 262.505 49.6511 257.532C47.669 258.496 45.7494 259.55 43.8833 260.657C42.3119 261.55 40.9994 259.076 42.5619 258.157C45.3715 256.468 48.2952 254.976 51.3118 253.693C53.0975 249.594 54.9993 245.532 57.1064 241.577C59.9803 236.082 63.4152 230.9 67.3563 226.113C64.2925 226.523 61.2696 227.195 58.3207 228.122C56.535 228.666 55.9546 225.907 57.6778 225.363C61.7041 224.141 65.8553 223.378 70.0527 223.086C73.1763 219.751 76.7105 216.826 80.5704 214.381L81.1686 214.024L79.5793 213.872C79.3941 213.866 79.2117 213.825 79.0425 213.749C78.8734 213.673 78.7209 213.565 78.5936 213.43C78.4663 213.295 78.3668 213.137 78.3008 212.964C78.2348 212.791 78.2035 212.606 78.2088 212.421C78.2141 212.236 78.2558 212.053 78.3316 211.884C78.4073 211.715 78.5157 211.562 78.6504 211.435C78.7851 211.308 78.9436 211.208 79.1168 211.142C79.29 211.076 79.4744 211.045 79.6597 211.05C81.624 211.22 83.615 211.434 85.5793 211.774C87.5105 210.969 89.5625 210.492 91.6506 210.363C95.6238 210.166 99.847 211.756 102.008 215.086C101.909 214.524 101.793 213.97 101.651 213.425C90.6149 202.729 72.9455 203.274 60.6421 208.675Z" fill="#50B2B5"/>
<path d="M73.758 205.729C67.0081 205.131 60.3653 207.247 54.6779 210.818C48.2761 214.863 43.3119 220.729 39.312 227.086C34.8477 234.157 31.2763 241.827 27.9371 249.46C24.3657 257.496 21.1901 265.677 18.4104 274.005C15.6307 282.332 13.2111 290.728 11.1516 299.192C10.9016 300.245 10.6516 301.299 10.4105 302.352C10.3034 302.835 11.0534 302.933 11.1605 302.468C13.0652 294.016 15.3718 285.653 18.0801 277.38C20.7884 269.106 23.8032 261.07 27.1246 253.273C30.3041 245.554 33.9353 238.029 37.9995 230.738C41.7851 224.139 46.4101 217.827 52.544 213.229C57.901 209.238 64.3474 206.497 71.0795 206.399C71.9379 206.39 72.7962 206.425 73.6508 206.506C74.133 206.524 74.2401 205.774 73.758 205.729Z" fill="#1D3557"/>
<path d="M67.4456 211.506C63.1737 210.474 58.7175 210.474 54.4457 211.506L61.7046 201.488C61.9903 201.095 61.401 200.595 61.1153 201.015C58.4903 204.646 55.8683 208.283 53.2493 211.925C53.1972 211.99 53.1682 212.071 53.167 212.154C53.1658 212.238 53.1924 212.319 53.2425 212.385C53.2927 212.452 53.3636 212.5 53.4441 212.522C53.5245 212.544 53.6099 212.538 53.6868 212.506C58.14 211.263 62.838 211.186 67.3295 212.282C67.8027 212.372 67.9098 211.622 67.4456 211.506Z" fill="#1D3557"/>
<path d="M48.3922 231.005C42.9679 234.076 37.9192 237.768 33.3477 242.005C32.3388 242.898 31.3656 243.898 30.4103 244.88C31.1213 238.972 32.5114 233.166 34.5531 227.577C35.1602 225.889 35.8388 224.229 36.562 222.595C36.5862 222.506 36.5775 222.411 36.5377 222.328C36.4978 222.245 36.4294 222.179 36.3449 222.142C36.2604 222.105 36.1655 222.1 36.0775 222.127C35.9895 222.155 35.9143 222.213 35.8656 222.291C33.2896 228.104 31.4307 234.208 30.3299 240.469C30.0085 242.255 29.7585 244.041 29.571 245.889C29.5646 245.969 29.5835 246.049 29.6252 246.118C29.6668 246.187 29.729 246.241 29.803 246.273C29.877 246.304 29.9591 246.312 30.0376 246.294C30.1162 246.277 30.1872 246.235 30.2406 246.175C34.4836 241.703 39.2259 237.734 44.3744 234.345C45.8387 233.38 47.3267 232.47 48.8386 231.612C49.2672 231.371 48.8386 230.764 48.3922 231.005Z" fill="#1D3557"/>
<path d="M33.9013 260.889C28.9659 263.906 24.5517 267.702 20.83 272.13C19.9997 273.121 19.2229 274.148 18.464 275.201C18.0944 268.139 18.3514 261.058 19.2318 254.041C19.2389 253.991 19.2361 253.941 19.2238 253.893C19.2114 253.845 19.1897 253.8 19.1599 253.76C19.13 253.72 19.0926 253.687 19.0498 253.661C19.007 253.636 18.9596 253.619 18.9104 253.612C18.8612 253.605 18.811 253.608 18.7628 253.62C18.7146 253.633 18.6693 253.654 18.6296 253.684C18.5898 253.714 18.5562 253.751 18.5309 253.794C18.5055 253.837 18.4889 253.884 18.4818 253.934C17.5523 261.363 17.3132 268.862 17.7676 276.335C17.7761 276.416 17.8098 276.491 17.8641 276.552C17.9183 276.612 17.9903 276.653 18.0696 276.67C18.1489 276.687 18.2315 276.679 18.3055 276.646C18.3796 276.613 18.4413 276.557 18.4818 276.487C21.7449 271.759 25.7627 267.599 30.3746 264.174C31.6781 263.21 33.0204 262.317 34.4013 261.496C34.7763 261.246 34.3209 260.639 33.9013 260.889Z" fill="#1D3557"/>
</svg>
