<svg width="212" height="197" viewBox="0 0 212 197" fill="none" xmlns="http://www.w3.org/2000/svg">
<path d="M112.629 164.912C110.896 166.074 108.61 167.221 106.017 168.336C105.789 168.433 105.557 168.532 105.321 168.629C96.5935 172.246 82.217 175.859 75.9907 178.059C75.196 178.858 74.4024 179.697 73.6087 180.566C69.0269 185.582 64.4686 191.614 60.2918 197.001H0V193.305C1.77852 191.763 3.55602 190.222 5.33352 188.681C18.1851 178.24 38.5128 150.94 38.5752 150.862C44.055 144.035 52.1826 126.621 60.57 111.153C62.9039 106.844 77.6618 112.943 82.0565 111.087C99.2291 103.839 106.305 118.916 104.98 131.865C104.286 138.66 109.802 156.21 111.868 162.569C112.345 164.036 112.638 164.907 112.629 164.912V164.912Z" fill="#F7B791"/>
<path d="M131.475 140.627C131.472 140.945 131.517 141.186 131.622 141.314C132.533 142.421 133.299 141.558 134.155 141.815C134.388 141.884 134.629 142.038 134.88 142.337C136.59 144.37 138.715 146.214 141.032 147.252C141.212 147.333 141.394 147.41 141.576 147.48C141.79 147.564 142.006 147.64 142.223 147.707C143.265 148.034 144.337 148.188 145.419 148.113C146.969 148.008 148.163 147.667 149.012 147.192C149.254 147.058 149.468 146.913 149.654 146.758C150.314 146.214 150.63 145.564 150.617 144.912C150.597 143.866 149.759 142.786 148.613 141.564C148.49 141.432 148.363 141.3 148.232 141.166C147.715 140.628 147.148 140.062 146.575 139.459C145.648 138.48 144.725 137.497 143.817 136.502C143.064 135.68 142.321 134.85 141.593 134.008C141.467 133.864 141.333 133.717 141.194 133.57C141.141 133.516 141.086 133.46 141.031 133.405C140.888 133.263 140.739 133.124 140.581 132.991C139.929 132.439 139.171 132.001 138.352 131.957C138.168 131.945 137.984 131.957 137.797 131.988C136.851 132.149 134.433 133.127 133.627 134.099C132.901 134.972 131.493 138.92 131.473 140.627H131.475Z" fill="#F7B791"/>
<path d="M134.265 130.195C135.553 131.915 136.74 129.865 138.046 131.572C138.144 131.701 138.246 131.828 138.352 131.958C139.076 132.826 139.992 133.702 141.032 134.538C141.113 134.605 141.197 134.67 141.28 134.735C142.07 135.355 142.927 135.952 143.818 136.502C146.977 138.458 150.577 139.856 153.264 139.793C155.095 139.753 156.517 139.414 157.543 138.903C158.36 138.495 158.925 137.976 159.244 137.407C159.442 137.053 159.545 136.68 159.556 136.303C159.586 135.071 158.86 133.556 157.375 132.254C156.351 131.359 155.297 130.345 154.237 129.283C149.491 124.52 144.679 118.797 142.388 118.533C142.037 118.493 141.566 118.441 141.032 118.393C140.733 118.366 140.415 118.341 140.085 118.319C138.147 118.194 135.851 118.215 135.17 118.963C134.102 120.137 133.515 129.194 134.264 130.195H134.265Z" fill="#F7B791"/>
<path d="M134.41 115.655C136.65 116.189 136.218 113.698 138.464 114.209C139.306 114.399 140.166 114.56 141.033 114.675C141.068 114.68 141.102 114.685 141.136 114.689C145.641 115.281 150.302 114.747 153.453 112.008C154.93 110.726 155.867 109.478 156.359 108.358C156.442 108.166 156.515 107.976 156.572 107.793C156.956 106.59 156.798 105.566 156.23 104.847C155.411 103.814 153.744 103.364 151.662 103.009C150.72 102.848 149.693 102.706 148.62 102.538C148.418 102.505 148.215 102.474 148.009 102.44C145.678 102.054 143.352 101.651 141.033 101.195C140.736 101.138 140.439 101.078 140.142 101.019C139.711 100.932 139.279 100.843 138.847 100.751C138.033 100.578 137.103 100.445 136.206 100.495H136.205C136.099 100.501 135.995 100.509 135.891 100.521C135.456 100.568 135.035 100.663 134.644 100.823C134.293 100.966 133.968 101.162 133.681 101.422C133.618 101.479 133.556 101.538 133.498 101.601C132.672 102.482 130.99 105.298 130.921 106.887C130.848 108.58 133.11 115.344 134.413 115.654L134.41 115.655Z" fill="#F7B791"/>
<path d="M126.915 93.7352C126.981 94.7929 127.217 95.8405 127.611 96.8258C127.871 97.4776 128.213 98.1181 128.749 98.571C129.082 98.8515 129.477 99.0504 129.868 99.2442C130.01 99.3146 130.152 99.387 130.296 99.4574C131.549 100.074 132.857 100.665 134.257 100.805C134.302 100.809 134.345 100.813 134.388 100.815C134.476 100.821 134.56 100.823 134.643 100.823C135.133 100.82 135.518 100.705 135.89 100.521C136.221 100.355 136.541 100.134 136.913 99.8889C136.967 99.8521 137.02 99.8175 137.075 99.7818C138.261 99.0076 139.452 98.2385 140.636 97.4613C140.768 97.3746 140.901 97.2889 141.032 97.2001C141.408 96.9533 141.783 96.7054 142.157 96.4566C146.097 93.829 149.624 89.9632 149.8 85.566C149.868 83.8494 149.634 82.4979 149.213 81.5064C149.19 81.4534 149.167 81.4034 149.145 81.3524C148.599 80.1733 147.774 79.547 146.884 79.4685C145.942 79.3858 144.91 79.8938 143.758 80.6863C143.493 80.8669 143.224 81.0648 142.946 81.2718C142.34 81.7247 141.704 82.2316 141.031 82.7539C140.816 82.9212 140.597 83.0895 140.374 83.2578C140.13 83.4424 139.886 83.627 139.642 83.8106C137.706 85.2702 135.754 86.7064 133.757 88.0824C132.468 88.9708 131.162 89.8357 129.846 90.6854C128.621 91.4769 126.808 92.04 126.914 93.7362L126.915 93.7352Z" fill="#F7B791"/>
<path d="M187.264 68.5507C188.249 67.6328 188.301 66.0928 187.38 65.1109C186.46 64.129 184.916 64.0771 183.931 64.995C182.947 65.9128 182.895 67.4529 183.815 68.4348C184.736 69.4167 186.28 69.4686 187.264 68.5507Z" fill="#ABB2DA"/>
<path d="M180.276 72.0265C181.098 73.4454 182.522 74.5031 184.27 74.803C185.896 75.0814 187.478 74.6479 188.697 73.7279C188.988 71.4594 187.436 69.345 185.154 68.9543C182.958 68.5779 180.864 69.9325 180.276 72.0265V72.0265Z" fill="#ABB2DA"/>
<path d="M189.666 73.0186C192.139 70.5521 192.139 66.5531 189.666 64.0866C187.193 61.6201 183.184 61.6201 180.71 64.0866C178.237 66.5531 178.237 70.5521 180.71 73.0186C183.184 75.485 187.193 75.4851 189.666 73.0186Z" stroke="#ABB2DA" stroke-linecap="round" stroke-linejoin="round"/>
<path d="M77.7539 38.7103L74.1058 23.8519" stroke="#457B9D" stroke-linecap="round" stroke-linejoin="round"/>
<path d="M74.9761 41.9365L64.1147 31.1368" stroke="#457B9D" stroke-linecap="round" stroke-linejoin="round"/>
<path d="M72.7006 46.3266L65.3902 44.0163L58.0797 41.706" stroke="#457B9D" stroke-linecap="round" stroke-linejoin="round"/>
<g style="mix-blend-mode:multiply">
<path d="M133.628 134.099C132.903 134.972 131.495 138.92 131.475 140.627C131.472 140.945 131.517 141.186 131.622 141.314C132.533 142.421 133.299 141.558 134.155 141.815C134.388 141.884 134.629 142.038 134.88 142.337C136.59 144.37 138.715 146.214 141.032 147.252V118.393C140.733 118.366 140.415 118.341 140.085 118.319C138.147 118.194 135.851 118.215 135.17 118.963C134.102 120.137 133.515 129.194 134.264 130.195C135.552 131.915 136.739 129.865 138.045 131.572C138.143 131.701 138.245 131.828 138.351 131.958C138.168 131.946 137.984 131.958 137.797 131.989C136.851 132.15 134.433 133.128 133.626 134.1L133.628 134.099Z" fill="#E9B19B"/>
</g>
<g style="mix-blend-mode:multiply">
<path d="M126.915 93.7352C126.981 94.7929 127.217 95.8405 127.611 96.8258C127.871 97.4776 128.213 98.1182 128.749 98.571C129.083 98.8515 129.477 99.0504 129.868 99.2442C130.01 99.3146 130.152 99.387 130.296 99.4574C131.549 100.075 132.857 100.665 134.258 100.805C134.303 100.809 134.345 100.813 134.388 100.815C134.476 100.821 134.56 100.823 134.643 100.823C134.292 100.966 133.967 101.162 133.68 101.422C133.617 101.479 133.555 101.538 133.497 101.601C132.671 102.482 130.989 105.298 130.92 106.887C130.847 108.58 133.109 115.344 134.412 115.654C136.652 116.188 136.22 113.697 138.466 114.208C139.308 114.398 140.168 114.559 141.035 114.674V101.194C140.739 101.137 140.441 101.077 140.144 101.018C139.713 100.931 139.281 100.842 138.85 100.75C138.035 100.577 137.105 100.444 136.208 100.494H136.207C136.101 100.5 135.997 100.508 135.893 100.52C136.224 100.354 136.544 100.133 136.917 99.8879C136.97 99.8511 137.023 99.8164 137.078 99.7807C138.265 99.0066 139.455 98.2375 140.639 97.4602C140.771 97.3735 140.904 97.2879 141.035 97.1991V82.7529C140.82 82.9201 140.601 83.0884 140.379 83.2567C140.134 83.4414 139.89 83.626 139.646 83.8096C137.71 85.2692 135.758 86.7054 133.761 88.0813C132.472 88.9698 131.166 89.8347 129.851 90.6844C128.625 91.4759 126.812 92.0389 126.918 93.7352H126.915Z" fill="#E9B19B"/>
</g>
<path d="M152.389 180.859L166.356 174.874L162.594 166.141L148.627 172.126L152.389 180.859Z" stroke="#BAC2ED" stroke-width="5" stroke-linecap="round" stroke-linejoin="round"/>
<path d="M156.682 173.906L152.391 180.855" stroke="#BAC2ED" stroke-width="5" stroke-linecap="round" stroke-linejoin="round"/>
<path d="M166.358 174.87L158.35 173.191" stroke="#BAC2ED" stroke-width="5" stroke-linecap="round" stroke-linejoin="round"/>
<path d="M162.597 166.138L157.717 174.016L148.629 172.123" stroke="#BAC2ED" stroke-width="5" stroke-linecap="round" stroke-linejoin="round"/>
<path d="M79.4977 50.3842L79.4905 62.4426L79.4649 102.807L79.4302 159.369C79.4271 163.811 83.2102 167.414 87.8789 167.415L133.556 167.441C138.225 167.444 142.012 163.846 142.015 159.404L142.081 50.4189C142.084 45.9768 138.301 42.3741 133.633 42.3731L87.9556 42.3466C83.2869 42.3435 79.4997 45.9421 79.4967 50.3842H79.4977Z" fill="black" stroke="black" stroke-width="1.02" stroke-miterlimit="10"/>
<path d="M82.4279 158.808C82.4238 161.962 85.1074 164.521 88.4231 164.525L133.011 164.576C136.327 164.579 139.016 162.027 139.02 158.873L138.962 50.8279C138.962 50.7932 138.962 50.7606 138.96 50.7269C138.908 47.7607 136.366 45.3699 133.234 45.3658L88.1101 45.3138C84.9775 45.3097 82.4289 47.6955 82.3696 50.6626C82.3696 50.6963 82.3685 50.7289 82.3685 50.7626L82.4268 158.808H82.4279Z" fill="#C2EBF6"/>
<path d="M82.3511 50.6616L138.97 50.7014C138.919 47.7353 136.378 45.3464 133.243 45.3423L88.0958 45.3097C84.9611 45.3077 82.4104 47.6934 82.3501 50.6606L82.3511 50.6616Z" fill="white"/>
<path d="M87.7774 49.3946L90.6349 49.398L90.6379 46.9562L87.7804 46.9527L87.7774 49.3946Z" fill="#DFF1F6"/>
<path d="M90.9417 49.3994L91.6555 49.4003L91.6585 46.9584L90.9446 46.9576L90.9417 49.3994Z" fill="#DFF1F6"/>
<path d="M131.774 48.1728C131.774 48.6227 132.139 48.9878 132.59 48.9878C133.041 48.9878 133.407 48.6247 133.407 48.1749C133.407 47.7251 133.043 47.3599 132.592 47.3599C132.141 47.3599 131.774 47.723 131.774 48.1728Z" fill="#DFF1F6"/>
<path d="M129.733 48.1708C129.733 48.6206 130.097 48.9858 130.548 48.9858C130.999 48.9858 131.365 48.6226 131.365 48.1728C131.365 47.723 131.001 47.3578 130.55 47.3578C130.099 47.3578 129.733 47.721 129.733 48.1708Z" fill="#DFF1F6"/>
<path d="M127.693 48.1677C127.693 48.6176 128.057 48.9827 128.508 48.9827C128.959 48.9827 129.325 48.6196 129.325 48.1698C129.325 47.72 128.961 47.3548 128.51 47.3548C128.059 47.3548 127.693 47.7179 127.693 48.1677Z" fill="#DFF1F6"/>
<g style="mix-blend-mode:multiply">
<path d="M86.7222 91.6289C85.409 96.0496 82.4319 99.9082 81.5932 104.443C81.2455 106.325 81.2813 108.255 81.3191 110.168C81.3877 113.646 81.4562 117.123 81.5247 120.599C81.5717 122.968 81.6167 125.358 81.178 127.688C81.0154 128.554 80.7699 129.438 80.1992 130.111C79.6296 130.785 78.659 131.189 77.8357 130.867C76.8887 130.498 76.5 129.391 76.2617 128.405C75.6011 125.673 75.2186 122.845 74.0578 120.285C73.5669 119.203 72.9389 118.171 72.6362 117.024C72.358 115.97 72.3662 114.866 72.3774 113.777C72.4439 107.295 72.5932 100.594 75.3086 94.7042C76.2515 92.6591 77.49 90.7476 78.2489 88.6281C78.9894 86.5615 79.2502 84.3604 79.5069 82.1806C79.7902 79.7694 79.8219 77.2377 80.2473 74.855C80.7372 72.1143 82.169 73.5596 83.338 75.0335C85.6974 78.0078 87.117 81.7165 87.3757 85.4977C87.5169 87.5581 87.3092 89.646 86.7212 91.6279L86.7222 91.6289Z" fill="#E9B19B"/>
</g>
<path d="M69.0505 186.28C73.2467 180.588 83.8954 160.31 81.4122 145.357C78.5895 128.354 77.8153 123.039 79.9916 105.5C81.0798 96.7289 87.0464 91.5534 85.815 82.4601C85.3037 78.678 82.8092 69.4286 77.2149 71.3309C76.5287 71.5635 76.0071 71.9072 75.6103 72.3325C73.4932 74.6082 74.9813 79.2369 74.3339 81.9634C74.3278 81.9909 74.3216 82.0174 74.3145 82.0429C73.2958 86.023 70.558 89.9867 68.6516 93.5781C63.2036 103.847 54.8959 113.224 51.0055 124.22C46.8471 135.971 44.6707 142.156 37.5934 152.606C22.7271 174.562 61.8341 196.064 69.0495 186.279L69.0505 186.28Z" fill="#F7B791"/>
<g style="mix-blend-mode:multiply">
<path d="M71.2064 168.953C75.0999 170.544 93.3894 169.381 105.321 168.629C105.557 168.532 105.789 168.434 106.017 168.336C108.61 167.221 110.895 166.074 112.629 164.913C112.638 164.907 84.9181 167.108 83.0639 163.192C81.9287 160.795 86.0032 149.042 78.8073 125.189C79.9221 143.484 83.8749 161.474 71.2064 168.954V168.953Z" fill="#E9B19B"/>
</g>
<g style="mix-blend-mode:screen">
<path d="M74.3339 81.9634C74.7614 82.0429 75.1981 82.0735 75.6328 82.0511C75.8516 82.0399 76.0756 82.0144 76.271 81.9164C76.4837 81.8093 76.6473 81.6258 76.7905 81.435C77.5698 80.4089 77.9421 79.1227 78.0587 77.8416C78.1753 76.5604 78.0525 75.2701 77.9288 73.99C77.85 73.1628 76.6575 72.4784 75.6092 72.3315C73.4922 74.6071 74.9803 79.2359 74.3329 81.9624L74.3339 81.9634Z" fill="#EC9093"/>
</g>
<g style="mix-blend-mode:screen">
<path d="M143.759 80.6863C143.979 80.6669 144.198 80.6313 144.413 80.6007C145.339 80.464 146.077 80.1784 147.012 80.211C147.9 80.2426 148.481 80.8618 149.146 81.3534C148.6 80.1743 147.775 79.548 146.885 79.4695C145.943 79.3868 144.911 79.8948 143.759 80.6873V80.6863Z" fill="#EC9093"/>
</g>
<g style="mix-blend-mode:screen">
<path d="M148.619 102.538C148.674 102.597 148.745 102.65 148.812 102.69C150.186 103.485 151.789 103.787 153.37 103.937C154.014 103.997 154.691 104.046 155.23 104.401C155.598 104.643 155.868 105.011 156.061 105.406C156.273 105.842 156.389 106.314 156.425 106.796C156.446 107.079 156.364 107.453 156.516 107.712C156.534 107.742 156.552 107.768 156.571 107.794C156.955 106.591 156.797 105.567 156.229 104.848C155.41 103.815 153.744 103.365 151.661 103.01C150.719 102.849 149.693 102.707 148.619 102.539V102.538Z" fill="#EC9093"/>
</g>
<g style="mix-blend-mode:screen">
<path d="M153.784 130.812C154.019 131.708 154.707 132.423 155.477 132.937C156.247 133.452 157.112 133.806 157.924 134.253C158.265 134.439 158.605 134.651 158.838 134.963C159.384 135.691 158.998 136.633 159.244 137.406C159.442 137.053 159.545 136.68 159.556 136.303C159.586 135.071 158.86 133.556 157.375 132.254C156.352 131.359 155.297 130.345 154.238 129.283C154.119 129.36 154.015 129.455 153.931 129.572C153.68 129.922 153.676 130.397 153.784 130.812Z" fill="#EC9093"/>
</g>
<g style="mix-blend-mode:screen">
<path d="M150.154 144.594C150.422 145.314 149.653 146.679 149.655 146.759C150.315 146.215 150.631 145.565 150.618 144.913C150.598 143.867 149.76 142.787 148.614 141.565C148.491 141.433 148.364 141.301 148.233 141.167C148.223 141.173 148.213 141.179 148.202 141.186C148.063 141.663 148.305 142.163 148.568 142.585C148.973 143.236 149.885 143.877 150.153 144.595L150.154 144.594Z" fill="#EC9093"/>
</g>
<path d="M118.738 84.9275H102.776C101.432 84.9275 100.343 86.0139 100.343 87.3541V99.0321C100.343 100.372 101.432 101.459 102.776 101.459H118.738C120.081 101.459 121.171 100.372 121.171 99.0321V87.3541C121.171 86.0139 120.081 84.9275 118.738 84.9275Z" fill="#457B9D"/>
<path d="M117.824 84.9275H115.363V82.1194C115.363 79.4389 113.297 77.2571 110.756 77.2571C108.216 77.2571 106.15 79.4378 106.15 82.1194V84.9275H103.688V82.1194C103.688 78.0058 106.859 74.6591 110.755 74.6591C114.652 74.6591 117.822 78.0058 117.822 82.1194V84.9275H117.824Z" fill="#457B9D"/>
<path d="M112.959 90.7752C112.959 89.5195 111.904 88.5108 110.63 88.5811C109.51 88.6434 108.6 89.5654 108.555 90.6844C108.531 91.2852 108.75 91.8339 109.12 92.244C109.259 92.398 109.324 92.604 109.295 92.8101L108.628 97.3134C108.589 97.5745 108.792 97.8081 109.056 97.8081H112.459C112.724 97.8081 112.926 97.5735 112.888 97.3134L112.221 92.8101C112.19 92.605 112.257 92.398 112.396 92.244C112.747 91.8543 112.961 91.3402 112.961 90.7741L112.959 90.7752Z" fill="white"/>
<path d="M132.341 111.128H89.1716V122.761H132.341V111.128Z" fill="#457B9D"/>
<path d="M100.573 117.243L98.8947 116.749L99.2117 115.768L100.862 116.45L100.762 114.526H101.801L101.696 116.482L103.313 115.817L103.624 116.815L101.923 117.308L103.035 118.777L102.19 119.387L101.223 117.78L100.262 119.337L99.4122 118.75L100.574 117.242L100.573 117.243Z" fill="white"/>
<path d="M107.553 119.771H104.418V118.523H107.553V119.771Z" fill="white"/>
<path d="M110.07 117.243L108.392 116.749L108.709 115.768L110.359 116.45L110.259 114.526H111.298L111.193 116.482L112.81 115.817L113.121 116.815L111.42 117.308L112.532 118.777L111.687 119.387L110.72 117.78L109.759 119.337L108.909 118.75L110.071 117.242L110.07 117.243Z" fill="white"/>
<path d="M117.05 119.771H113.915V118.523H117.05V119.771Z" fill="white"/>
<path d="M119.567 117.243L117.889 116.749L118.206 115.768L119.857 116.45L119.756 114.526H120.795L120.69 116.482L122.307 115.817L122.618 116.815L120.917 117.308L122.029 118.777L121.184 119.387L120.218 117.78L119.256 119.337L118.406 118.75L119.568 117.242L119.567 117.243Z" fill="white"/>
<path d="M132.341 125.607H89.1716V137.24H132.341V125.607Z" fill="#457B9D"/>
<path d="M100.029 133.022L100.097 133.32H100.12L100.184 133.029L101.388 128.972H102.558L100.678 134.486H99.539L97.6633 128.972H98.8333L100.03 133.02L100.029 133.022Z" fill="white"/>
<path d="M106.5 132.063H104.21V133.635H106.887V134.486H103.101V128.972H106.879V129.824H104.21V131.21H106.5V132.062V132.063Z" fill="white"/>
<path d="M108.676 132.283V134.487H107.567V128.973H109.652C110.282 128.973 110.775 129.117 111.131 129.403C111.486 129.689 111.664 130.089 111.664 130.601C111.664 130.887 111.59 131.131 111.44 131.335C111.291 131.539 111.072 131.706 110.784 131.831C111.11 131.927 111.345 132.087 111.489 132.313C111.632 132.537 111.703 132.815 111.703 133.146V133.551C111.703 133.705 111.724 133.866 111.766 134.033C111.808 134.202 111.879 134.326 111.98 134.407V134.486H110.837C110.736 134.406 110.67 134.27 110.64 134.081C110.609 133.892 110.594 133.713 110.594 133.544V133.153C110.594 132.878 110.518 132.665 110.368 132.512C110.217 132.359 110.005 132.282 109.731 132.282H108.676V132.283ZM108.676 131.431H109.633C109.945 131.431 110.177 131.366 110.33 131.234C110.483 131.103 110.56 130.909 110.56 130.651C110.56 130.393 110.483 130.198 110.33 130.049C110.176 129.9 109.95 129.826 109.652 129.826H108.676V131.431V131.431Z" fill="white"/>
<path d="M113.886 134.487H112.777V128.973H113.886V134.487Z" fill="white"/>
<path d="M118.415 132.195H116.099V134.486H114.99V128.972H118.803V129.824H116.099V131.343H118.415V132.194V132.195Z" fill="white"/>
<path d="M121.405 131.514H121.427L122.635 128.973H123.85L121.952 132.548V134.487H120.848V132.491L118.983 128.973H120.198L121.406 131.514H121.405Z" fill="white"/>
<path d="M178.812 108.107C179.63 108.769 180.55 109.293 181.547 109.683" stroke="#929FF7" stroke-width="5" stroke-linecap="round" stroke-linejoin="round"/>
<path d="M187.831 110.453C194.898 109.784 203.077 104.552 207.485 95.0765C213.509 82.1286 212.946 47.1773 193.189 34.1417C188.28 30.9032 174.747 29.9964 170.837 36.0175C165.902 43.6185 180.991 48.7593 181.587 34.0376C182.659 7.55845 110.788 -14.0217 94.4632 14.7097C85.5921 30.3238 108.106 36.0164 105.963 19.215C103.02 -3.84413 66.4026 1.06513 55.4728 9.65557C45.0297 17.8635 23.0042 42.9178 38.1764 67.2193" stroke="#457B9D" stroke-linecap="round" stroke-linejoin="round"/>
<path d="M39.9733 69.857C40.5849 70.6842 41.2425 71.5094 41.9471 72.3325" stroke="#457B9D" stroke-linecap="round" stroke-linejoin="round"/>
<path d="M40.1604 68.5616L38.1825 68.8023L38.4699 71.0137L56.3257 79.192L40.1604 68.5616Z" fill="#999FBE"/>
<path d="M40.679 65.4741L56.3257 79.192L38.1661 68.8421L40.679 65.4741Z" fill="#457B9D"/>
<path d="M32.5084 74.4011L56.3257 79.192L37.2733 70.1028L32.5084 74.4011Z" fill="#457B9D"/>
<path d="M154.018 34.2549L153.898 52.0468C153.86 57.7384 147.686 62.6885 143.853 65.216C142.124 66.3554 140.871 67.0031 140.871 67.0031C140.871 67.0031 140.067 66.5849 138.86 65.829C135.239 63.5595 128.004 58.2474 128.045 52.0539L128.165 34.2621C129.571 34.2621 139.23 31.5132 140.876 31.0419C141.03 30.9981 141.114 30.9736 141.114 30.9736C141.114 30.9736 152.48 34.2549 154.019 34.2549H154.018Z" fill="#ABB2DA"/>
<g opacity="0.4">
<path d="M154.721 33.3645L154.594 52.2314C154.554 58.2668 148.047 63.5167 144.006 66.1973C142.018 67.2744 140.614 67.8813 140.614 67.8813L140.868 29.9577C141.031 29.9108 141.119 29.8853 141.119 29.8853C141.119 29.8853 153.1 33.3655 154.72 33.3655L154.721 33.3645Z" fill="#457B9D"/>
</g>
<path d="M140.24 50.7779C140.24 50.7779 145.15 43.3595 149.092 41.5041C150.991 40.6106 150.578 42.2466 148.588 43.9868C144.554 47.5129 140.972 57.8904 139.497 54.4866C136.338 47.2008 131.334 45.8411 133.124 45.0374C136.338 43.5951 140.24 50.7779 140.24 50.7779V50.7779Z" fill="white"/>
<path d="M140.863 69.5021C140.638 69.5021 140.412 69.448 140.208 69.3409C140.171 69.3215 139.293 68.8615 137.988 68.0383C133.465 65.1854 125.884 59.3388 125.932 52.2294L126.057 33.6103C126.061 32.9932 126.468 32.4495 127.061 32.27C128.217 31.9202 132.014 30.8961 135.362 29.9934C137.629 29.3824 139.772 28.8051 140.478 28.6011L140.727 28.5287C140.976 28.4573 141.239 28.4542 141.488 28.5215C141.98 28.6531 153.567 31.758 155.156 32.269C155.743 32.4577 156.14 33.0054 156.136 33.6205L156.011 52.2396C155.99 55.2496 154.594 58.3341 151.861 61.4073C149.575 63.9757 146.755 66.0677 144.792 67.3703C142.928 68.6065 141.575 69.3123 141.519 69.3409C141.314 69.447 141.09 69.5 140.865 69.5L140.863 69.5021ZM128.877 34.6823L128.759 52.2488C128.719 58.2107 136.257 63.6105 139.499 65.6556C140.049 66.0024 140.519 66.2809 140.865 66.4798C141.405 66.1718 142.241 65.675 143.223 65.0243C146.926 62.5681 153.144 57.6384 153.18 52.2233L153.298 34.664C150.404 33.8398 142.907 31.8253 141.131 31.349C140.31 31.5815 138.348 32.1099 136.097 32.7178C133.452 33.4308 130.525 34.2203 128.875 34.6833L128.877 34.6823Z" fill="#457B9D"/>
<path d="M195.084 98.5882L173.356 97.5852L172.725 111.169L194.453 112.172L195.084 98.5882Z" fill="white" stroke="#ABB2DA" stroke-linecap="round" stroke-linejoin="round"/>
<path d="M185.188 105.035L194.443 112.188" stroke="#ABB2DA" stroke-linecap="round" stroke-linejoin="round"/>
<path d="M172.715 111.183L182.594 104.914" stroke="#ABB2DA" stroke-linecap="round" stroke-linejoin="round"/>
<path d="M173.347 97.599L183.858 105.703L195.075 98.6037" stroke="#ABB2DA" stroke-linecap="round" stroke-linejoin="round"/>
<path d="M168.203 99.1239H173.275" stroke="#ABB2DA" stroke-linecap="round" stroke-linejoin="round"/>
<path d="M166.236 103.129H173.03" stroke="#ABB2DA" stroke-linecap="round" stroke-linejoin="round"/>
<path d="M162.547 108.279H172.711" stroke="#ABB2DA" stroke-linecap="round" stroke-linejoin="round"/>
<path d="M32.9932 108.347L16.425 108.39L16.4522 118.745L33.0204 118.702L32.9932 108.347Z" stroke="#ABB2DA" stroke-linecap="round" stroke-linejoin="round"/>
<path d="M33.8792 109.226L17.311 109.269L17.3382 119.624L33.9063 119.581L33.8792 109.226Z" fill="white" stroke="#ABB2DA" stroke-linecap="round" stroke-linejoin="round"/>
<path d="M25.6285 119.491L33.4217 119.471L29.5169 116.286L25.6111 113.102L21.7227 116.307L17.8353 119.513L25.6285 119.491Z" stroke="#ABB2DA" stroke-linecap="round" stroke-linejoin="round"/>
<path d="M25.6009 109.264L33.5076 109.243L29.563 112.385L25.6173 115.525L21.6563 112.405L17.6942 109.285L25.6009 109.264Z" fill="white" stroke="#ABB2DA" stroke-linecap="round" stroke-linejoin="round"/>
<path d="M25.1713 126.53C32.1188 126.53 37.7509 120.913 37.7509 113.984C37.7509 107.055 32.1188 101.438 25.1713 101.438C18.2239 101.438 12.5918 107.055 12.5918 113.984C12.5918 120.913 18.2239 126.53 25.1713 126.53Z" stroke="#ABB2DA" stroke-linecap="round" stroke-linejoin="round"/>
<path d="M24.8134 103.631C26.056 103.631 27.0634 102.627 27.0634 101.387C27.0634 100.148 26.056 99.1432 24.8134 99.1432C23.5707 99.1432 22.5634 100.148 22.5634 101.387C22.5634 102.627 23.5707 103.631 24.8134 103.631Z" fill="white" stroke="#ABB2DA" stroke-linecap="round" stroke-linejoin="round"/>
<path d="M19.1372 99.0922L21.8986 100.316" stroke="#ABB2DA" stroke-linecap="round" stroke-linejoin="round"/>
<path d="M21.2001 96.6402L23.0072 98.8933" stroke="#ABB2DA" stroke-linecap="round" stroke-linejoin="round"/>
<path d="M30.8822 99.0922L28.1208 100.316" stroke="#ABB2DA" stroke-linecap="round" stroke-linejoin="round"/>
<path d="M28.8204 96.6402L27.0122 98.8933" stroke="#ABB2DA" stroke-linecap="round" stroke-linejoin="round"/>
<path d="M24.7622 95.7262V98.2762" stroke="#ABB2DA" stroke-linecap="round" stroke-linejoin="round"/>
<path d="M205.639 153.349H181.101C178.83 153.349 176.988 151.512 176.988 149.247L169.88 142.348L176.988 142.865C176.988 140.599 178.83 138.762 181.101 138.762H205.639C207.91 138.762 209.752 140.599 209.752 142.865V149.247C209.752 151.512 207.91 153.349 205.639 153.349V153.349Z" stroke="#ABB2DA" stroke-linecap="round" stroke-linejoin="round"/>
<path d="M202.311 148.15C203.47 148.15 204.41 147.213 204.41 146.056C204.41 144.9 203.47 143.962 202.311 143.962C201.151 143.962 200.211 144.9 200.211 146.056C200.211 147.213 201.151 148.15 202.311 148.15Z" fill="#ABB2DA"/>
<path d="M193.626 148.15C194.785 148.15 195.725 147.213 195.725 146.056C195.725 144.9 194.785 143.962 193.626 143.962C192.466 143.962 191.526 144.9 191.526 146.056C191.526 147.213 192.466 148.15 193.626 148.15Z" fill="#ABB2DA"/>
<path d="M184.94 148.15C186.099 148.15 187.039 147.213 187.039 146.056C187.039 144.9 186.099 143.962 184.94 143.962C183.78 143.962 182.84 144.9 182.84 146.056C182.84 147.213 183.78 148.15 184.94 148.15Z" fill="#ABB2DA"/>
</svg>
