<svg width="255" height="342" viewBox="0 0 255 342" fill="none" xmlns="http://www.w3.org/2000/svg">
<path opacity="0.29" d="M128.125 269.406C194.194 269.406 247.753 264.992 247.753 259.547C247.753 254.103 194.194 249.689 128.125 249.689C62.0567 249.689 8.49768 254.103 8.49768 259.547C8.49768 264.992 62.0567 269.406 128.125 269.406Z" fill="#457B9D"/>
<path d="M105.122 10.155C98.0963 16.3907 94.2992 25.4365 96.819 34.9584C98.5028 41.345 102.625 48.0684 99.7684 54.0021C97.2835 59.0882 90.9084 60.621 86.3333 63.9653C83.8479 65.7829 81.858 68.1946 80.5454 70.9798C79.2328 73.7651 78.6395 76.835 78.8197 79.9087C78.9999 82.9825 79.9478 85.962 81.5769 88.5748C83.2059 91.1876 85.464 93.3503 88.1447 94.865C91.28 96.6301 95.0307 97.559 97.4344 100.265C100.221 103.435 100.303 108.056 101.15 112.19C103.914 125.625 117.21 136.076 130.924 135.565C136.73 135.356 142.861 132.999 145.601 127.913C147.645 124.151 147.552 119.378 150.165 115.976C153.765 111.331 160.616 111.273 166.166 109.264C169.482 108.06 172.448 106.052 174.799 103.421C177.149 100.789 178.81 97.6165 179.634 94.1859C180.458 90.7553 180.418 87.174 179.519 83.7625C178.619 80.3509 176.888 77.2155 174.481 74.6368C171.427 71.3738 167.397 69.1095 164.482 65.7187C160.743 61.3642 159.176 55.4885 158.851 49.7521C158.526 44.0158 159.304 38.2794 159.698 32.5546C160.325 23.474 159.698 11.7458 151.825 5.74238C139.586 -3.54727 120.473 -0.562964 108.477 7.56548C107.302 8.35244 106.181 9.21755 105.122 10.155Z" fill="#2E548A"/>
<path d="M106.782 14.0915C100.245 19.8975 96.7029 28.3279 99.0485 37.1995C100.616 43.1449 104.495 49.4154 101.789 54.9427C99.4665 59.6805 93.5328 61.1087 89.2828 64.2324C86.9655 65.9249 85.1095 68.1714 83.8846 70.7664C82.6597 73.3615 82.1051 76.2222 82.2714 79.087C82.4378 81.9518 83.3197 84.7291 84.8367 87.165C86.3537 89.6008 88.4573 91.6174 90.955 93.0303C93.8812 94.6792 97.3764 95.5501 99.5943 98.0699C102.195 101.019 102.277 105.316 103.078 109.171C105.644 121.701 118.046 131.431 130.819 130.955C136.196 130.758 141.944 128.563 144.498 123.826C146.391 120.342 146.31 115.871 148.748 112.701C152.092 108.358 158.491 108.323 163.646 106.442C166.737 105.322 169.502 103.453 171.693 101.002C173.884 98.5518 175.434 95.596 176.202 92.3996C176.971 89.2033 176.935 85.8663 176.097 82.6873C175.26 79.5084 173.647 76.5867 171.403 74.1839C168.558 71.1416 164.808 69.0282 162.114 65.8697C158.63 61.8171 157.167 56.3478 156.853 50.9946C156.54 45.6415 157.283 40.3115 157.643 34.97C158.235 26.5164 157.701 15.5778 150.316 9.98081C138.913 1.35304 121.135 4.10508 109.929 11.6878C108.826 12.4161 107.775 13.2192 106.782 14.0915Z" fill="#1D3557"/>
<path d="M105.621 107.662L88.1331 128.993L82.5477 135.809L60.508 162.691L52.7163 144.495L58.9404 134.671L72.9446 112.55L73.5019 111.679L89.5731 86.2605L104.518 106.187L105.621 107.662Z" fill="#FFC9B9"/>
<path d="M105.621 107.662L88.1331 129.005L82.5477 135.809C77.385 129.033 74.0755 121.029 72.9446 112.585L73.5019 111.714L89.5731 86.2953L104.518 106.222L105.621 107.662Z" fill="#FFAB90"/>
<path d="M105.621 107.662L88.1332 129.005C86.127 127.845 84.3326 126.353 82.8265 124.592C79.358 120.568 76.2495 116.247 73.5369 111.679L89.6079 86.2605L104.553 106.187L105.621 107.662Z" fill="#457B9D"/>
<path d="M82.8148 124.592C84.327 126.347 86.1203 127.838 88.1215 129.005L105.621 107.65L104.518 106.175C96.5055 111.563 88.9228 117.509 82.8148 124.592Z" fill="#2E5269"/>
<path d="M60.8447 141.116C55.7528 122.462 47.8722 104.685 37.4697 88.3855C35.4608 90.1157 32.8248 90.7892 30.8043 92.5078C34.0789 110.309 37.2606 127.646 40.5352 145.436C41.3713 150.011 42.2539 154.725 44.4369 158.627C45.9623 161.661 48.5803 164.006 51.7642 165.188C53.3096 165.677 54.9657 165.697 56.5223 165.244C58.079 164.791 59.4661 163.887 60.508 162.645C62.5517 160.183 63.2369 156.513 62.993 153.088C62.612 149.044 61.8933 145.04 60.8447 141.116Z" fill="#FFC9B9"/>
<path d="M38.4218 89.059C37.2343 86.934 35.6309 85.0699 33.7073 83.5781L25.3815 82.893C23.6165 83.4968 21.8979 84.2864 20.0748 84.9367C19.9836 84.9707 19.9027 85.0276 19.8398 85.1018C19.7768 85.1761 19.734 85.2653 19.7154 85.3608C19.6967 85.4563 19.7029 85.555 19.7333 85.6475C19.7637 85.74 19.8173 85.8231 19.889 85.8889C21.8631 87.6423 23.4887 87.3636 26.1595 85.9586C30.3863 87.3172 29.6431 90.824 31.9655 91.5324C33.1653 91.8394 34.4309 91.7663 35.5873 91.3232C36.7438 90.8802 37.7342 90.089 38.4218 89.059Z" fill="#FFC9B9"/>
<path d="M29.0742 90.4524L20.8645 91.7762C19.0414 90.9518 15.9758 90.2666 14.1527 89.4538C15.9484 88.522 17.5706 87.2887 18.9485 85.8076C19.0133 85.7326 19.0529 85.6392 19.0621 85.5405C19.0712 85.4419 19.0493 85.3428 18.9995 85.2571C18.9496 85.1715 18.8743 85.1035 18.784 85.0628C18.6937 85.022 18.5929 85.0104 18.4956 85.0296C16.0881 85.3514 13.7408 86.0243 11.5284 87.0269C11.2888 87.1463 11.0827 87.3235 10.9287 87.5424C10.7746 87.7614 10.6774 88.0152 10.6459 88.281C10.5065 89.3377 10.5182 90.2086 10.4717 91.184C10.4574 91.4744 10.5196 91.7634 10.652 92.0222C10.7845 92.281 10.9826 92.5005 11.2265 92.6587C13.1065 93.7416 15.1437 94.5251 17.2648 94.9812C21.1097 95.9435 25.1153 96.078 29.0162 95.376L29.0742 90.4524Z" fill="#FFC9B9"/>
<path d="M15.07 96.5836C14.1962 94.7102 13.9479 92.6055 14.3617 90.5802C16.0687 89.419 36.4247 86.423 37.3188 87.3172C38.2129 88.2113 40.8024 92.6703 40.454 93.7967C40.0011 95.2598 40.1057 96.9436 38.7935 97.4893C33.113 99.5114 27.2362 100.932 21.2593 101.728C18.0195 102.111 16.5912 99.7537 15.07 96.5836Z" fill="#FFC9B9"/>
<path d="M22.7804 91.4511L10.7038 93.1813C7.86086 92.0707 4.83796 91.4921 1.78579 91.4743C1.14713 91.4743 0.403939 91.5556 0.102025 91.9736C0.00947247 92.136 -0.0214709 92.3263 0.0147784 92.5097C0.0510276 92.6931 0.152097 92.8573 0.299481 92.9723C0.620963 93.2473 0.985896 93.4671 1.3794 93.6225C3.44634 94.5631 7.91696 95.5153 9.98391 96.4559C14.861 96.0727 17.5434 96.4559 22.0953 95.1437C22.7989 94.9733 23.4619 94.6655 24.0462 94.238C24.3063 94.0717 24.5106 93.8312 24.6327 93.5476C24.7549 93.2641 24.7892 92.9504 24.7312 92.6471C24.5518 92.2842 24.2735 91.9794 23.9283 91.7677C23.5832 91.5561 23.1853 91.4463 22.7804 91.4511Z" fill="#FFC9B9"/>
<path d="M24.5455 94.4702L12.4805 96.2004C9.63695 95.0919 6.61443 94.5133 3.56247 94.4934C2.9238 94.4934 2.16901 94.5747 1.8787 94.9928C1.78724 95.1545 1.7557 95.3433 1.78969 95.5259C1.82367 95.7086 1.92096 95.8734 2.06447 95.9914C2.39021 96.2665 2.75898 96.4862 3.156 96.6417C5.22295 97.5822 9.69364 98.5344 11.7606 99.475C16.626 99.0918 19.3084 99.475 23.872 98.1745C24.5746 97.9953 25.2366 97.6839 25.8228 97.2571C26.0808 97.0892 26.2827 96.8481 26.4028 96.5647C26.5228 96.2812 26.5554 95.9684 26.4963 95.6663C26.3191 95.3016 26.0413 94.9952 25.6956 94.7832C25.35 94.5713 24.9509 94.4627 24.5455 94.4702Z" fill="#FFC9B9"/>
<path d="M27.9826 96.99L15.8828 98.7086C13.0399 97.598 10.017 97.0194 6.96479 97.0016C6.33773 97.0016 5.58295 97.0829 5.29264 97.5009C5.20118 97.6627 5.16964 97.8514 5.20363 98.0341C5.23761 98.2168 5.3349 98.3816 5.47841 98.4996C5.80415 98.7747 6.17292 98.9944 6.56994 99.1499C8.63689 100.09 13.1076 101.043 15.1629 101.983C20.04 101.6 22.7224 101.983 27.2859 100.671C27.9879 100.496 28.6499 100.188 29.2367 99.7653C29.4946 99.5944 29.6961 99.3511 29.8159 99.066C29.9358 98.7808 29.9686 98.4666 29.9102 98.1628C29.7283 97.8086 29.4519 97.5117 29.1118 97.3047C28.7716 97.0977 28.3808 96.9888 27.9826 96.99Z" fill="#FFC9B9"/>
<path d="M36.506 91.2537C34.6034 91.8061 32.6012 91.926 30.6463 91.6045C28.6913 91.2831 26.833 90.5284 25.2075 89.3957C24.7662 89.0822 24.3134 89.7905 24.7546 90.0925C26.472 91.2892 28.4349 92.0875 30.5001 92.429C32.5652 92.7705 34.6806 92.6467 36.6918 92.0665C37.2143 91.9155 37.0286 91.1027 36.506 91.2537Z" fill="#FFAB90"/>
<path d="M200.225 144.495L163.379 86.2605L147.332 107.65L192.444 162.691L200.225 144.495Z" fill="#FFC9B9"/>
<path d="M163.356 86.2605L179.985 112.539C178.849 120.981 175.54 128.984 170.381 135.763L147.332 107.65L163.356 86.2605Z" fill="#FFAB90"/>
<path d="M163.356 86.2605L148.412 106.187L147.308 107.662L164.796 129.005C166.802 127.845 168.597 126.353 170.103 124.592C173.571 120.568 176.68 116.247 179.393 111.679L163.356 86.2605Z" fill="#457B9D"/>
<path d="M170.138 124.592C168.625 126.347 166.832 127.838 164.831 129.005L147.332 107.65L148.435 106.175C156.459 111.563 164.03 117.509 170.138 124.592Z" fill="#2E5269"/>
<path d="M192.108 141.116C197.2 122.462 205.08 104.685 215.483 88.3855C217.492 90.1157 220.128 90.7892 222.148 92.5078C218.874 110.309 215.692 127.646 212.417 145.436C211.581 150.011 210.699 154.725 208.516 158.627C206.99 161.661 204.372 164.006 201.188 165.188C199.643 165.676 197.987 165.695 196.431 165.242C194.875 164.789 193.487 163.885 192.444 162.645C190.401 160.183 189.716 156.514 189.959 153.088C190.34 149.044 191.059 145.04 192.108 141.116Z" fill="#FFC9B9"/>
<path d="M214.531 89.059C215.718 86.934 217.322 85.0699 219.245 83.5781L227.583 82.893C229.336 83.4968 231.066 84.2864 232.878 84.9367C232.969 84.9707 233.05 85.0276 233.113 85.1018C233.176 85.1761 233.219 85.2653 233.237 85.3608C233.256 85.4563 233.25 85.555 233.219 85.6475C233.189 85.74 233.135 85.8231 233.064 85.8889C231.089 87.6423 229.464 87.3636 226.793 85.9586C222.566 87.3172 223.309 90.824 220.987 91.5324C219.787 91.8394 218.522 91.7663 217.365 91.3232C216.209 90.8802 215.218 90.089 214.531 89.059Z" fill="#FFC9B9"/>
<path d="M223.89 90.4524L232.088 91.7762C233.911 90.9518 236.977 90.2666 238.8 89.4538C237.006 88.5191 235.384 87.2861 234.004 85.8076C233.939 85.7326 233.9 85.6392 233.89 85.5405C233.881 85.4419 233.903 85.3428 233.953 85.2571C234.003 85.1715 234.078 85.1035 234.169 85.0628C234.259 85.022 234.36 85.0104 234.457 85.0296C236.845 85.357 239.172 86.0298 241.366 87.0269C241.606 87.1463 241.812 87.3235 241.966 87.5424C242.12 87.7614 242.217 88.0152 242.249 88.281C242.388 89.3377 242.376 90.2086 242.423 91.184C242.437 91.4744 242.375 91.7634 242.242 92.0222C242.11 92.281 241.912 92.5005 241.668 92.6587C239.788 93.7416 237.751 94.5251 235.63 94.9812C231.789 95.9432 227.787 96.0778 223.89 95.376V90.4524Z" fill="#FFC9B9"/>
<path d="M237.882 96.5836C238.762 94.7118 239.01 92.6052 238.591 90.5802C236.884 89.419 216.528 86.423 215.645 87.3172C214.763 88.2113 212.162 92.6703 212.499 93.7967C212.951 95.2598 212.858 96.9436 214.159 97.4893C219.839 99.5114 225.716 100.932 231.693 101.728C234.933 102.111 236.373 99.7537 237.882 96.5836Z" fill="#FFC9B9"/>
<path d="M230.172 91.4511L242.249 93.1813C245.092 92.0707 248.115 91.4921 251.167 91.4743C251.805 91.4743 252.549 91.5556 252.85 91.9736C252.942 92.1353 252.973 92.3241 252.939 92.5068C252.905 92.6894 252.808 92.8543 252.665 92.9723C252.337 93.2449 251.969 93.4643 251.573 93.6225C249.506 94.5631 245.036 95.5153 242.969 96.4559C238.103 96.0727 235.409 96.4559 230.857 95.1437C230.154 94.9733 229.491 94.6655 228.906 94.238C228.649 94.0695 228.446 93.8287 228.324 93.5458C228.202 93.2628 228.166 92.9503 228.221 92.6471C228.401 92.2842 228.679 91.9794 229.024 91.7677C229.369 91.5561 229.767 91.4463 230.172 91.4511Z" fill="#FFC9B9"/>
<path d="M228.384 94.4702L240.46 96.2004C243.3 95.091 246.319 94.5124 249.367 94.4934C250.005 94.4934 250.76 94.5747 251.051 94.9928C251.142 95.1545 251.174 95.3433 251.14 95.5259C251.106 95.7086 251.008 95.8734 250.865 95.9914C250.539 96.2665 250.17 96.4862 249.773 96.6417C247.706 97.5822 243.236 98.5344 241.169 99.475C236.303 99.0918 233.621 99.475 229.057 98.1745C228.357 97.9904 227.695 97.6794 227.107 97.2571C226.848 97.0892 226.646 96.8481 226.526 96.5647C226.406 96.2812 226.374 95.9684 226.433 95.6663C226.611 95.3024 226.889 94.9968 227.235 94.7851C227.58 94.5733 227.979 94.4641 228.384 94.4702Z" fill="#FFC9B9"/>
<path d="M224.97 96.99L237.046 98.7202C239.889 97.6097 242.912 97.031 245.964 97.0133C246.591 97.0133 247.346 97.0945 247.648 97.5126C247.736 97.6761 247.764 97.8651 247.728 98.0473C247.692 98.2294 247.594 98.3934 247.451 98.5112C247.127 98.7889 246.758 99.0088 246.359 99.1615C244.292 100.102 239.822 101.054 237.766 101.995C232.889 101.612 230.207 101.995 225.655 100.683C224.949 100.51 224.282 100.202 223.693 99.7769C223.435 99.6061 223.233 99.3627 223.113 99.0776C222.993 98.7925 222.961 98.4782 223.019 98.1745C223.201 97.8146 223.48 97.5129 223.825 97.3036C224.17 97.0942 224.566 96.9856 224.97 96.99Z" fill="#FFC9B9"/>
<path d="M216.447 91.2537C218.349 91.8069 220.351 91.9273 222.307 91.6058C224.262 91.2843 226.12 90.5291 227.745 89.3957C228.186 89.0822 228.639 89.7905 228.198 90.0925C226.481 91.2892 224.518 92.0875 222.453 92.429C220.387 92.7705 218.272 92.6467 216.261 92.0665C215.75 91.9155 215.924 91.1027 216.447 91.2537Z" fill="#FFAB90"/>
<path d="M164.006 177.578C161.283 173.407 158.214 169.472 154.833 165.815C149.758 165.524 110.707 165.548 106.062 165.815C101.448 170.814 97.4121 176.318 94.0321 182.223C117.398 186.189 141.37 184.598 164.006 177.578Z" fill="#FFC9B9"/>
<path d="M89.5731 86.2605C89.5731 86.2605 123.039 71.1648 163.379 86.2605L154.833 165.815C134.105 174.141 106.062 165.815 106.062 165.815L89.5731 86.2605Z" fill="#457B9D"/>
<path d="M213.834 188.249C212.673 185.161 209.27 183.384 205.984 183.233C202.698 183.082 199.493 184.243 196.451 185.486C188.509 188.73 180.853 192.634 173.563 197.156C171.251 190.238 168.038 183.656 164.006 177.578C141.384 184.59 117.43 186.181 94.0786 182.223C91.3404 186.958 89.0952 191.962 87.3784 197.156C80.0869 192.636 72.4312 188.733 64.491 185.486C61.437 184.243 58.2438 183.082 54.9575 183.233C51.6713 183.384 48.2458 185.161 47.1078 188.249C45.5452 192.212 45.5911 196.628 47.2355 200.558C49.1789 204.231 51.6955 207.571 54.6904 210.452C64.1078 220.345 74.5123 229.449 86.4495 236.079C98.3867 242.71 111.996 246.797 125.605 246.298C125.536 242.547 125.675 242.547 125.605 246.298C139.25 246.797 162.543 242.71 174.492 236.079C186.441 229.449 196.834 220.345 206.251 210.452C209.246 207.571 211.763 204.231 213.706 200.558C215.351 196.628 215.396 192.212 213.834 188.249Z" fill="#457B9D"/>
<path d="M46.0743 193.649C45.8861 196.012 46.285 198.386 47.2355 200.558C49.1789 204.231 51.6955 207.571 54.6904 210.452C64.1078 220.345 74.5123 229.449 86.4495 236.079C98.3867 242.71 111.996 246.797 125.605 246.298C125.536 242.547 125.675 242.547 125.605 246.298C139.25 246.797 162.543 242.71 174.492 236.079C186.441 229.449 196.834 220.345 206.251 210.452C209.246 207.571 211.763 204.231 213.706 200.558C215.351 196.628 215.396 192.212 213.834 188.249C213.426 187.191 212.764 186.25 211.906 185.509C192.723 191.559 175.607 204.762 159.327 218.417C152.865 223.834 144.818 227.004 136.398 227.448C127.978 227.892 119.642 225.586 112.646 220.879C92.2439 207.107 68.6598 196.029 46.0743 193.649Z" fill="#2E5269"/>
<path d="M122.133 61.4803L121.553 76.367C121.499 77.2578 121.265 78.1285 120.866 78.9267C120.467 79.7249 119.911 80.4342 119.23 81.0118C119.073 81.1453 118.933 81.2973 118.812 81.4647C118.508 81.9095 118.302 82.414 118.208 82.9445C118.114 83.4751 118.134 84.0196 118.266 84.5419C118.545 85.5521 128.218 102.483 133.362 98.0816C134.152 97.4081 139.041 86.0631 139.493 85.0296C139.738 84.4994 139.87 83.9241 139.879 83.3404C139.889 82.7566 139.778 82.1771 139.551 81.6389C139.409 81.3484 139.203 81.0943 138.948 80.8957C137.551 79.8929 136.562 78.4216 136.161 76.7502C135.245 71.8897 134.748 66.9598 134.674 62.0145L122.133 61.4803Z" fill="#FFC9B9"/>
<path d="M132.41 71.7454C133.444 71.5498 134.43 71.1555 135.313 70.5842C134.988 67.716 134.802 64.7782 134.756 61.9332L122.133 61.4339C122.052 63.4312 121.982 65.4168 121.901 67.4141C124.955 69.6901 128.822 72.326 132.41 71.7454Z" fill="#FFAB90"/>
<path d="M114.76 43.2261C113.976 42.8235 113.133 42.5491 112.263 42.4133C111.817 42.3564 111.364 42.4092 110.943 42.567C110.522 42.7249 110.146 42.983 109.848 43.319C109.573 43.7438 109.414 44.2334 109.388 44.7387C109.361 45.2441 109.468 45.7475 109.697 46.1988C110.08 47.0563 110.7 47.7869 111.484 48.3051C112.267 48.8233 113.182 49.1077 114.121 49.125L114.76 43.2261Z" fill="#FFAB90"/>
<path d="M143.093 43.2261C143.892 42.822 144.751 42.5476 145.636 42.4133C146.082 42.3564 146.535 42.4092 146.956 42.567C147.377 42.7249 147.753 42.983 148.052 43.319C148.33 43.7425 148.49 44.2324 148.517 44.7385C148.544 45.2445 148.435 45.7485 148.202 46.1988C147.82 47.0571 147.201 47.7885 146.417 48.3068C145.633 48.8252 144.718 49.1091 143.778 49.125L143.093 43.2261Z" fill="#FFAB90"/>
<path d="M129.263 66.2296C124.827 66.427 115.491 61.0274 114.342 52.4577L113.691 47.209L112.193 37.4317C112.136 35.1618 112.536 32.9034 113.37 30.7915C114.204 28.6795 115.454 26.7572 117.048 25.1392C118.641 23.5212 120.543 22.2406 122.642 21.374C124.741 20.5073 126.993 20.0723 129.263 20.0949C130.424 33.8784 146.333 27.8517 146.333 37.4317L144.22 49.8334C144.127 50.4139 144.069 50.9994 144.045 51.5868C143.5 60.6326 134.814 65.9858 129.263 66.2296Z" fill="#FFC9B9"/>
<path d="M132.131 58.4611C130.073 59.0357 127.896 59.0357 125.838 58.4611C125.454 58.3566 125.269 58.9488 125.652 59.0534C127.817 59.6571 130.106 59.6571 132.271 59.0534C132.654 58.9605 132.515 58.3566 132.131 58.4611Z" fill="#FFAB90"/>
<path d="M123.295 41.8907C121.291 42.6138 119.092 42.5724 117.117 41.7746C116.745 41.6237 116.56 42.2159 116.92 42.3668C119.003 43.203 121.32 43.2484 123.434 42.4946C123.794 42.4133 123.666 41.7514 123.295 41.8907Z" fill="#1D3557"/>
<path d="M141.804 41.8907C139.801 42.6138 137.601 42.5724 135.627 41.7746C135.255 41.6237 135.069 42.2159 135.429 42.3668C137.512 43.203 139.829 43.2484 141.944 42.4946C142.304 42.4133 142.176 41.7514 141.804 41.8907Z" fill="#1D3557"/>
<path d="M195.556 187.076C170.521 207.7 139.482 235.383 114.446 255.994C118.325 263.879 117.187 263.043 121.077 270.927C149.573 260.476 184.838 245.799 207.447 225.547C211.546 221.878 215.576 218.023 218.432 213.343C221.289 208.663 222.961 203.02 221.916 197.62C221.355 194.744 220.084 192.054 218.218 189.795C216.352 187.535 213.951 185.779 211.233 184.684C208.65 183.617 205.824 183.276 203.062 183.698C200.299 184.119 197.704 185.288 195.556 187.076Z" fill="#FFB59E"/>
<path d="M114.446 255.994C118.325 263.879 117.187 263.043 121.077 270.927C136.446 265.419 151.516 259.109 166.224 252.023C155.019 250.176 144.336 246.077 135.394 238.379C128.137 244.568 121.077 250.536 114.446 255.994Z" fill="#FFAB90"/>
<path d="M221.962 197.62C221.402 194.744 220.13 192.054 218.265 189.795C216.399 187.535 213.997 185.779 211.279 184.684C208.69 183.608 205.856 183.262 203.084 183.684C200.312 184.105 197.708 185.279 195.556 187.076C177.151 202.23 155.518 221.193 135.394 238.379C144.336 246.077 155.019 250.176 166.224 252.023C181.517 244.498 196.079 235.766 207.447 225.547C211.546 221.878 215.576 218.023 218.432 213.343C221.289 208.663 222.961 203.02 221.962 197.62Z" fill="#FFC9B9"/>
<path d="M115.05 256.366L114.446 255.994L85.6366 268.442C84.667 268.865 83.7478 269.394 82.8962 270.021C81.4118 271.092 80.1576 272.449 79.2082 274.014C78.2589 275.578 77.6336 277.318 77.3696 279.128C77.1056 280.939 77.2084 282.785 77.6716 284.555C78.1349 286.326 78.9492 287.985 80.0662 289.434C81.1833 290.884 82.5804 292.094 84.1743 292.993C85.7683 293.892 87.5267 294.461 89.3451 294.667C91.1634 294.873 93.0046 294.712 94.7593 294.192C96.514 293.673 98.1464 292.806 99.5595 291.643C99.9047 291.376 100.234 291.089 100.546 290.784L121.077 270.927C121.737 268.175 121.51 265.284 120.428 262.668C119.345 260.052 117.463 257.846 115.05 256.366Z" fill="#1D3557"/>
<path d="M65.3852 187.077C90.4208 207.7 121.46 235.383 146.495 255.994C142.605 263.879 143.639 262.543 139.76 270.428C111.253 259.977 76.1031 245.799 53.4944 225.547C49.3954 221.878 45.366 218.023 42.5094 213.343C39.6528 208.663 37.9807 203.02 39.0258 197.62C39.5865 194.744 40.8576 192.054 42.7235 189.795C44.5894 187.536 46.9907 185.779 49.7089 184.684C52.2919 183.617 55.1174 183.276 57.8801 183.698C60.6429 184.119 63.238 185.288 65.3852 187.077Z" fill="#FFC9B9"/>
<path d="M178.034 270.01C177.186 269.378 176.266 268.848 175.294 268.431L146.496 255.982L145.892 256.354C143.476 257.832 141.592 260.038 140.509 262.654C139.426 265.271 139.201 268.163 139.865 270.916L160.395 290.772C160.707 291.077 161.037 291.364 161.382 291.632C162.802 292.725 164.423 293.528 166.153 293.995C167.883 294.462 169.688 294.583 171.465 294.352C173.242 294.122 174.956 293.543 176.51 292.65C178.063 291.757 179.426 290.566 180.519 289.147C181.612 287.727 182.415 286.106 182.882 284.376C183.349 282.646 183.471 280.841 183.24 279.064C183.009 277.287 182.431 275.572 181.537 274.019C180.644 272.466 179.454 271.103 178.034 270.01Z" fill="#1D3557"/>
<path d="M129.426 51.4359C129.292 51.5611 129.132 51.6558 128.958 51.7132C128.784 51.7706 128.599 51.7895 128.417 51.7685C128.234 51.7476 128.059 51.6872 127.902 51.5917C127.746 51.4961 127.612 51.3677 127.51 51.2153C127.155 50.5364 126.99 49.7739 127.034 49.009C126.941 46.9768 126.941 44.9447 127.034 42.9126C127.034 42.8017 126.99 42.6954 126.911 42.617C126.833 42.5386 126.726 42.4946 126.616 42.4946C126.505 42.4946 126.398 42.5386 126.32 42.617C126.242 42.6954 126.198 42.8017 126.198 42.9126C126.198 44.2132 126.139 45.5021 126.198 46.8027C126.188 47.9389 126.242 49.0748 126.36 50.205C126.381 50.6303 126.496 51.0456 126.697 51.4211C126.898 51.7966 127.179 52.1229 127.521 52.3765C127.912 52.5944 128.361 52.6837 128.805 52.6316C129.249 52.5795 129.665 52.3886 129.995 52.0862C130.39 51.703 129.821 51.0759 129.426 51.4359Z" fill="#FFAB90"/>
<path d="M132.189 55.3608C131.312 56.2663 130.112 56.787 128.852 56.8088C127.591 56.8305 126.374 56.3516 125.466 55.4769C125.083 55.1053 124.467 55.6743 124.851 56.0459C125.91 57.0799 127.336 57.6538 128.816 57.6429C130.297 57.6321 131.714 57.0373 132.758 55.9878C133.165 55.6046 132.572 54.9776 132.189 55.3608Z" fill="#1D3557"/>
<path d="M157.062 264.552C155.005 265.683 153.291 267.348 152.099 269.371C150.908 271.394 150.284 273.7 150.293 276.048C150.293 276.582 151.14 276.617 151.129 276.048C151.114 273.848 151.693 271.685 152.804 269.786C153.916 267.887 155.52 266.324 157.446 265.261C157.511 265.197 157.554 265.114 157.568 265.024C157.582 264.933 157.566 264.841 157.523 264.761C157.479 264.681 157.411 264.617 157.328 264.579C157.245 264.541 157.151 264.532 157.062 264.552Z" fill="white"/>
<path d="M163.542 267.409C161.176 268.215 159.138 269.77 157.734 271.838C156.331 273.905 155.638 276.374 155.762 278.87C155.762 279.404 156.633 279.45 156.598 278.87C156.469 276.557 157.095 274.265 158.381 272.339C159.666 270.412 161.543 268.955 163.728 268.187C164.239 268.047 164.053 267.235 163.542 267.409Z" fill="white"/>
<path d="M102.068 264.552C104.125 265.682 105.839 267.346 107.029 269.37C108.219 271.394 108.839 273.701 108.826 276.048C108.826 276.582 107.99 276.617 107.99 276.048C108.01 273.847 107.433 271.682 106.321 269.782C105.208 267.883 103.602 266.32 101.673 265.261C101.605 265.197 101.56 265.112 101.546 265.02C101.532 264.928 101.549 264.834 101.594 264.752C101.639 264.671 101.711 264.607 101.796 264.571C101.882 264.535 101.978 264.528 102.068 264.552Z" fill="white"/>
<path d="M95.5882 267.409C97.9536 268.214 99.9918 269.769 101.394 271.837C102.796 273.905 103.485 276.374 103.357 278.87C103.357 279.404 102.497 279.45 102.532 278.87C102.662 276.555 102.035 274.262 100.747 272.335C99.459 270.407 97.5789 268.952 95.3907 268.187C94.8449 268.047 95.0772 267.235 95.5882 267.409Z" fill="white"/>
<path d="M129.008 101.716C124.363 97.4661 119.718 93.0884 116.861 87.3985C116.104 85.8603 115.516 84.2445 115.108 82.5795C115.077 82.4786 115.009 82.3931 114.918 82.3403C114.826 82.2875 114.718 82.2713 114.615 82.2948C114.512 82.3183 114.422 82.3799 114.363 82.4671C114.303 82.5544 114.279 82.6609 114.295 82.7652C115.77 88.9429 119.834 94.0057 124.258 98.3835C125.605 99.7073 126.999 100.996 128.392 102.274C128.775 102.645 129.402 102.076 129.008 101.716Z" fill="#2E5269"/>
<path d="M140.933 87.561C139.308 91.2227 137.69 94.8883 136.079 98.5577C135.859 99.057 136.66 99.3008 136.869 98.8131C138.495 95.1437 140.113 91.4782 141.723 87.8165C141.944 87.3172 141.142 87.0733 140.933 87.561Z" fill="#2E5269"/>
<path d="M188.043 188.551C177.174 193.188 167.235 199.758 158.711 207.943C156.334 210.219 154.079 212.619 151.953 215.131C151.419 215.747 152.441 216.49 152.963 215.874C160.516 206.999 169.617 199.567 179.822 193.939C182.655 192.391 185.566 190.974 188.554 189.689C188.689 189.611 188.789 189.487 188.837 189.339C188.884 189.191 188.875 189.031 188.812 188.89C188.748 188.748 188.635 188.635 188.493 188.573C188.351 188.51 188.191 188.503 188.043 188.551Z" fill="#2E5269"/>
<path d="M113.494 218.429C107.56 211.326 100.729 205.022 93.1729 199.676C90.9898 198.143 88.7487 196.68 86.4611 195.309C85.776 194.891 85.0212 195.913 85.7179 196.32C93.6039 201.048 100.844 206.778 107.258 213.366C109.078 215.255 110.831 217.19 112.519 219.172C113.041 219.846 114.017 219.044 113.494 218.429Z" fill="#2E5269"/>
<path d="M161.092 185.126C145.456 191.259 128.551 193.449 111.868 191.501C107.167 190.954 102.51 190.073 97.9338 188.865C97.1558 188.656 96.6914 189.829 97.4694 190.026C118.714 195.633 141.194 194.315 161.638 186.264C162.358 185.985 161.847 184.835 161.092 185.126Z" fill="#2E5269"/>
<path d="M123.178 213.796C121.224 206.207 120.923 198.287 122.296 190.572C122.435 189.782 121.193 189.643 121.053 190.432C119.655 198.251 119.956 206.278 121.936 213.97C122.133 214.771 123.376 214.585 123.178 213.796Z" fill="#F1FAEE"/>
<path d="M139.389 191.326C138.959 190.641 137.995 191.443 138.413 192.116C140.562 195.597 141.998 199.471 142.638 203.511C143.277 207.552 143.109 211.679 142.141 215.654C141.944 216.432 143.198 216.571 143.383 215.793C144.375 211.654 144.532 207.359 143.847 203.158C143.161 198.957 141.645 194.935 139.389 191.326Z" fill="#F1FAEE"/>
<path d="M142.06 35.806C139.519 34.707 136.645 34.661 134.071 35.6783C133.327 35.9802 133.838 37.1182 134.593 36.8395C135.707 36.4053 136.896 36.1951 138.092 36.221C139.287 36.2469 140.466 36.5084 141.56 36.9905C142.338 37.304 142.791 36.1312 142.06 35.806Z" fill="#1D3557"/>
<path d="M123.027 35.6899C121.702 35.2632 120.3 35.1243 118.916 35.2825C117.533 35.4407 116.199 35.8923 115.004 36.6072C114.855 36.678 114.74 36.8031 114.682 36.9567C114.623 37.1102 114.626 37.2803 114.69 37.4317C114.724 37.5076 114.772 37.576 114.833 37.6329C114.893 37.6898 114.965 37.7342 115.042 37.7633C115.12 37.7925 115.203 37.8059 115.286 37.8028C115.369 37.7997 115.451 37.7801 115.526 37.7452C116.57 37.1041 117.739 36.6937 118.955 36.5415C120.171 36.3893 121.405 36.4988 122.575 36.8627C123.341 37.1066 123.805 35.9338 123.027 35.6899Z" fill="#1D3557"/>
<path d="M106.515 143.287C112.797 144.541 120.345 145.807 126.627 143.287C113.424 139.955 104.135 128.041 96.0758 117.532L106.109 165.815C106.109 165.815 134.105 174.141 154.879 165.815L154.984 164.851C145.726 165.799 136.381 164.307 127.878 160.524C119.374 156.741 112.01 150.799 106.515 143.287Z" fill="#2E5269"/>
<path d="M42.2137 85.3408C42.4506 85.3389 42.6827 85.4076 42.8804 85.538C43.0782 85.6685 43.2326 85.8548 43.3241 86.0733C43.4157 86.2918 43.4401 86.5326 43.3943 86.765C43.3486 86.9975 43.2347 87.211 43.0672 87.3785C42.8997 87.5461 42.6862 87.6599 42.4537 87.7057C42.2213 87.7515 41.9805 87.727 41.762 87.6355C41.5435 87.544 41.3571 87.3895 41.2267 87.1918C41.0963 86.994 41.0276 86.7619 41.0295 86.525C41.0295 86.211 41.1542 85.9097 41.3763 85.6877C41.5984 85.4656 41.8996 85.3408 42.2137 85.3408Z" fill="#A8DADC"/>
<path d="M42.2137 69.8415C42.4506 69.8397 42.6827 69.9083 42.8804 70.0388C43.0782 70.1692 43.2326 70.3555 43.3241 70.574C43.4157 70.7925 43.4401 71.0333 43.3943 71.2658C43.3486 71.4982 43.2347 71.7118 43.0672 71.8793C42.8997 72.0468 42.6862 72.1607 42.4537 72.2064C42.2213 72.2522 41.9805 72.2278 41.762 72.1362C41.5435 72.0447 41.3571 71.8902 41.2267 71.6925C41.0963 71.4947 41.0276 71.2627 41.0295 71.0258C41.0295 70.7117 41.1542 70.4105 41.3763 70.1884C41.5984 69.9663 41.8996 69.8415 42.2137 69.8415Z" fill="#A8DADC"/>
<path d="M42.2138 54.3423C42.448 54.3423 42.677 54.4117 42.8717 54.5418C43.0664 54.672 43.2182 54.8569 43.3079 55.0733C43.3975 55.2897 43.4209 55.5278 43.3752 55.7575C43.3295 55.9872 43.2167 56.1983 43.0511 56.3639C42.8855 56.5295 42.6745 56.6423 42.4448 56.688C42.2151 56.7337 41.977 56.7102 41.7606 56.6206C41.5442 56.5309 41.3592 56.3792 41.2291 56.1844C41.099 55.9897 41.0295 55.7607 41.0295 55.5265C41.0295 55.2124 41.1543 54.9112 41.3764 54.6891C41.5985 54.467 41.8997 54.3423 42.2138 54.3423Z" fill="#A8DADC"/>
<path d="M42.2138 38.843C42.448 38.843 42.677 38.9124 42.8717 39.0426C43.0664 39.1727 43.2182 39.3576 43.3079 39.574C43.3975 39.7904 43.4209 40.0285 43.3752 40.2582C43.3295 40.488 43.2167 40.699 43.0511 40.8646C42.8855 41.0302 42.6745 41.143 42.4448 41.1887C42.2151 41.2344 41.977 41.2109 41.7606 41.1213C41.5442 41.0317 41.3592 40.8799 41.2291 40.6851C41.099 40.4904 41.0295 40.2614 41.0295 40.0272C41.0295 39.7131 41.1543 39.4119 41.3764 39.1898C41.5985 38.9677 41.8997 38.843 42.2138 38.843Z" fill="#A8DADC"/>
<path d="M57.5803 85.3408C57.8774 85.3673 58.1537 85.5041 58.3549 85.7241C58.5562 85.9442 58.6678 86.2316 58.6678 86.5298C58.6678 86.828 58.5562 87.1154 58.3549 87.3354C58.1537 87.5554 57.8774 87.6922 57.5803 87.7187C57.4153 87.7335 57.249 87.7137 57.092 87.6607C56.935 87.6076 56.7907 87.5224 56.6685 87.4106C56.5462 87.2988 56.4485 87.1627 56.3817 87.011C56.3149 86.8594 56.2804 86.6955 56.2804 86.5298C56.2804 86.3641 56.3149 86.2002 56.3817 86.0485C56.4485 85.8969 56.5462 85.7608 56.6685 85.6489C56.7907 85.5371 56.935 85.4519 57.092 85.3989C57.249 85.3458 57.4153 85.326 57.5803 85.3408Z" fill="#A8DADC"/>
<path d="M57.5803 69.8415C57.8774 69.8681 58.1537 70.0048 58.3549 70.2248C58.5562 70.4449 58.6678 70.7323 58.6678 71.0305C58.6678 71.3287 58.5562 71.6161 58.3549 71.8361C58.1537 72.0562 57.8774 72.1929 57.5803 72.2195C57.4153 72.2342 57.249 72.2144 57.092 72.1614C56.935 72.1083 56.7907 72.0232 56.6685 71.9113C56.5462 71.7995 56.4485 71.6634 56.3817 71.5118C56.3149 71.3601 56.2804 71.1962 56.2804 71.0305C56.2804 70.8648 56.3149 70.7009 56.3817 70.5492C56.4485 70.3976 56.5462 70.2615 56.6685 70.1496C56.7907 70.0378 56.935 69.9526 57.092 69.8996C57.249 69.8465 57.4153 69.8268 57.5803 69.8415Z" fill="#A8DADC"/>
<path d="M57.5804 54.3422C57.8142 54.3441 58.0422 54.4152 58.2357 54.5464C58.4292 54.6777 58.5795 54.8633 58.6677 55.0798C58.7559 55.2964 58.778 55.5342 58.7313 55.7633C58.6845 55.9923 58.5709 56.2025 58.405 56.3671C58.239 56.5318 58.0279 56.6437 57.7985 56.6886C57.569 56.7335 57.3314 56.7095 57.1156 56.6196C56.8998 56.5297 56.7153 56.3779 56.5856 56.1834C56.4559 55.9889 56.3867 55.7603 56.3867 55.5265C56.3867 55.3702 56.4176 55.2154 56.4777 55.0711C56.5378 54.9268 56.6259 54.7958 56.7369 54.6857C56.8479 54.5756 56.9795 54.4886 57.1243 54.4296C57.2691 54.3707 57.4241 54.341 57.5804 54.3422Z" fill="#A8DADC"/>
<path d="M57.5804 38.843C57.8142 38.8448 58.0422 38.9159 58.2357 39.0471C58.4292 39.1784 58.5795 39.364 58.6677 39.5805C58.7559 39.7971 58.778 40.0349 58.7313 40.264C58.6845 40.4931 58.5709 40.7032 58.405 40.8679C58.239 41.0325 58.0279 41.1444 57.7985 41.1893C57.569 41.2343 57.3314 41.2103 57.1156 41.1204C56.8998 41.0305 56.7153 40.8787 56.5856 40.6841C56.4559 40.4896 56.3867 40.261 56.3867 40.0272C56.3867 39.8709 56.4176 39.7161 56.4777 39.5718C56.5378 39.4275 56.6259 39.2965 56.7369 39.1865C56.8479 39.0764 56.9795 38.9893 57.1243 38.9304C57.2691 38.8714 57.4241 38.8417 57.5804 38.843Z" fill="#A8DADC"/>
<path d="M72.9471 85.3408C73.1835 85.3408 73.4147 85.4111 73.6112 85.5426C73.8077 85.6742 73.9607 85.8612 74.0507 86.0799C74.1408 86.2986 74.1639 86.5391 74.1171 86.7709C74.0702 87.0027 73.9556 87.2154 73.7877 87.3819C73.6198 87.5485 73.4062 87.6614 73.1741 87.7064C72.9419 87.7514 72.7016 87.7264 72.4837 87.6346C72.2657 87.5428 72.0799 87.3883 71.9499 87.1908C71.8199 86.9932 71.7515 86.7615 71.7533 86.525C71.7533 86.3687 71.7843 86.2139 71.8444 86.0696C71.9045 85.9253 71.9925 85.7944 72.1035 85.6843C72.2145 85.5742 72.3462 85.4872 72.4909 85.4282C72.6357 85.3693 72.7907 85.3395 72.9471 85.3408Z" fill="#A8DADC"/>
<path d="M72.9471 69.8415C73.1835 69.8415 73.4147 69.9118 73.6112 70.0434C73.8077 70.175 73.9607 70.362 74.0507 70.5806C74.1408 70.7993 74.1639 71.0398 74.1171 71.2716C74.0702 71.5034 73.9556 71.7161 73.7877 71.8827C73.6198 72.0492 73.4062 72.1622 73.1741 72.2072C72.9419 72.2521 72.7016 72.2271 72.4837 72.1353C72.2657 72.0435 72.0799 71.8891 71.9499 71.6915C71.8199 71.494 71.7515 71.2623 71.7533 71.0258C71.7533 70.8694 71.7843 70.7147 71.8444 70.5704C71.9045 70.4261 71.9925 70.2951 72.1035 70.185C72.2145 70.0749 72.3462 69.9879 72.4909 69.9289C72.6357 69.87 72.7907 69.8403 72.9471 69.8415Z" fill="#A8DADC"/>
<path d="M72.947 54.3422C73.1808 54.3441 73.4088 54.4152 73.6023 54.5464C73.7958 54.6777 73.9462 54.8633 74.0343 55.0798C74.1225 55.2964 74.1446 55.5342 74.0978 55.7633C74.0511 55.9923 73.9376 56.2025 73.7716 56.3671C73.6056 56.5318 73.3946 56.6437 73.1651 56.6886C72.9357 56.7335 72.698 56.7095 72.4822 56.6196C72.2663 56.5297 72.0819 56.3779 71.9522 56.1834C71.8225 55.9889 71.7533 55.7603 71.7533 55.5265C71.7533 55.3702 71.7843 55.2154 71.8444 55.0711C71.9045 54.9268 71.9925 54.7958 72.1035 54.6857C72.2145 54.5756 72.3461 54.4886 72.4909 54.4296C72.6357 54.3707 72.7907 54.341 72.947 54.3422Z" fill="#A8DADC"/>
<path d="M72.947 38.843C73.1808 38.8448 73.4088 38.9159 73.6023 39.0471C73.7958 39.1784 73.9462 39.364 74.0343 39.5805C74.1225 39.7971 74.1446 40.0349 74.0978 40.264C74.0511 40.4931 73.9376 40.7032 73.7716 40.8679C73.6056 41.0325 73.3946 41.1444 73.1651 41.1893C72.9357 41.2343 72.698 41.2103 72.4822 41.1204C72.2663 41.0305 72.0819 40.8787 71.9522 40.6841C71.8225 40.4896 71.7533 40.261 71.7533 40.0272C71.7533 39.8709 71.7843 39.7161 71.8444 39.5718C71.9045 39.4275 71.9925 39.2965 72.1035 39.1865C72.2145 39.0764 72.3461 38.9893 72.4909 38.9304C72.6357 38.8714 72.7907 38.8417 72.947 38.843Z" fill="#A8DADC"/>
<path d="M88.3136 85.3408C88.5501 85.3408 88.7812 85.4111 88.9777 85.5426C89.1742 85.6742 89.3273 85.8612 89.4173 86.0799C89.5074 86.2986 89.5305 86.5391 89.4836 86.7709C89.4368 87.0027 89.3222 87.2154 89.1543 87.3819C88.9864 87.5485 88.7728 87.6614 88.5406 87.7064C88.3084 87.7514 88.0681 87.7264 87.8502 87.6346C87.6322 87.5428 87.4465 87.3883 87.3165 87.1908C87.1864 86.9932 87.118 86.7615 87.1199 86.525C87.1199 86.3687 87.1508 86.2139 87.2109 86.0696C87.271 85.9253 87.3591 85.7944 87.4701 85.6843C87.5811 85.5742 87.7127 85.4872 87.8575 85.4282C88.0023 85.3693 88.1573 85.3395 88.3136 85.3408Z" fill="#A8DADC"/>
<path d="M88.3136 69.8415C88.5501 69.8415 88.7812 69.9118 88.9777 70.0434C89.1742 70.175 89.3273 70.362 89.4173 70.5806C89.5074 70.7993 89.5305 71.0398 89.4836 71.2716C89.4368 71.5034 89.3222 71.7161 89.1543 71.8827C88.9864 72.0492 88.7728 72.1622 88.5406 72.2072C88.3084 72.2521 88.0681 72.2271 87.8502 72.1353C87.6322 72.0435 87.4465 71.8891 87.3165 71.6915C87.1864 71.494 87.118 71.2623 87.1199 71.0258C87.1199 70.8694 87.1508 70.7147 87.2109 70.5704C87.271 70.4261 87.3591 70.2951 87.4701 70.185C87.5811 70.0749 87.7127 69.9879 87.8575 69.9289C88.0023 69.87 88.1573 69.8403 88.3136 69.8415Z" fill="#A8DADC"/>
<path d="M88.3137 54.3422C88.5475 54.3441 88.7755 54.4152 88.969 54.5464C89.1625 54.6777 89.3128 54.8633 89.401 55.0798C89.4892 55.2964 89.5113 55.5342 89.4645 55.7633C89.4178 55.9923 89.3042 56.2025 89.1382 56.3671C88.9722 56.5318 88.7612 56.6437 88.5318 56.6886C88.3023 56.7335 88.0647 56.7095 87.8489 56.6196C87.633 56.5297 87.4486 56.3779 87.3189 56.1834C87.1892 55.9889 87.12 55.7603 87.12 55.5265C87.12 55.3702 87.1509 55.2154 87.211 55.0711C87.2711 54.9268 87.3592 54.7958 87.4702 54.6857C87.5811 54.5756 87.7128 54.4886 87.8576 54.4296C88.0024 54.3707 88.1573 54.341 88.3137 54.3422Z" fill="#A8DADC"/>
<path d="M88.3137 38.843C88.5475 38.8448 88.7755 38.9159 88.969 39.0471C89.1625 39.1784 89.3128 39.364 89.401 39.5805C89.4892 39.7971 89.5113 40.0349 89.4645 40.264C89.4178 40.4931 89.3042 40.7032 89.1382 40.8679C88.9722 41.0325 88.7612 41.1444 88.5318 41.1893C88.3023 41.2343 88.0647 41.2103 87.8489 41.1204C87.633 41.0305 87.4486 40.8787 87.3189 40.6841C87.1892 40.4896 87.12 40.261 87.12 40.0272C87.12 39.8709 87.1509 39.7161 87.211 39.5718C87.2711 39.4275 87.3592 39.2965 87.4702 39.1865C87.5811 39.0764 87.7128 38.9893 87.8576 38.9304C88.0024 38.8714 88.1573 38.8417 88.3137 38.843Z" fill="#A8DADC"/>
<path d="M211.578 269.987C211.578 270.174 211.523 270.357 211.419 270.513C211.315 270.669 211.167 270.79 210.994 270.862C210.82 270.934 210.63 270.953 210.446 270.916C210.262 270.879 210.094 270.789 209.961 270.657C209.829 270.524 209.738 270.355 209.702 270.172C209.665 269.988 209.684 269.797 209.756 269.624C209.827 269.451 209.949 269.303 210.105 269.199C210.26 269.095 210.444 269.039 210.631 269.039C210.882 269.039 211.123 269.139 211.301 269.317C211.479 269.495 211.578 269.736 211.578 269.987Z" fill="#A8DADC"/>
<path d="M223.487 269.987C223.525 270.127 223.531 270.275 223.503 270.418C223.475 270.561 223.414 270.695 223.326 270.811C223.237 270.926 223.123 271.02 222.993 271.085C222.862 271.149 222.719 271.183 222.573 271.183C222.427 271.183 222.284 271.149 222.153 271.085C222.023 271.02 221.909 270.926 221.82 270.811C221.732 270.695 221.671 270.561 221.643 270.418C221.615 270.275 221.62 270.127 221.659 269.987C221.713 269.786 221.832 269.609 221.997 269.483C222.163 269.356 222.365 269.288 222.573 269.288C222.781 269.288 222.983 269.356 223.148 269.483C223.314 269.609 223.433 269.786 223.487 269.987Z" fill="#A8DADC"/>
<path d="M211.578 281.791C211.617 281.932 211.622 282.079 211.594 282.222C211.566 282.365 211.505 282.5 211.417 282.615C211.328 282.731 211.215 282.825 211.084 282.889C210.953 282.954 210.81 282.987 210.664 282.987C210.519 282.987 210.375 282.954 210.244 282.889C210.114 282.825 210 282.731 209.912 282.615C209.823 282.5 209.763 282.365 209.735 282.222C209.706 282.079 209.712 281.932 209.75 281.791C209.804 281.591 209.924 281.413 210.089 281.287C210.254 281.161 210.456 281.092 210.664 281.092C210.872 281.092 211.074 281.161 211.24 281.287C211.405 281.413 211.524 281.591 211.578 281.791Z" fill="#A8DADC"/>
<path d="M223.487 281.791C223.525 281.932 223.531 282.079 223.503 282.222C223.475 282.365 223.414 282.5 223.326 282.615C223.237 282.731 223.123 282.825 222.993 282.889C222.862 282.954 222.719 282.987 222.573 282.987C222.427 282.987 222.284 282.954 222.153 282.889C222.023 282.825 221.909 282.731 221.82 282.615C221.732 282.5 221.671 282.365 221.643 282.222C221.615 282.079 221.62 281.932 221.659 281.791C221.713 281.591 221.832 281.413 221.997 281.287C222.163 281.161 222.365 281.092 222.573 281.092C222.781 281.092 222.983 281.161 223.148 281.287C223.314 281.413 223.433 281.591 223.487 281.791Z" fill="#A8DADC"/>
<path d="M211.578 293.596C211.578 293.783 211.523 293.966 211.419 294.122C211.315 294.278 211.167 294.399 210.994 294.471C210.82 294.543 210.63 294.561 210.446 294.525C210.262 294.488 210.094 294.398 209.961 294.266C209.829 294.133 209.738 293.964 209.702 293.781C209.665 293.597 209.684 293.406 209.756 293.233C209.827 293.06 209.949 292.912 210.105 292.808C210.26 292.704 210.444 292.648 210.631 292.648C210.882 292.648 211.123 292.748 211.301 292.926C211.479 293.104 211.578 293.345 211.578 293.596Z" fill="#A8DADC"/>
<path d="M223.487 293.596C223.487 293.783 223.431 293.966 223.327 294.122C223.223 294.278 223.075 294.399 222.902 294.471C222.729 294.543 222.539 294.561 222.355 294.525C222.171 294.488 222.002 294.398 221.87 294.266C221.737 294.133 221.647 293.964 221.61 293.781C221.574 293.597 221.593 293.406 221.664 293.233C221.736 293.06 221.858 292.912 222.013 292.808C222.169 292.704 222.352 292.648 222.54 292.648C222.791 292.648 223.032 292.748 223.21 292.926C223.387 293.104 223.487 293.345 223.487 293.596Z" fill="#A8DADC"/>
<path d="M211.578 305.4C211.578 305.588 211.523 305.771 211.419 305.927C211.315 306.082 211.167 306.204 210.994 306.276C210.82 306.347 210.63 306.366 210.446 306.329C210.262 306.293 210.094 306.203 209.961 306.07C209.829 305.938 209.738 305.769 209.702 305.585C209.665 305.401 209.684 305.211 209.756 305.038C209.827 304.865 209.949 304.717 210.105 304.613C210.26 304.508 210.444 304.453 210.631 304.453C210.882 304.453 211.123 304.553 211.301 304.73C211.479 304.908 211.578 305.149 211.578 305.4Z" fill="#A8DADC"/>
<path d="M223.487 305.4C223.487 305.588 223.431 305.771 223.327 305.927C223.223 306.082 223.075 306.204 222.902 306.276C222.729 306.347 222.539 306.366 222.355 306.329C222.171 306.293 222.002 306.203 221.87 306.07C221.737 305.938 221.647 305.769 221.61 305.585C221.574 305.401 221.593 305.211 221.664 305.038C221.736 304.865 221.858 304.717 222.013 304.613C222.169 304.508 222.352 304.453 222.54 304.453C222.791 304.453 223.032 304.553 223.21 304.73C223.387 304.908 223.487 305.149 223.487 305.4Z" fill="#A8DADC"/>
<path d="M211.578 317.205C211.578 317.392 211.523 317.575 211.419 317.731C211.315 317.887 211.167 318.008 210.994 318.08C210.82 318.152 210.63 318.17 210.446 318.134C210.262 318.097 210.094 318.007 209.961 317.875C209.829 317.742 209.738 317.573 209.702 317.39C209.665 317.206 209.684 317.015 209.756 316.842C209.827 316.669 209.949 316.521 210.105 316.417C210.26 316.313 210.444 316.257 210.631 316.257C210.882 316.257 211.123 316.357 211.301 316.535C211.479 316.712 211.578 316.953 211.578 317.205Z" fill="#A8DADC"/>
<path d="M223.487 317.205C223.487 317.392 223.431 317.575 223.327 317.731C223.223 317.887 223.075 318.008 222.902 318.08C222.729 318.152 222.539 318.17 222.355 318.134C222.171 318.097 222.002 318.007 221.87 317.875C221.737 317.742 221.647 317.573 221.61 317.39C221.574 317.206 221.593 317.015 221.664 316.842C221.736 316.669 221.858 316.521 222.013 316.417C222.169 316.313 222.352 316.257 222.54 316.257C222.791 316.257 223.032 316.357 223.21 316.535C223.387 316.712 223.487 316.953 223.487 317.205Z" fill="#A8DADC"/>
<path d="M211.578 329C211.578 329.187 211.523 329.37 211.419 329.526C211.315 329.682 211.167 329.803 210.994 329.875C210.82 329.947 210.63 329.965 210.446 329.929C210.262 329.892 210.094 329.802 209.961 329.67C209.829 329.537 209.738 329.368 209.702 329.185C209.665 329.001 209.684 328.81 209.756 328.637C209.827 328.464 209.949 328.316 210.105 328.212C210.26 328.108 210.444 328.052 210.631 328.052C210.882 328.052 211.123 328.152 211.301 328.33C211.479 328.507 211.578 328.748 211.578 329Z" fill="#A8DADC"/>
<path d="M223.487 329C223.525 329.14 223.531 329.288 223.503 329.43C223.475 329.573 223.414 329.708 223.326 329.824C223.237 329.939 223.123 330.033 222.993 330.097C222.862 330.162 222.719 330.196 222.573 330.196C222.427 330.196 222.284 330.162 222.153 330.097C222.023 330.033 221.909 329.939 221.82 329.824C221.732 329.708 221.671 329.573 221.643 329.43C221.615 329.288 221.62 329.14 221.659 329C221.713 328.799 221.832 328.622 221.997 328.496C222.163 328.369 222.365 328.301 222.573 328.301C222.781 328.301 222.983 328.369 223.148 328.496C223.314 328.622 223.433 328.799 223.487 329Z" fill="#A8DADC"/>
<path d="M211.578 340.804C211.617 340.945 211.622 341.092 211.594 341.235C211.566 341.378 211.505 341.512 211.417 341.628C211.328 341.744 211.215 341.837 211.084 341.902C210.953 341.966 210.81 342 210.664 342C210.519 342 210.375 341.966 210.244 341.902C210.114 341.837 210 341.744 209.912 341.628C209.823 341.512 209.763 341.378 209.735 341.235C209.706 341.092 209.712 340.945 209.75 340.804C209.804 340.603 209.924 340.426 210.089 340.3C210.254 340.174 210.456 340.105 210.664 340.105C210.872 340.105 211.074 340.174 211.24 340.3C211.405 340.426 211.524 340.603 211.578 340.804Z" fill="#A8DADC"/>
<path d="M223.487 340.804C223.525 340.945 223.531 341.092 223.503 341.235C223.475 341.378 223.414 341.512 223.326 341.628C223.237 341.744 223.123 341.837 222.993 341.902C222.862 341.966 222.719 342 222.573 342C222.427 342 222.284 341.966 222.153 341.902C222.023 341.837 221.909 341.744 221.82 341.628C221.732 341.512 221.671 341.378 221.643 341.235C221.615 341.092 221.62 340.945 221.659 340.804C221.713 340.603 221.832 340.426 221.997 340.3C222.163 340.174 222.365 340.105 222.573 340.105C222.781 340.105 222.983 340.174 223.148 340.3C223.314 340.426 223.433 340.603 223.487 340.804Z" fill="#A8DADC"/>
</svg>
